<svg width="36" height="30" viewBox="0 0 36 30" fill="none" xmlns="http://www.w3.org/2000/svg">
<path d="M1.40662 7.36696V2C1.40662 1.44772 1.85433 1 2.40661 1H34C34.5522 1 35 1.44772 35 2V7.36696C35 7.91924 34.5522 8.36696 34 8.36696H2.40662C1.85433 8.36696 1.40662 7.91924 1.40662 7.36696Z" stroke="black"/>
<path d="M5.13916 4.69141H9.80519" stroke="black" stroke-linecap="round"/>
<path d="M1.40662 17.6756V12.3086C1.40662 11.7563 1.85433 11.3086 2.40661 11.3086H34C34.5522 11.3086 35 11.7563 35 12.3086V17.6756C35 18.2278 34.5522 18.6756 34 18.6756H2.40662C1.85433 18.6756 1.40662 18.2278 1.40662 17.6756Z" stroke="black"/>
<path d="M1.40662 27.9998V22.6328C1.40662 22.0805 1.85433 21.6328 2.40661 21.6328H34C34.5522 21.6328 35 22.0805 35 22.6328V27.9998C35 28.5521 34.5522 28.9998 34 28.9998H2.40662C1.85433 28.9998 1.40662 28.5521 1.40662 27.9998Z" stroke="black"/>
<path d="M5.13916 15H9.80519" stroke="black" stroke-linecap="round"/>
<path d="M5.13916 25.3086H9.80519" stroke="black" stroke-linecap="round"/>
</svg>
