<svg width="48" height="48" viewBox="0 0 48 48" fill="none" xmlns="http://www.w3.org/2000/svg">
<mask id="mask0_4724_15013" style="mask-type:alpha" maskUnits="userSpaceOnUse" x="0" y="0" width="48" height="48">
<rect width="48" height="48" rx="10" fill="#D9D9D9"/>
</mask>
<g mask="url(#mask0_4724_15013)">
<path d="M30.4956 46C29.5319 46 28.7083 45.6573 28.025 44.9719C27.3417 44.2865 27 43.4625 27 42.5C27 41.8 27.1833 41.1583 27.55 40.575C28.1844 39.5658 29 38.5318 29 37.3398V29.0923C29 27.9112 28.1916 26.8916 27.55 25.9C27.1833 25.3333 27 24.7077 27 24.0232C27 23.0411 27.3431 22.2083 28.0294 21.525C28.7157 20.8417 29.5407 20.5 30.5044 20.5C31.4681 20.5 32.2917 20.8427 32.975 21.5281C33.6583 22.2135 34 23.0375 34 24C34 24.7 33.8167 25.3333 33.45 25.9C32.8084 26.8916 32 27.9112 32 29.0923V29.3032C32 31.5646 34.2155 33.1615 36.3609 32.4464L39.1292 31.5236C40.2464 31.1512 41 30.1057 41 28.928C41 27.8468 40.269 26.9169 39.6422 26.0359C39.6107 25.9916 39.58 25.9463 39.55 25.9C39.1833 25.3333 39 24.7077 39 24.0232C39 23.0411 39.3432 22.2083 40.0294 21.525C40.7157 20.8417 41.5407 20.5 42.5045 20.5C43.4682 20.5 44.2917 20.8427 44.975 21.5281C45.6583 22.2135 46 23.0375 46 24C46 24.7 45.8167 25.3333 45.45 25.9C44.8084 26.8916 44 27.9112 44 29.0923V29.9546C44 31.8146 42.8083 33.4653 41.0429 34.0508L33.1239 36.6773C32.4529 36.8998 32 37.5272 32 38.2341C32 38.8823 32.4119 39.4419 32.8852 39.8847C33.097 40.0829 33.2853 40.313 33.45 40.575C33.8167 41.1583 34 41.7923 34 42.4768C34 43.4589 33.6569 44.2917 32.9706 44.975C32.2843 45.6583 31.4593 46 30.4956 46ZM7 40C6.2 40 5.5 39.6917 4.9 39.075C4.3 38.4583 4 37.7667 4 37V11C4 10.2333 4.3 9.54167 4.9 8.925C5.5 8.30833 6.2 8 7 8H18.9287C20.2869 8 21.5896 8.53957 22.55 9.5C23.5104 10.4604 24.8131 11 26.1713 11H41C41.825 11 42.5312 11.2938 43.1188 11.8813C44.0399 12.8024 42.944 14 41.6413 14H24.9213C23.5631 14 22.2604 13.4604 21.3 12.5C20.3396 11.5396 19.0369 11 17.6787 11H16.051C11.0523 11 7 15.0523 7 20.051V28.5C7 33.1944 10.8056 37 15.5 37H22.5C23.3284 37 24 37.6716 24 38.5C24 39.3284 23.3284 40 22.5 40H7Z" fill="#1C1B1F"/>
</g>
</svg>
