<svg width="43" height="31" viewBox="0 0 43 31" fill="none" xmlns="http://www.w3.org/2000/svg">
<path d="M42 9V3C42 1.89543 41.1046 1 40 1H3C1.89543 1 1 1.89543 1 3V9M42 9V28.5C42 29.6046 41.1046 30.5 40 30.5H3C1.89543 30.5 1 29.6046 1 28.5V9M42 9H1" stroke="currentColor" stroke-linecap="round"/>
<path d="M6 1L10 9" stroke="currentColor" stroke-linecap="round"/>
<path d="M12 1L16 9" stroke="currentColor" stroke-linecap="round"/>
<path d="M25 1L29 9" stroke="currentColor" stroke-linecap="round"/>
<path d="M31 1L35 9" stroke="currentColor" stroke-linecap="round"/>
<path d="M27.7897 19.5L19 23.4873L19 15.5127L27.7897 19.5Z" stroke="currentColor"/>
</svg>
