<svg width="48" height="48" viewBox="0 0 48 48" fill="none" xmlns="http://www.w3.org/2000/svg">
<mask id="mask0_4724_15019" style="mask-type:alpha" maskUnits="userSpaceOnUse" x="0" y="0" width="48" height="48">
<rect width="48" height="48" rx="10" fill="#D9D9D9"/>
</mask>
<g mask="url(#mask0_4724_15019)">
<path d="M4.9 8.9C5.91587 7.88413 7.39906 8.8197 8.02792 10.1114L9.9001 13.957C10.3895 14.9621 11.4094 15.6 12.5274 15.6H12.9736C14.9262 15.6 16.2047 13.5556 15.35 11.8L14.9003 10.8762C14.2533 9.54739 15.221 8 16.6989 8C17.4643 8 18.1626 8.43669 18.4976 9.12484L20.8501 13.957C21.3395 14.9621 22.3594 15.6 23.4774 15.6H23.9236C25.8762 15.6 27.1547 13.5556 26.3 11.8L25.8503 10.8762C25.2033 9.54739 26.171 8 27.6489 8C28.4143 8 29.1126 8.43669 29.4476 9.12484L31.8001 13.957C32.2895 14.9621 33.3094 15.6 34.4274 15.6H34.8736C36.8262 15.6 38.1047 13.5556 37.25 11.8C36.3953 10.0444 37.6738 8 39.6264 8H41C41.8 8 42.5 8.3 43.1 8.9C43.7 9.5 44 10.2 44 11V37C44 37.8 43.7 38.5 43.1 39.1C42.5 39.7 41.8 40 41 40H7C6.2 40 5.5 39.7 4.9 39.1C4.3 38.5 4 37.8 4 37V11C4 10.2 4.3 9.5 4.9 8.9ZM16.2 18.6C11.119 18.6 7 22.719 7 27.8C7 32.881 11.119 37 16.2 37H31.8C36.881 37 41 32.881 41 27.8C41 22.719 36.881 18.6 31.8 18.6H16.2Z" fill="#1C1B1F"/>
</g>
</svg>
