<svg width="48" height="48" viewBox="0 0 48 48" fill="none" xmlns="http://www.w3.org/2000/svg">
<mask id="mask0_4724_14995" style="mask-type:alpha" maskUnits="userSpaceOnUse" x="0" y="0" width="48" height="48">
<rect width="48" height="48" rx="10" fill="#D9D9D9"/>
</mask>
<g mask="url(#mask0_4724_14995)">
<path d="M27.5246 43C28.2079 43 28.7913 42.75 29.2746 42.25C29.7579 41.75 29.9996 41.1583 29.9996 40.475C29.9996 39.7917 29.76 39.2083 29.2809 38.725C28.8017 38.2417 28.2079 38 27.4996 38C26.8329 38 26.2496 38.2396 25.7496 38.7188C25.2496 39.1979 24.9996 39.7917 24.9996 40.5C24.9996 41.1667 25.2496 41.75 25.7496 42.25C26.2496 42.75 26.8413 43 27.5246 43ZM40.5246 22C41.2079 22 41.7913 21.75 42.2746 21.25C42.7579 20.75 42.9996 20.1583 42.9996 19.475C42.9996 18.7917 42.76 18.2083 42.2809 17.725C41.8017 17.2417 41.2079 17 40.4996 17C39.8329 17 39.2496 17.2396 38.7496 17.7188C38.2496 18.1979 37.9996 18.7917 37.9996 19.5C37.9996 20.1667 38.2496 20.75 38.7496 21.25C39.2496 21.75 39.8413 22 40.5246 22ZM11.9996 19.5C11.9996 20.3284 12.6712 21 13.4996 21H20.4996C21.328 21 21.9996 20.3284 21.9996 19.5C21.9996 18.6716 21.328 18 20.4996 18H13.4996C12.6712 18 11.9996 18.6716 11.9996 19.5ZM11.9996 28.5C11.9996 29.3284 12.6712 30 13.4996 30H20.4996C21.328 30 21.9996 29.3284 21.9996 28.5C21.9996 27.6716 21.328 27 20.4996 27H13.4996C12.6712 27 11.9996 27.6716 11.9996 28.5ZM6.59961 40C5.79961 40 5.09961 39.7 4.49961 39.1C3.89961 38.5 3.59961 37.8 3.59961 37V11C3.59961 10.2 3.89961 9.5 4.49961 8.9C5.09961 8.3 5.79961 8 6.59961 8H41.3996C42.1996 8 42.8996 8.3 43.4996 8.9C44.4167 9.81708 43.3482 11 42.0513 11H16.5996C11.0768 11 6.59961 15.4772 6.59961 21V30.8C6.59961 34.2242 9.37544 37 12.7996 37H17.4996C18.328 37 18.9996 37.6716 18.9996 38.5C18.9996 39.3284 18.328 40 17.4996 40H6.59961ZM27.4937 46C25.9643 46 24.6663 45.4653 23.5996 44.3959C22.5329 43.3264 21.9996 42.0278 21.9996 40.5C21.9996 39.2333 22.3746 38.1167 23.1246 37.15C23.2605 36.9749 23.4032 36.8102 23.5527 36.6558C24.7393 35.4312 25.9996 34.0244 25.9996 32.3192C25.9996 30.2099 27.7095 28.5 29.8188 28.5H36.8905C38.0553 28.5 38.9996 27.5557 38.9996 26.3909C38.9996 25.4492 38.3464 24.66 37.5503 24.1571C37.0121 23.8171 36.5369 23.3814 36.1246 22.85C35.3746 21.8833 34.9996 20.7667 34.9996 19.5C34.9996 17.9722 35.5349 16.6736 36.6055 15.6042C37.6761 14.5347 38.9761 14 40.5055 14C42.0349 14 43.3329 14.5347 44.3996 15.6042C45.4663 16.6736 45.9996 17.9722 45.9996 19.5C45.9996 20.7667 45.6246 21.8833 44.8746 22.85C44.7387 23.0251 44.596 23.1898 44.4465 23.3442C43.2599 24.5688 41.9996 25.9756 41.9996 27.6808C41.9996 29.7901 40.2897 31.5 38.1804 31.5H31.1087C29.9439 31.5 28.9996 32.4443 28.9996 33.6091C28.9996 34.5508 29.6528 35.34 30.4489 35.8429C30.9871 36.1829 31.4623 36.6186 31.8746 37.15C32.6246 38.1167 32.9996 39.2333 32.9996 40.5C32.9996 42.0278 32.4643 43.3264 31.3937 44.3959C30.3231 45.4653 29.0231 46 27.4937 46Z" fill="#1C1B1F"/>
</g>
</svg>
