<svg width="248" height="246" viewBox="0 0 248 246" fill="none" xmlns="http://www.w3.org/2000/svg">
<g filter="url(#filter0_f_4681_14776)">
<path fill-rule="evenodd" clip-rule="evenodd" d="M3.95898 123L3.95899 63C3.95899 29.8629 30.8219 3 63.959 3H124.459H184.959C218.096 3 244.959 29.8629 244.959 63V123C178.419 123 124.475 69.29 124.459 3.02871C124.443 69.29 70.4996 123 3.95898 123ZM124.459 243C124.459 176.725 178.409 123 244.959 123V183C244.959 216.137 218.096 243 184.959 243H124.459ZM124.459 243C124.459 176.725 70.5093 123 3.95898 123V183C3.95898 216.137 30.8219 243 63.959 243H124.459Z" fill="url(#paint0_linear_4681_14776)" fill-opacity="0.4"/>
<path fill-rule="evenodd" clip-rule="evenodd" d="M3.95898 123L3.95899 63C3.95899 29.8629 30.8219 3 63.959 3H124.459H184.959C218.096 3 244.959 29.8629 244.959 63V123C178.419 123 124.475 69.29 124.459 3.02871C124.443 69.29 70.4996 123 3.95898 123ZM124.459 243C124.459 176.725 178.409 123 244.959 123V183C244.959 216.137 218.096 243 184.959 243H124.459ZM124.459 243C124.459 176.725 70.5093 123 3.95898 123V183C3.95898 216.137 30.8219 243 63.959 243H124.459Z" fill="url(#paint1_linear_4681_14776)" fill-opacity="0.2"/>
</g>
<defs>
<filter id="filter0_f_4681_14776" x="0.958984" y="0" width="247" height="246" filterUnits="userSpaceOnUse" color-interpolation-filters="sRGB">
<feFlood flood-opacity="0" result="BackgroundImageFix"/>
<feBlend mode="normal" in="SourceGraphic" in2="BackgroundImageFix" result="shape"/>
<feGaussianBlur stdDeviation="1.5" result="effect1_foregroundBlur_4681_14776"/>
</filter>
<linearGradient id="paint0_linear_4681_14776" x1="124.459" y1="-14.8882" x2="-12.4162" y2="346.236" gradientUnits="userSpaceOnUse">
<stop stop-color="#D9D9D9"/>
<stop offset="1" stop-opacity="0"/>
</linearGradient>
<linearGradient id="paint1_linear_4681_14776" x1="111.202" y1="123" x2="103.408" y2="287.351" gradientUnits="userSpaceOnUse">
<stop stop-color="#D9D9D9"/>
<stop offset="1" stop-opacity="0"/>
</linearGradient>
</defs>
</svg>
