<svg width="324" height="328" viewBox="0 0 324 328" fill="none" xmlns="http://www.w3.org/2000/svg">
<g filter="url(#filter0_f_4681_14776)">
<path fill-rule="evenodd" clip-rule="evenodd" d="M3.71289 164L3.7129 3H164.713H325.713V164C236.809 164 164.734 91.9391 164.713 3.03852C164.692 91.9391 92.6177 164 3.71289 164ZM164.713 325C164.713 236.081 236.796 164 325.713 164V325H164.713ZM164.713 325C164.713 236.081 92.6308 164 3.71289 164V325H164.713Z" fill="url(#paint0_linear_4681_14776)" fill-opacity="0.4"/>
<path fill-rule="evenodd" clip-rule="evenodd" d="M3.71289 164L3.7129 3H164.713H325.713V164C236.809 164 164.734 91.9391 164.713 3.03852C164.692 91.9391 92.6177 164 3.71289 164ZM164.713 325C164.713 236.081 236.796 164 325.713 164V325H164.713ZM164.713 325C164.713 236.081 92.6308 164 3.71289 164V325H164.713Z" fill="url(#paint1_linear_4681_14776)" fill-opacity="0.2"/>
</g>
<defs>
<filter id="filter0_f_4681_14776" x="0.712891" y="0" width="328" height="328" filterUnits="userSpaceOnUse" color-interpolation-filters="sRGB">
<feFlood flood-opacity="0" result="BackgroundImageFix"/>
<feBlend mode="normal" in="SourceGraphic" in2="BackgroundImageFix" result="shape"/>
<feGaussianBlur stdDeviation="1.5" result="effect1_foregroundBlur_4681_14776"/>
</filter>
<linearGradient id="paint0_linear_4681_14776" x1="164.713" y1="-21" x2="-19.5" y2="463" gradientUnits="userSpaceOnUse">
<stop stop-color="#D9D9D9"/>
<stop offset="1" stop-opacity="0"/>
</linearGradient>
<linearGradient id="paint1_linear_4681_14776" x1="147" y1="164" x2="136.5" y2="384.5" gradientUnits="userSpaceOnUse">
<stop stop-color="#D9D9D9"/>
<stop offset="1" stop-opacity="0"/>
</linearGradient>
</defs>
</svg>
