<svg width="326" height="329" viewBox="0 0 326 329" fill="none" xmlns="http://www.w3.org/2000/svg">
<g filter="url(#filter0_f_4681_14777)">
<path fill-rule="evenodd" clip-rule="evenodd" d="M322.691 3.00028L162.855 3.00029C162.855 92.1356 234.416 164.396 322.691 164.396L322.691 3.00028Z" fill="url(#paint0_linear_4681_14777)" fill-opacity="0.4"/>
<path fill-rule="evenodd" clip-rule="evenodd" d="M162.852 164.399L162.852 325.794C251.126 325.794 322.688 253.535 322.688 164.399L162.852 164.399Z" fill="url(#paint1_linear_4681_14777)" fill-opacity="0.4"/>
<path fill-rule="evenodd" clip-rule="evenodd" d="M162.836 3.00028L2.99999 3.00029C3 92.1356 74.5609 164.396 162.836 164.396L162.836 3.00028Z" fill="url(#paint2_linear_4681_14777)" fill-opacity="0.4"/>
<path fill-rule="evenodd" clip-rule="evenodd" d="M3.00014 164.399L3.00012 325.794C91.2742 325.794 162.836 253.535 162.836 164.399L3.00014 164.399Z" fill="url(#paint3_linear_4681_14777)" fill-opacity="0.4"/>
<path fill-rule="evenodd" clip-rule="evenodd" d="M322.691 3.00028L162.855 3.00029C162.855 92.1356 234.416 164.396 322.691 164.396L322.691 3.00028Z" fill="url(#paint4_linear_4681_14777)" fill-opacity="0.4"/>
<path fill-rule="evenodd" clip-rule="evenodd" d="M162.852 164.399L162.852 325.794C251.126 325.794 322.688 253.535 322.688 164.399L162.852 164.399Z" fill="url(#paint5_linear_4681_14777)" fill-opacity="0.4"/>
<path fill-rule="evenodd" clip-rule="evenodd" d="M162.836 3.00028L2.99999 3.00029C3 92.1356 74.5609 164.396 162.836 164.396L162.836 3.00028Z" fill="url(#paint6_linear_4681_14777)" fill-opacity="0.4"/>
<path fill-rule="evenodd" clip-rule="evenodd" d="M3.00014 164.399L3.00012 325.794C91.2742 325.794 162.836 253.535 162.836 164.399L3.00014 164.399Z" fill="url(#paint7_linear_4681_14777)" fill-opacity="0.4"/>
</g>
<defs>
<filter id="filter0_f_4681_14777" x="0" y="0" width="325.691" height="328.794" filterUnits="userSpaceOnUse" color-interpolation-filters="sRGB">
<feFlood flood-opacity="0" result="BackgroundImageFix"/>
<feBlend mode="normal" in="SourceGraphic" in2="BackgroundImageFix" result="shape"/>
<feGaussianBlur stdDeviation="1.5" result="effect1_foregroundBlur_4681_14777"/>
</filter>
<linearGradient id="paint0_linear_4681_14777" x1="334.43" y1="179.036" x2="128.03" y2="-21.1773" gradientUnits="userSpaceOnUse">
<stop stop-color="#D9D9D9"/>
<stop offset="1" stop-opacity="0"/>
</linearGradient>
<linearGradient id="paint1_linear_4681_14777" x1="337.187" y1="152.546" x2="134.939" y2="357.034" gradientUnits="userSpaceOnUse">
<stop stop-color="#D9D9D9"/>
<stop offset="1" stop-opacity="0"/>
</linearGradient>
<linearGradient id="paint2_linear_4681_14777" x1="174.574" y1="179.036" x2="-31.8258" y2="-21.1773" gradientUnits="userSpaceOnUse">
<stop stop-color="#D9D9D9"/>
<stop offset="1" stop-opacity="0"/>
</linearGradient>
<linearGradient id="paint3_linear_4681_14777" x1="177.335" y1="152.546" x2="-24.913" y2="357.034" gradientUnits="userSpaceOnUse">
<stop stop-color="#D9D9D9"/>
<stop offset="1" stop-opacity="0"/>
</linearGradient>
<linearGradient id="paint4_linear_4681_14777" x1="334.43" y1="179.036" x2="128.03" y2="-21.1773" gradientUnits="userSpaceOnUse">
<stop stop-color="#D9D9D9"/>
<stop offset="1" stop-opacity="0"/>
</linearGradient>
<linearGradient id="paint5_linear_4681_14777" x1="337.187" y1="152.546" x2="134.939" y2="357.034" gradientUnits="userSpaceOnUse">
<stop stop-color="#D9D9D9"/>
<stop offset="1" stop-opacity="0"/>
</linearGradient>
<linearGradient id="paint6_linear_4681_14777" x1="174.574" y1="179.036" x2="-31.8258" y2="-21.1773" gradientUnits="userSpaceOnUse">
<stop stop-color="#D9D9D9"/>
<stop offset="1" stop-opacity="0"/>
</linearGradient>
<linearGradient id="paint7_linear_4681_14777" x1="177.335" y1="152.546" x2="-24.913" y2="357.034" gradientUnits="userSpaceOnUse">
<stop stop-color="#D9D9D9"/>
<stop offset="1" stop-opacity="0"/>
</linearGradient>
</defs>
</svg>
