<svg width="327" height="329" viewBox="0 0 327 329" fill="none" xmlns="http://www.w3.org/2000/svg">
<g filter="url(#filter0_f_4681_14794)">
<path fill-rule="evenodd" clip-rule="evenodd" d="M163.41 164.395H3.57422V3C91.8491 3.00001 163.41 75.2591 163.41 164.395ZM323.246 164.395V3C234.972 3 163.41 75.2591 163.41 164.395H323.246ZM163.41 325.79H3.57422V164.395C91.8491 164.395 163.41 236.655 163.41 325.79ZM163.41 325.79H323.246V164.395C234.972 164.395 163.41 236.655 163.41 325.79Z" fill="url(#paint0_linear_4681_14794)" fill-opacity="0.4"/>
<path fill-rule="evenodd" clip-rule="evenodd" d="M163.41 164.395H3.57422V3C91.8491 3.00001 163.41 75.2591 163.41 164.395ZM323.246 164.395V3C234.972 3 163.41 75.2591 163.41 164.395H323.246ZM163.41 325.79H3.57422V164.395C91.8491 164.395 163.41 236.655 163.41 325.79ZM163.41 325.79H323.246V164.395C234.972 164.395 163.41 236.655 163.41 325.79Z" fill="url(#paint1_linear_4681_14794)" fill-opacity="0.2"/>
</g>
<defs>
<filter id="filter0_f_4681_14794" x="0.574219" y="0" width="325.672" height="328.79" filterUnits="userSpaceOnUse" color-interpolation-filters="sRGB">
<feFlood flood-opacity="0" result="BackgroundImageFix"/>
<feBlend mode="normal" in="SourceGraphic" in2="BackgroundImageFix" result="shape"/>
<feGaussianBlur stdDeviation="1.5" result="effect1_foregroundBlur_4681_14794"/>
</filter>
<linearGradient id="paint0_linear_4681_14794" x1="163.41" y1="3" x2="113.501" y2="439" gradientUnits="userSpaceOnUse">
<stop stop-color="#DADAE4"/>
<stop offset="1" stop-opacity="0"/>
</linearGradient>
<linearGradient id="paint1_linear_4681_14794" x1="176.001" y1="-21" x2="127.001" y2="487.5" gradientUnits="userSpaceOnUse">
<stop stop-color="#D9D9D9"/>
<stop offset="1" stop-opacity="0"/>
</linearGradient>
</defs>
</svg>
