<svg viewBox="0 0 467 81" fill="none" xmlns="http://www.w3.org/2000/svg">
<path d="M308 61V34H289V61H308Z" stroke="black"/>
<path d="M327 61V23H308V61H327Z" stroke="black"/>
<path d="M297 61.5V55H300.5V61.5" stroke="black"/>
<path d="M316 61.5V55H319.5V61.5" stroke="black"/>
<path d="M293 49.5V47H296V49.5H293Z" stroke="black"/>
<path d="M312 49.5V47H315V49.5H312Z" stroke="black"/>
<path d="M293 44.5V42H296V44.5H293Z" stroke="black"/>
<path d="M312 44.5V42H315V44.5H312Z" stroke="black"/>
<path d="M293 39.5V37H296V39.5H293Z" stroke="black"/>
<path d="M312 39.5V37H315V39.5H312Z" stroke="black"/>
<path d="M312 34.5V32H315V34.5H312Z" stroke="black"/>
<path d="M312 29.5V27H315V29.5H312Z" stroke="black"/>
<path d="M301 49.5V47H304V49.5H301Z" stroke="black"/>
<path d="M320 49.5V47H323V49.5H320Z" stroke="black"/>
<path d="M301 44.5V42H304V44.5H301Z" stroke="black"/>
<path d="M320 44.5V42H323V44.5H320Z" stroke="black"/>
<path d="M301 39.5V37H304V39.5H301Z" stroke="black"/>
<path d="M320 34.5V32H323V34.5H320Z" stroke="black"/>
<path d="M320 39.5V37H323V39.5H320Z" stroke="black"/>
<path d="M320 29.5V27H323V29.5H320Z" stroke="black"/>
<path d="M14 51L14 54.3333L21.5625 54.3333L21.5625 59L25 59L25 54.3333L25 51L14 51Z" stroke="black"/>
<path d="M19 61V57.6667H11.4375V53H8L8 57.6667V61H19Z" stroke="black"/>
<path d="M19 48V44.6667H11.4375V40H8L8 44.6667V48H19Z" stroke="black"/>
<path d="M28 50.5V54H39V50.5H35.5V47H31.5V50.5H28Z" stroke="black"/>
<path d="M26.5 37L23 37L23 48L26.5 48L26.5 44.5L30 44.5L30 40.5L26.5 40.5L26.5 37Z" stroke="black"/>
<path d="M5 61V43H1V61H5Z" stroke="black"/>
<path d="M46 57L28 57L28 61L46 61L46 57Z" stroke="black"/>
<path d="M46 47V43H42V47H46Z" stroke="black"/>
<path d="M46 54V50H42V54H46Z" stroke="black"/>
<path d="M163.5 41V61H182.5V41" stroke="black"/>
<path d="M171.5 61.5V55H175V61.5" stroke="black"/>
<path d="M167.5 49.5V47H170.5V49.5H167.5Z" stroke="black"/>
<path d="M167.5 44.5V42H170.5V44.5H167.5Z" stroke="black"/>
<path d="M175.5 49.5V47H178.5V49.5H175.5Z" stroke="black"/>
<path d="M175.5 44.5V42H178.5V44.5H175.5Z" stroke="black"/>
<path d="M182.5 38V35.5H177V32H174.5V35.5V38H182.5Z" stroke="black"/>
<path d="M168.5 21L168.5 23.5L174 23.5L174 27L176.5 27L176.5 23.5L176.5 21L168.5 21Z" stroke="black"/>
<path d="M164.5 29H169.5V31.5H167.5V37H164.5V29Z" stroke="black"/>
<path d="M145 61.5H154.5L155 9.5L188 7.5V4.5L184.5 1H154.5H147L145 5V61.5Z" stroke="black"/>
<path d="M172.5 8.5V13.5C173.333 13.6667 175 14.5 175 16.5C175 18.5 174 19.5 172.5 19.5C170.5 19.5 169.5 18.5 169.5 16.5" stroke="black"/>
<path d="M440.127 64.7411L439.911 65.2027L440.127 64.7411ZM434.673 59.6374L435.056 59.331L435.056 59.331L434.673 59.6374ZM432.505 52.6262C432.302 52.4388 432.001 52.4643 431.833 52.6832L429.085 56.2499C428.916 56.4688 428.944 56.7981 429.147 56.9855C429.349 57.1729 429.65 57.1474 429.819 56.9285L432.261 53.7581L435.196 56.4725C435.399 56.6599 435.7 56.6344 435.869 56.4155C436.037 56.1966 436.01 55.8673 435.807 55.6799L432.505 52.6262ZM446.44 65.8636C444.536 66.0003 442.4 65.4548 440.344 64.2795L439.911 65.2027C442.096 66.4513 444.406 67.0562 446.516 66.9048L446.44 65.8636ZM440.344 64.2795C438.289 63.1048 436.436 61.3713 435.056 59.331L434.291 59.9437C435.759 62.1137 437.725 63.9534 439.911 65.2027L440.344 64.2795ZM435.056 59.331C433.675 57.2895 432.849 55.0641 432.675 52.9822L431.724 53.0628C431.917 55.3692 432.824 57.775 434.291 59.9437L435.056 59.331Z" fill="black"/>
<path d="M440.353 38.3337L440.15 37.8661L440.353 38.3337ZM447.041 37.2892C447.247 37.1056 447.281 36.777 447.117 36.5553L444.438 32.9416C444.273 32.7198 443.973 32.6889 443.766 32.8725C443.56 33.0561 443.526 33.3847 443.69 33.6064L446.072 36.8186L443.082 39.478C442.876 39.6616 442.842 39.9902 443.006 40.2119C443.171 40.4337 443.471 40.4646 443.678 40.281L447.041 37.2892ZM432.601 49.8549C432.829 47.7792 433.711 45.5806 435.144 43.5832L434.395 42.9503C432.873 45.0733 431.904 47.4505 431.652 49.7501L432.601 49.8549ZM435.144 43.5832C436.576 41.5868 438.472 39.9117 440.556 38.8013L440.15 37.8661C437.932 39.0476 435.919 40.8261 434.395 42.9503L435.144 43.5832ZM440.556 38.8013C442.641 37.6903 444.79 37.2111 446.69 37.4067L446.797 36.3687C444.692 36.1521 442.366 36.6853 440.15 37.8661L440.556 38.8013Z" fill="black"/>
<path d="M454.873 38.464L455.089 38.0024L454.873 38.464ZM460.327 43.5677L459.944 43.8741L459.944 43.8741L460.327 43.5677ZM462.495 50.5789C462.698 50.7663 462.999 50.7408 463.167 50.5219L465.915 46.9552C466.084 46.7363 466.056 46.407 465.854 46.2196C465.651 46.0322 465.35 46.0577 465.181 46.2766L462.739 49.447L459.804 46.7326C459.601 46.5452 459.3 46.5707 459.132 46.7896C458.963 47.0085 458.991 47.3378 459.193 47.5252L462.495 50.5789ZM448.56 37.3415C450.464 37.2048 452.6 37.7502 454.656 38.9256L455.089 38.0024C452.905 36.7538 450.594 36.1489 448.484 36.3003L448.56 37.3415ZM454.656 38.9256C456.712 40.1003 458.564 41.8338 459.944 43.8741L460.709 43.2613C459.241 41.0914 457.275 39.2517 455.089 38.0024L454.656 38.9256ZM459.944 43.8741C461.325 45.9156 462.151 48.141 462.325 50.2229L463.276 50.1423C463.083 47.8359 462.176 45.4301 460.709 43.2613L459.944 43.8741Z" fill="black"/>
<path d="M454.648 64.8714L454.851 65.339L454.648 64.8714ZM447.959 65.9159C447.753 66.0995 447.719 66.428 447.883 66.6498L450.563 70.2635C450.727 70.4853 451.028 70.5162 451.234 70.3326C451.44 70.149 451.474 69.8204 451.31 69.5987L448.928 66.3865L451.918 63.7271C452.124 63.5435 452.158 63.2149 451.994 62.9932C451.83 62.7714 451.529 62.7405 451.323 62.9241L447.959 65.9159ZM462.4 53.3502C462.172 55.4258 461.289 57.6244 459.857 59.6219L460.605 60.2548C462.128 58.1318 463.096 55.7546 463.348 53.455L462.4 53.3502ZM459.857 59.6219C458.425 61.6183 456.529 63.2934 454.444 64.4038L454.851 65.339C457.068 64.1575 459.081 62.3789 460.605 60.2548L459.857 59.6219ZM454.444 64.4038C452.359 65.5148 450.211 65.994 448.311 65.7984L448.203 66.8364C450.308 67.053 452.634 66.5198 454.851 65.339L454.444 64.4038Z" fill="black"/>
<line x1="23" y1="78.5" x2="448" y2="78.5" stroke="black"/>
<circle cx="25" cy="78" r="3" fill="black"/>
<circle cx="166" cy="78" r="3" fill="black"/>
<circle cx="307" cy="78" r="3" fill="black"/>
<circle cx="448" cy="78" r="3" fill="black"/>
</svg>
