<svg viewBox="0 0 70 458" fill="none" xmlns="http://www.w3.org/2000/svg">
<path d="M41.5 166V139H22.5V166H41.5Z" stroke="black"/>
<path d="M60.5 166V128H41.5V166H60.5Z" stroke="black"/>
<path d="M30.5 166.5V160H34V166.5" stroke="black"/>
<path d="M49.5 166.5V160H53V166.5" stroke="black"/>
<path d="M26.5 154.5V152H29.5V154.5H26.5Z" stroke="black"/>
<path d="M45.5 154.5V152H48.5V154.5H45.5Z" stroke="black"/>
<path d="M26.5 149.5V147H29.5V149.5H26.5Z" stroke="black"/>
<path d="M45.5 149.5V147H48.5V149.5H45.5Z" stroke="black"/>
<path d="M26.5 144.5V142H29.5V144.5H26.5Z" stroke="black"/>
<path d="M45.5 144.5V142H48.5V144.5H45.5Z" stroke="black"/>
<path d="M45.5 139.5V137H48.5V139.5H45.5Z" stroke="black"/>
<path d="M45.5 134.5V132H48.5V134.5H45.5Z" stroke="black"/>
<path d="M34.5 154.5V152H37.5V154.5H34.5Z" stroke="black"/>
<path d="M53.5 154.5V152H56.5V154.5H53.5Z" stroke="black"/>
<path d="M34.5 149.5V147H37.5V149.5H34.5Z" stroke="black"/>
<path d="M53.5 149.5V147H56.5V149.5H53.5Z" stroke="black"/>
<path d="M34.5 144.5V142H37.5V144.5H34.5Z" stroke="black"/>
<path d="M53.5 139.5V137H56.5V139.5H53.5Z" stroke="black"/>
<path d="M53.5 144.5V142H56.5V144.5H53.5Z" stroke="black"/>
<path d="M53.5 134.5V132H56.5V134.5H53.5Z" stroke="black"/>
<path d="M35.5 15L35.5 18.3333L43.0625 18.3333L43.0625 23L46.5 23L46.5 18.3333L46.5 15L35.5 15Z" stroke="black"/>
<path d="M40.5 25V21.6667H32.9375V17H29.5V21.6667V25H40.5Z" stroke="black"/>
<path d="M40.5 12V8.66667L32.9375 8.66667V4L29.5 4V8.66667V12L40.5 12Z" stroke="black"/>
<path d="M49.5 14.5V18H60.5V14.5H57V11H53V14.5H49.5Z" stroke="black"/>
<path d="M48 1L44.5 1L44.5 12L48 12L48 8.5L51.5 8.5L51.5 4.5L48 4.5L48 1Z" stroke="black"/>
<path d="M26.5 25V7H22.5V25H26.5Z" stroke="black"/>
<path d="M67.5 21L49.5 21L49.5 25L67.5 25L67.5 21Z" stroke="black"/>
<path d="M67.5 11V7H63.5V11H67.5Z" stroke="black"/>
<path d="M67.5 18V14H63.5V18H67.5Z" stroke="black"/>
<path d="M45 305V325H64V305" stroke="black"/>
<path d="M53 325.5V319H56.5V325.5" stroke="black"/>
<path d="M49 313.5V311H52V313.5H49Z" stroke="black"/>
<path d="M49 308.5V306H52V308.5H49Z" stroke="black"/>
<path d="M57 313.5V311H60V313.5H57Z" stroke="black"/>
<path d="M57 308.5V306H60V308.5H57Z" stroke="black"/>
<path d="M64 302V299.5H58.5V296H56V299.5V302H64Z" stroke="black"/>
<path d="M50 285L50 287.5L55.5 287.5L55.5 291L58 291L58 287.5L58 285L50 285Z" stroke="black"/>
<path d="M46 293H51V295.5H49V301H46V293Z" stroke="black"/>
<path d="M26.5 325.5H36L36.5 273.5L69.5 271.5V268.5L66 265H36H28.5L26.5 269V325.5Z" stroke="black"/>
<path d="M54 272.5V277.5C54.8333 277.667 56.5 278.5 56.5 280.5C56.5 282.5 55.5 283.5 54 283.5C52 283.5 51 282.5 51 280.5" stroke="black"/>
<path d="M32.6273 451.741L32.4108 452.203L32.6273 451.741ZM27.1734 446.637L27.5558 446.331L27.5558 446.331L27.1734 446.637ZM25.0049 439.626C24.8023 439.439 24.5013 439.464 24.3327 439.683L21.585 443.25C21.4164 443.469 21.444 443.798 21.6466 443.986C21.8492 444.173 22.1502 444.147 22.3188 443.929L24.7612 440.758L27.6963 443.473C27.8989 443.66 28.1999 443.634 28.3685 443.416C28.5371 443.197 28.5095 442.867 28.3069 442.68L25.0049 439.626ZM38.9401 452.864C37.0357 453 34.9002 452.455 32.8438 451.279L32.4108 452.203C34.5955 453.451 36.9062 454.056 39.0159 453.905L38.9401 452.864ZM32.8438 451.279C30.7885 450.105 28.9361 448.371 27.5558 446.331L26.791 446.944C28.259 449.114 30.2249 450.953 32.4108 452.203L32.8438 451.279ZM27.5558 446.331C26.1747 444.289 25.3492 442.064 25.1749 439.982L24.2243 440.063C24.4174 442.369 25.3239 444.775 26.791 446.944L27.5558 446.331Z" fill="black"/>
<path d="M32.8527 425.334L32.6497 424.866L32.8527 425.334ZM39.541 424.289C39.7474 424.106 39.7814 423.777 39.617 423.555L36.9376 419.942C36.7732 419.72 36.4726 419.689 36.2662 419.872C36.0598 420.056 36.0258 420.385 36.1902 420.606L38.5719 423.819L35.5823 426.478C35.376 426.662 35.3419 426.99 35.5064 427.212C35.6708 427.434 35.9714 427.465 36.1778 427.281L39.541 424.289ZM25.1006 436.855C25.3285 434.779 26.2109 432.581 27.6437 430.583L26.8954 429.95C25.3725 432.073 24.4043 434.45 24.1518 436.75L25.1006 436.855ZM27.6437 430.583C29.0756 428.587 30.9715 426.912 33.0558 425.801L32.6497 424.866C30.432 426.048 28.419 427.826 26.8954 429.95L27.6437 430.583ZM33.0558 425.801C35.1413 424.69 37.2896 424.211 39.1896 424.407L39.297 423.369C37.192 423.152 34.8662 423.685 32.6497 424.866L33.0558 425.801Z" fill="black"/>
<path d="M47.3728 425.464L47.5893 425.002L47.3728 425.464ZM52.8267 430.568L52.4444 430.874L52.4444 430.874L52.8267 430.568ZM54.9952 437.579C55.1979 437.766 55.4988 437.741 55.6674 437.522L58.4151 433.955C58.5837 433.736 58.5562 433.407 58.3535 433.22C58.1509 433.032 57.85 433.058 57.6813 433.277L55.2389 436.447L52.3038 433.733C52.1012 433.545 51.8003 433.571 51.6316 433.79C51.463 434.008 51.4906 434.338 51.6932 434.525L54.9952 437.579ZM41.06 424.342C42.9644 424.205 45.0999 424.75 47.1564 425.926L47.5893 425.002C45.4047 423.754 43.0939 423.149 40.9842 423.3L41.06 424.342ZM47.1564 425.926C49.2117 427.1 51.0641 428.834 52.4444 430.874L53.2091 430.261C51.7411 428.091 49.7752 426.252 47.5893 425.002L47.1564 425.926ZM52.4444 430.874C53.8254 432.916 54.6509 435.141 54.8252 437.223L55.7758 437.142C55.5827 434.836 54.6763 432.43 53.2091 430.261L52.4444 430.874Z" fill="black"/>
<path d="M47.1475 451.871L47.3506 452.339L47.1475 451.871ZM40.4593 452.916C40.2529 453.099 40.2188 453.428 40.3833 453.65L43.0626 457.264C43.227 457.485 43.5276 457.516 43.734 457.333C43.9404 457.149 43.9744 456.82 43.81 456.599L41.4284 453.386L44.4179 450.727C44.6243 450.544 44.6583 450.215 44.4939 449.993C44.3295 449.771 44.0289 449.74 43.8225 449.924L40.4593 452.916ZM54.8997 440.35C54.6718 442.426 53.7894 444.624 52.3566 446.622L53.1049 447.255C54.6277 445.132 55.5959 442.755 55.8484 440.455L54.8997 440.35ZM52.3566 446.622C50.9246 448.618 49.0287 450.293 46.9444 451.404L47.3506 452.339C49.5682 451.158 51.5812 449.379 53.1049 447.255L52.3566 446.622ZM46.9444 451.404C44.859 452.515 42.7107 452.994 40.8107 452.798L40.7032 453.836C42.8083 454.053 45.1341 453.52 47.3506 452.339L46.9444 451.404Z" fill="black"/>
<line x1="2.5" y1="14.5" x2="2.49998" y2="439.5" stroke="black"/>
<circle cx="3" cy="16.5" r="3" transform="rotate(90 3 16.5)" fill="black"/>
<circle cx="3" cy="157.5" r="3" transform="rotate(90 3 157.5)" fill="black"/>
<circle cx="3" cy="298.5" r="3" transform="rotate(90 3 298.5)" fill="black"/>
<circle cx="3" cy="439.5" r="3" transform="rotate(90 3 439.5)" fill="black"/>
</svg>
