<svg width="169" height="79" viewBox="0 0 169 79" fill="none" xmlns="http://www.w3.org/2000/svg">
<g clip-path="url(#clip0_5983_4793)">
<path fill-rule="evenodd" clip-rule="evenodd" d="M143.487 11.1724C150.078 11.7844 156.152 13.9514 161.403 17.2668C161.407 17.2752 161.549 17.3716 161.766 17.5099C155.125 7.99953 144.426 1.34355 131.882 0.17833C120.904 -0.835996 110.56 2.53391 102.612 8.82943C108.648 10.0324 113.954 13.0753 117.99 17.3045C125.324 12.6604 134.182 10.309 143.483 11.1724H143.487Z" fill="#2670CA"/>
<path fill-rule="evenodd" clip-rule="evenodd" d="M168.887 37.7001C168.879 37.5702 168.833 37.0044 168.821 36.887C168.203 29.7867 165.702 23.1433 161.762 17.5058C161.545 17.3675 161.407 17.2711 161.399 17.2627C156.147 13.9473 150.074 11.7846 143.483 11.1684C134.182 10.305 125.32 12.6564 117.99 17.3005C122.528 22.0535 125.471 28.2988 126.042 35.1434C126.184 36.8493 126.189 38.5929 126.026 40.3617C125.767 43.128 125.141 45.777 124.185 48.2416C122.461 52.7432 119.668 56.6747 116.154 59.768L116.216 59.7093C129.737 51.8462 146.496 48.4595 163.018 50.9786C161.52 52.3995 159.266 53.6108 157.437 54.5664C159.67 53.9838 167.518 50.8361 167.631 50.5972C167.631 50.5972 167.639 50.5972 167.639 50.593H167.631C167.631 50.593 169.463 44.637 168.887 37.696V37.7001Z" fill="#302E2B"/>
<path fill-rule="evenodd" clip-rule="evenodd" d="M168.165 36.7661C162.935 33.2118 158.623 31.0616 149.519 30.2149C142.593 29.5736 135.915 30.7095 129.933 33.2453C130.083 34.9219 130.1 36.6404 129.933 38.3798C129.152 46.8171 124.686 54.0054 118.274 58.5154C134.854 48.9422 149.928 47.6638 162.697 49.617C163.544 49.7511 166.17 50.2038 167.38 50.5307C168.866 43.0239 168.349 38.0613 168.161 36.7661H168.165Z" fill="white"/>
<path d="M127.967 62.0898H127.157V68.2512H127.967V62.0898Z" fill="#302E2B"/>
<path d="M129.303 68.2483V63.7845H129.979V64.4174C130.304 63.927 130.776 63.6797 131.394 63.6797C131.661 63.6797 131.907 63.73 132.133 63.8264C132.358 63.9228 132.525 64.0485 132.638 64.2078C132.751 64.3629 132.83 64.5515 132.872 64.7653C132.901 64.9078 132.913 65.1509 132.913 65.503V68.2483H132.158V65.5323C132.158 65.2263 132.129 64.9958 132.07 64.8407C132.012 64.6898 131.907 64.5683 131.757 64.4761C131.607 64.3839 131.431 64.3377 131.231 64.3377C130.91 64.3377 130.634 64.4425 130.4 64.6437C130.167 64.8491 130.05 65.2347 130.05 65.8089V68.2442H129.298L129.303 68.2483Z" fill="#302E2B"/>
<path d="M135.305 68.249L133.615 63.7852H134.412L135.368 66.4551C135.472 66.7443 135.564 67.0419 135.652 67.3563C135.718 67.1215 135.81 66.8407 135.931 66.5054L136.921 63.7852H137.693L136.011 68.249H135.309H135.305Z" fill="#302E2B"/>
<path d="M141.395 66.8104L142.172 66.9068C142.051 67.3637 141.821 67.7199 141.491 67.9714C141.158 68.2229 140.736 68.3487 140.218 68.3487C139.567 68.3487 139.054 68.1475 138.674 67.7451C138.294 67.3427 138.102 66.7811 138.102 66.0559C138.102 65.3308 138.294 64.7231 138.678 64.3081C139.062 63.8932 139.563 63.6836 140.177 63.6836C140.79 63.6836 141.258 63.889 141.633 64.2913C142.009 64.6979 142.201 65.268 142.201 66.0056C142.201 66.0517 142.201 66.1188 142.197 66.2068H138.883C138.908 66.6972 139.05 67.0745 139.296 67.3343C139.546 67.5942 139.851 67.7241 140.223 67.7241C140.498 67.7241 140.732 67.6529 140.928 67.5062C141.124 67.3595 141.279 67.1289 141.391 66.8104H141.395ZM138.924 65.5907H141.404C141.37 65.2177 141.274 64.9326 141.12 64.7482C140.882 64.459 140.569 64.3123 140.189 64.3123C139.843 64.3123 139.55 64.4297 139.317 64.6602C139.083 64.8907 138.949 65.2051 138.924 65.5907Z" fill="#302E2B"/>
<path d="M142.819 66.9158L143.562 66.7984C143.604 67.096 143.721 67.3265 143.913 67.49C144.105 67.6493 144.372 67.7289 144.714 67.7289C145.056 67.7289 145.315 67.6576 145.482 67.5151C145.649 67.3726 145.733 67.205 145.733 67.0163C145.733 66.8445 145.657 66.7104 145.511 66.6098C145.407 66.5427 145.152 66.4589 144.743 66.3541C144.192 66.2158 143.808 66.0942 143.595 65.9895C143.382 65.8889 143.22 65.7463 143.111 65.5661C143.003 65.3859 142.944 65.1847 142.944 64.9667C142.944 64.7656 142.99 64.5853 143.082 64.4135C143.174 64.2416 143.295 64.1033 143.453 63.9901C143.57 63.9021 143.729 63.8309 143.933 63.768C144.138 63.7093 144.355 63.6758 144.585 63.6758C144.931 63.6758 145.24 63.7261 145.503 63.8267C145.766 63.9273 145.962 64.0614 146.087 64.2374C146.213 64.4093 146.3 64.6398 146.346 64.929L145.611 65.0296C145.578 64.7991 145.482 64.6189 145.319 64.4931C145.161 64.3632 144.931 64.3003 144.639 64.3003C144.292 64.3003 144.046 64.359 143.9 64.4722C143.75 64.5853 143.679 64.7236 143.679 64.8745C143.679 64.9751 143.712 65.0631 143.771 65.1386C143.833 65.2182 143.929 65.2853 144.059 65.3398C144.134 65.3649 144.355 65.432 144.722 65.5326C145.257 65.6751 145.628 65.7925 145.837 65.8847C146.05 65.9769 146.213 66.1068 146.334 66.2828C146.455 66.4547 146.513 66.6726 146.513 66.9283C146.513 67.184 146.438 67.4187 146.292 67.6409C146.146 67.863 145.933 68.0349 145.657 68.1564C145.382 68.278 145.069 68.3366 144.722 68.3366C144.142 68.3366 143.704 68.2151 143.403 67.9762C143.103 67.7373 142.907 67.3768 142.823 66.9032L142.819 66.9158Z" fill="#302E2B"/>
<path d="M149.051 67.5706L149.16 68.2371C148.947 68.2832 148.759 68.3041 148.592 68.3041C148.316 68.3041 148.108 68.2622 147.953 68.1742C147.803 68.0862 147.699 67.973 147.636 67.8305C147.573 67.6922 147.544 67.3904 147.544 66.9377V64.3726H146.993V63.7858H147.544V62.6792L148.296 62.2266V63.7858H149.051V64.3726H148.296V66.9796C148.296 67.1976 148.308 67.3359 148.333 67.3946C148.358 67.4575 148.404 67.5036 148.463 67.5413C148.521 67.579 148.609 67.5958 148.721 67.5958C148.805 67.5958 148.918 67.5874 149.051 67.5664V67.5706Z" fill="#302E2B"/>
<path d="M149.79 62.9578V62.0859H150.545V62.9578H149.79ZM149.79 68.2473V63.7835H150.545V68.2473H149.79Z" fill="#302E2B"/>
<path d="M151.689 68.2483V63.7845H152.365V64.4174C152.691 63.927 153.163 63.6797 153.781 63.6797C154.048 63.6797 154.294 63.73 154.519 63.8264C154.745 63.9228 154.912 64.0485 155.025 64.2078C155.137 64.3629 155.217 64.5515 155.258 64.7653C155.287 64.9078 155.3 65.1509 155.3 65.503V68.2483H154.544V65.5323C154.544 65.2263 154.515 64.9958 154.457 64.8407C154.398 64.6898 154.294 64.5683 154.144 64.4761C153.993 64.3839 153.818 64.3377 153.618 64.3377C153.296 64.3377 153.021 64.4425 152.787 64.6437C152.553 64.8491 152.436 65.2347 152.436 65.8089V68.2442H151.685L151.689 68.2483Z" fill="#302E2B"/>
<path d="M156.319 68.6208L157.053 68.7298C157.082 68.9561 157.17 69.1196 157.308 69.2244C157.496 69.3627 157.75 69.4339 158.072 69.4339C158.422 69.4339 158.69 69.3627 158.882 69.2244C159.069 69.0861 159.199 68.8891 159.266 68.6376C159.307 68.4825 159.324 68.1598 159.32 67.6652C158.99 68.055 158.581 68.2478 158.088 68.2478C157.479 68.2478 157.003 68.0256 156.669 67.5855C156.335 67.1454 156.168 66.6131 156.168 65.9928C156.168 65.5653 156.243 65.1755 156.398 64.815C156.552 64.4545 156.774 64.1779 157.066 63.9809C157.358 63.7839 157.7 63.6875 158.093 63.6875C158.619 63.6875 159.049 63.9013 159.391 64.3288V63.7923H160.088V67.6484C160.088 68.3442 160.017 68.8346 159.875 69.1238C159.733 69.413 159.512 69.6435 159.203 69.8112C158.898 69.9788 158.523 70.0627 158.076 70.0627C157.546 70.0627 157.116 69.9411 156.79 69.7022C156.465 69.4633 156.306 69.1028 156.319 68.6208ZM156.941 65.9383C156.941 66.5251 157.057 66.9526 157.291 67.2209C157.521 67.4891 157.813 67.6232 158.159 67.6232C158.506 67.6232 158.794 67.4891 159.028 67.2251C159.261 66.9568 159.378 66.5377 159.378 65.9676C159.378 65.3976 159.257 65.0078 159.015 64.7312C158.773 64.4545 158.481 64.3162 158.143 64.3162C157.805 64.3162 157.525 64.4545 157.287 64.727C157.053 64.9994 156.936 65.406 156.936 65.9425L156.941 65.9383Z" fill="#302E2B"/>
<path d="M119.067 71.7038V70.832H119.823V71.7038H119.067ZM119.067 76.9934V72.5296H119.823V76.9934H119.067Z" fill="#302E2B"/>
<path d="M120.967 76.9944V72.5306H121.643V73.1635C121.968 72.6731 122.44 72.4258 123.058 72.4258C123.325 72.4258 123.571 72.4761 123.797 72.5725C124.022 72.6689 124.189 72.7946 124.302 72.9539C124.414 73.109 124.494 73.2976 124.536 73.5114C124.565 73.6539 124.577 73.897 124.577 74.249V76.9944H123.822V74.2784C123.822 73.9724 123.793 73.7419 123.734 73.5868C123.676 73.4359 123.571 73.3144 123.421 73.2221C123.271 73.1299 123.095 73.0838 122.895 73.0838C122.574 73.0838 122.298 73.1886 122.064 73.3898C121.831 73.5952 121.714 73.9808 121.714 74.555V76.9902H120.962L120.967 76.9944Z" fill="#302E2B"/>
<path d="M128.08 78.7133L127.996 78.005C128.163 78.0511 128.305 78.072 128.426 78.072C128.593 78.072 128.727 78.0427 128.827 77.9882C128.927 77.9337 129.01 77.8541 129.073 77.7535C129.123 77.678 129.198 77.4894 129.303 77.1918C129.315 77.1499 129.34 77.087 129.369 77.0074L127.683 72.5352H128.493L129.419 75.1171C129.536 75.444 129.645 75.7877 129.741 76.1524C129.829 75.8045 129.933 75.465 130.05 75.1338L131.002 72.5352H131.753L130.062 77.0745C129.883 77.5649 129.741 77.9002 129.641 78.0888C129.507 78.3403 129.353 78.5205 129.182 78.6379C129.006 78.7552 128.802 78.8139 128.56 78.8139C128.413 78.8139 128.251 78.7804 128.075 78.7217L128.08 78.7133Z" fill="#302E2B"/>
<path d="M132.12 74.764C132.12 73.9383 132.35 73.3264 132.809 72.9282C133.189 72.5971 133.656 72.4336 134.207 72.4336C134.817 72.4336 135.318 72.6348 135.706 73.0372C136.094 73.4395 136.286 73.9928 136.286 74.7012C136.286 75.2754 136.198 75.7281 136.027 76.055C135.856 76.3861 135.606 76.6418 135.28 76.822C134.95 77.0022 134.596 77.0945 134.207 77.0945C133.585 77.0945 133.084 76.8933 132.7 76.4951C132.316 76.0969 132.124 75.5185 132.124 74.764H132.12ZM132.892 74.764C132.892 75.3383 133.018 75.7616 133.264 76.0466C133.514 76.3316 133.827 76.4741 134.199 76.4741C134.571 76.4741 134.884 76.3316 135.134 76.0466C135.38 75.7616 135.506 75.3257 135.506 74.7389C135.506 74.1856 135.38 73.7665 135.13 73.4856C134.879 73.2006 134.571 73.0581 134.199 73.0581C133.827 73.0581 133.51 73.2006 133.264 73.4815C133.018 73.7623 132.892 74.1898 132.892 74.764Z" fill="#302E2B"/>
<path d="M140.081 76.9951V76.3413C139.734 76.8442 139.262 77.0957 138.67 77.0957C138.407 77.0957 138.165 77.0454 137.935 76.9448C137.71 76.8442 137.538 76.7185 137.43 76.5634C137.317 76.4083 137.242 76.2239 137.196 76.0018C137.167 75.8509 137.15 75.6161 137.15 75.2934V72.5312H137.902V75.0042C137.902 75.3982 137.918 75.6664 137.948 75.8048C137.998 76.0059 138.098 76.1568 138.248 76.2742C138.403 76.3874 138.595 76.4419 138.82 76.4419C139.045 76.4419 139.258 76.3832 139.454 76.27C139.655 76.1526 139.793 75.9934 139.876 75.7964C139.96 75.5952 140.001 75.306 140.001 74.9246V72.5354H140.753V76.9993H140.081V76.9951Z" fill="#302E2B"/>
<path d="M141.926 76.9942V72.5303H142.602V73.2051C142.773 72.8907 142.936 72.6812 143.082 72.5806C143.228 72.48 143.391 72.4297 143.566 72.4297C143.821 72.4297 144.08 72.5093 144.338 72.6728L144.08 73.377C143.896 73.268 143.712 73.2135 143.529 73.2135C143.362 73.2135 143.215 73.2638 143.086 73.3644C142.952 73.465 142.861 73.6033 142.806 73.7793C142.723 74.0476 142.681 74.341 142.681 74.6595V76.9942H141.93H141.926Z" fill="#302E2B"/>
<path d="M147.344 76.9964V73.1235H146.68V72.5367H147.344V72.0631C147.344 71.7613 147.373 71.5391 147.423 71.3966C147.494 71.1996 147.623 71.0404 147.807 70.9188C147.991 70.7972 148.245 70.7344 148.575 70.7344C148.788 70.7344 149.022 70.7595 149.277 70.8098L149.164 71.4679C149.009 71.4385 148.859 71.426 148.721 71.426C148.492 71.426 148.333 71.4763 148.237 71.5727C148.141 71.6691 148.095 71.8535 148.095 72.1217V72.5325H148.959V73.1193H148.095V76.9922H147.344V76.9964Z" fill="#302E2B"/>
<path d="M152.461 76.9951V76.3413C152.115 76.8442 151.643 77.0957 151.051 77.0957C150.788 77.0957 150.546 77.0454 150.316 76.9448C150.091 76.8442 149.919 76.7185 149.811 76.5634C149.698 76.4083 149.623 76.2239 149.577 76.0018C149.548 75.8509 149.531 75.6161 149.531 75.2934V72.5312H150.283V75.0042C150.283 75.3982 150.299 75.6664 150.328 75.8048C150.379 76.0059 150.479 76.1568 150.629 76.2742C150.783 76.3874 150.975 76.4419 151.201 76.4419C151.426 76.4419 151.639 76.3832 151.835 76.27C152.036 76.1526 152.173 75.9934 152.257 75.7964C152.34 75.5952 152.382 75.306 152.382 74.9246V72.5354H153.134V76.9993H152.461V76.9951Z" fill="#302E2B"/>
<path d="M155.96 76.3206L156.068 76.9871C155.855 77.0332 155.667 77.0541 155.5 77.0541C155.225 77.0541 155.016 77.0122 154.862 76.9242C154.711 76.8362 154.607 76.723 154.544 76.5805C154.482 76.4422 154.453 76.1404 154.453 75.6877V73.1226H153.902V72.5358H154.453V71.4292L155.204 70.9766V72.5358H155.96V73.1226H155.204V75.7296C155.204 75.9476 155.217 76.0859 155.242 76.1446C155.267 76.2075 155.313 76.2536 155.371 76.2913C155.429 76.329 155.517 76.3458 155.63 76.3458C155.713 76.3458 155.826 76.3374 155.96 76.3164V76.3206Z" fill="#302E2B"/>
<path d="M159.608 76.9951V76.3413C159.261 76.8442 158.79 77.0957 158.197 77.0957C157.934 77.0957 157.692 77.0454 157.462 76.9448C157.237 76.8442 157.066 76.7185 156.957 76.5634C156.844 76.4083 156.769 76.2239 156.723 76.0018C156.694 75.8509 156.678 75.6161 156.678 75.2934V72.5312H157.429V75.0042C157.429 75.3982 157.446 75.6664 157.475 75.8048C157.525 76.0059 157.625 76.1568 157.775 76.2742C157.93 76.3874 158.122 76.4419 158.347 76.4419C158.573 76.4419 158.786 76.3832 158.982 76.27C159.182 76.1526 159.32 75.9934 159.403 75.7964C159.487 75.5952 159.529 75.306 159.529 74.9246V72.5354H160.28V76.9993H159.608V76.9951Z" fill="#302E2B"/>
<path d="M161.453 76.9942V72.5303H162.129V73.2051C162.3 72.8907 162.463 72.6812 162.609 72.5806C162.755 72.48 162.918 72.4297 163.093 72.4297C163.348 72.4297 163.607 72.5093 163.866 72.6728L163.607 73.377C163.423 73.268 163.239 73.2135 163.056 73.2135C162.889 73.2135 162.743 73.2638 162.613 73.3644C162.48 73.465 162.388 73.6033 162.334 73.7793C162.25 74.0476 162.208 74.341 162.208 74.6595V76.9942H161.457H161.453Z" fill="#302E2B"/>
<path d="M167.355 75.5565L168.132 75.6529C168.011 76.1098 167.781 76.466 167.451 76.7175C167.117 76.969 166.696 77.0947 166.178 77.0947C165.527 77.0947 165.014 76.8936 164.634 76.4912C164.254 76.0888 164.062 75.5272 164.062 74.802C164.062 74.0769 164.254 73.4692 164.638 73.0542C165.022 72.6393 165.523 72.4297 166.136 72.4297C166.75 72.4297 167.218 72.6351 167.593 73.0374C167.969 73.444 168.161 74.0141 168.161 74.7517C168.161 74.7978 168.161 74.8649 168.157 74.9529H164.842C164.867 75.4433 165.009 75.8206 165.256 76.0804C165.506 76.3403 165.811 76.4702 166.182 76.4702C166.458 76.4702 166.692 76.399 166.888 76.2523C167.084 76.1056 167.238 75.875 167.351 75.5565H167.355ZM164.884 74.3326H167.364C167.33 73.9596 167.234 73.6745 167.08 73.4901C166.842 73.2009 166.529 73.0542 166.149 73.0542C165.803 73.0542 165.51 73.1716 165.277 73.4021C165.043 73.6326 164.909 73.947 164.884 74.3326Z" fill="#302E2B"/>
<path d="M77.9631 3.44141H4.44978V52.6529H77.9631V3.44141Z" fill="#001D85"/>
<path d="M39.639 14.1647L41.1918 13.0289L42.7447 14.1647L42.1519 12.3289L43.7298 11.1888H41.7846L41.1918 9.33203L40.5991 11.193L38.658 11.1888L40.2317 12.3289L39.639 14.1647Z" fill="#F6DC00"/>
<path d="M31.6118 16.333L33.1647 15.1971L34.7133 16.333L34.1248 14.493L35.6985 13.3571H33.7574L33.1647 11.4961L32.5677 13.3613L30.6267 13.3571L32.2046 14.493L31.6118 16.333Z" fill="#F6DC00"/>
<path d="M27.2915 17.4062L26.6945 19.2714L24.7535 19.2672L26.3314 20.4073L25.7386 22.2432L27.2915 21.1073L28.8401 22.2432L28.2515 20.4073L29.8252 19.2672H27.8842L27.2915 17.4062Z" fill="#F6DC00"/>
<path d="M25.1375 29.1581L26.6862 30.2939L26.0976 28.4539L27.6713 27.318H25.7303L25.1375 25.457L24.5406 27.3222L22.5996 27.318L24.1733 28.4539L23.5847 30.2939L25.1375 29.1581Z" fill="#F6DC00"/>
<path d="M27.8842 35.3883L27.2915 33.5273L26.6945 35.3925L24.7535 35.3883L26.3314 36.5284L25.7386 38.3643L27.2915 37.2284L28.8401 38.3643L28.2515 36.5284L29.8252 35.3883H27.8842Z" fill="#F6DC00"/>
<path d="M33.7699 41.2985L33.1772 39.4375L32.5803 41.3027L30.6392 41.2985L32.2129 42.4344L31.6244 44.2744L33.1772 43.1385L34.7259 44.2744L34.1373 42.4344L35.711 41.2985H33.7699Z" fill="#F6DC00"/>
<path d="M41.7887 43.443L41.1918 41.582L40.5991 43.4472L38.658 43.443L40.2317 44.5789L39.6432 46.4189L41.1918 45.2831L42.7447 46.4189L42.1519 44.5789L43.7298 43.443H41.7887Z" fill="#F6DC00"/>
<path d="M49.8034 41.2985L49.2106 39.4375L48.6137 41.3027L46.6768 41.2985L48.2505 42.4344L47.662 44.2744L49.2106 43.1385L50.7634 44.2744L50.1707 42.4344L51.7444 41.2985H49.8034Z" fill="#F6DC00"/>
<path d="M55.6933 35.3883L55.0964 33.5273L54.4994 35.3925L52.5626 35.3883L54.1363 36.5284L53.5435 38.3643L55.0964 37.2284L56.6492 38.3643L56.0564 36.5284L57.6301 35.3883H55.6933Z" fill="#F6DC00"/>
<path d="M59.7632 27.2949H57.8222L57.2252 25.4297L56.6325 27.2949H54.6915L56.2652 28.4308L55.6766 30.2666L57.2252 29.1307L58.7781 30.2666L58.1895 28.4308L59.7632 27.2949Z" fill="#F6DC00"/>
<path d="M53.5435 22.2155L55.0964 21.0797L56.6492 22.2155L56.0564 20.3797L57.6301 19.2438H55.6933L55.0964 17.3828L54.4994 19.248L52.5626 19.2438L54.1363 20.3797L53.5435 22.2155Z" fill="#F6DC00"/>
<path d="M49.2315 11.4961L48.6387 13.3613L46.6977 13.3571L48.2714 14.4972L47.6828 16.333L49.2357 15.1971L50.7843 16.333L50.1957 14.4972L51.7694 13.3571H49.8284L49.2315 11.4961Z" fill="#F6DC00"/>
<path d="M16.7013 64.3838L17.9285 64.7736C17.7407 65.461 17.4276 65.9723 16.9893 66.3077C16.551 66.643 15.9959 66.8064 15.3238 66.8064C14.4889 66.8064 13.8044 66.5214 13.27 65.9514C12.7316 65.3814 12.4644 64.5976 12.4644 63.6084C12.4644 62.5605 12.7357 61.7432 13.2742 61.1648C13.8127 60.5864 14.5223 60.293 15.4031 60.293C16.1712 60.293 16.7931 60.5193 17.2732 60.9762C17.557 61.2444 17.7741 61.6342 17.916 62.1372L16.6637 62.439C16.5886 62.112 16.4342 61.8564 16.2004 61.6636C15.9666 61.4749 15.6786 61.3785 15.3405 61.3785C14.8771 61.3785 14.4973 61.5462 14.2093 61.8815C13.9212 62.2168 13.7751 62.7575 13.7751 63.512C13.7751 64.3084 13.9171 64.8742 14.2051 65.2137C14.4931 65.5532 14.8604 65.7209 15.3196 65.7209C15.6577 65.7209 15.9458 65.6119 16.1879 65.3981C16.43 65.1844 16.6053 64.8449 16.7097 64.3838H16.7013Z" fill="#001D85"/>
<path d="M18.73 64.3533C18.73 63.9509 18.8302 63.5653 19.0264 63.1881C19.2226 62.8109 19.5022 62.5258 19.8612 62.3288C20.2202 62.1318 20.6251 62.0312 21.0718 62.0312C21.7605 62.0312 22.3241 62.2576 22.7624 62.7019C23.2007 63.1504 23.4219 63.7162 23.4219 64.4036C23.4219 65.091 23.2007 65.6652 22.7582 66.1221C22.3157 66.5748 21.7564 66.8011 21.0843 66.8011C20.6669 66.8011 20.2703 66.7047 19.8905 66.5161C19.5106 66.3275 19.2267 66.0508 19.0264 65.6862C18.8302 65.3215 18.73 64.8772 18.73 64.3533ZM19.9614 64.4204C19.9614 64.873 20.07 65.2209 20.2828 65.4598C20.4957 65.6987 20.7629 65.8203 21.076 65.8203C21.389 65.8203 21.652 65.6987 21.8649 65.4598C22.0778 65.2209 22.1821 64.8688 22.1821 64.412C22.1821 63.9551 22.0778 63.6198 21.8649 63.3809C21.652 63.142 21.389 63.0204 21.076 63.0204C20.7629 63.0204 20.4999 63.142 20.2828 63.3809C20.0658 63.6198 19.9614 63.9677 19.9614 64.4204Z" fill="#001D85"/>
<path d="M24.2234 65.0196V63.8125H26.586V65.0196H24.2234Z" fill="#001D85"/>
<path d="M26.753 62.1372H27.4209V61.7935C27.4209 61.4079 27.4626 61.1229 27.5419 60.9343C27.6254 60.7456 27.7715 60.5906 27.9927 60.4732C28.2098 60.3558 28.4853 60.293 28.8192 60.293C29.1532 60.293 29.4955 60.3433 29.8252 60.448L29.6625 61.2905C29.4704 61.2444 29.2868 61.2235 29.1114 61.2235C28.9361 61.2235 28.8109 61.2654 28.7358 61.345C28.6606 61.4247 28.6231 61.5839 28.6231 61.8145V62.1372H29.5205V63.0886H28.6231V66.7017H27.4209V63.0886H26.753V62.1372Z" fill="#001D85"/>
<path d="M33.1897 66.7012V66.018C33.0228 66.2611 32.8057 66.4539 32.5385 66.5964C32.2672 66.7347 31.9834 66.806 31.6828 66.806C31.3823 66.806 31.1026 66.7389 30.8605 66.6048C30.6184 66.4707 30.443 66.282 30.3345 66.0389C30.226 65.7958 30.1717 65.4605 30.1717 65.0288V62.1409H31.3739V64.2366C31.3739 64.8779 31.3948 65.2719 31.4407 65.4144C31.4866 65.5611 31.5659 65.6743 31.6828 65.7581C31.7997 65.8419 31.95 65.8839 32.1295 65.8839C32.334 65.8839 32.5177 65.8294 32.6805 65.712C32.8433 65.5988 32.956 65.4605 33.0144 65.2929C33.0728 65.1252 33.1062 64.7144 33.1062 64.0606V62.1367H34.3084V66.7012H33.1897Z" fill="#001D85"/>
<path d="M39.6891 66.7008H38.4869V64.3703C38.4869 63.8758 38.4618 63.5572 38.4117 63.4147C38.3617 63.268 38.2782 63.159 38.1613 63.0752C38.0444 62.9956 37.9067 62.9536 37.7439 62.9536C37.5351 62.9536 37.3473 63.0123 37.1845 63.1255C37.0175 63.2387 36.9048 63.3937 36.8422 63.5824C36.7796 63.771 36.7504 64.1231 36.7504 64.6302V66.6966H35.5482V62.1321H36.6669V62.8028C37.0635 62.2872 37.5644 62.0273 38.1655 62.0273C38.4326 62.0273 38.6747 62.0734 38.8918 62.1699C39.113 62.2663 39.2758 62.3878 39.3885 62.5387C39.5012 62.6896 39.5805 62.8572 39.6223 63.0459C39.6682 63.2345 39.6891 63.5069 39.6891 63.859V66.6966V66.7008Z" fill="#001D85"/>
<path d="M45.0781 66.7018H43.9594V66.0311C43.7757 66.291 43.5545 66.4838 43.304 66.6138C43.0536 66.7395 42.7989 66.8066 42.5401 66.8066C42.0183 66.8066 41.5717 66.597 41.2002 66.1737C40.8287 65.7503 40.6408 65.1593 40.6408 64.4049C40.6408 63.6504 40.8203 63.0427 41.1835 62.6403C41.5466 62.2379 42.0016 62.0367 42.5568 62.0367C43.0661 62.0367 43.5044 62.2505 43.8759 62.6738V60.4062H45.0781V66.706V66.7018ZM41.8681 64.321C41.8681 64.8073 41.9348 65.1593 42.0684 65.3773C42.2604 65.6916 42.5318 65.8509 42.8824 65.8509C43.1579 65.8509 43.3958 65.7336 43.5879 65.4946C43.7799 65.2599 43.8801 64.9037 43.8801 64.4342C43.8801 63.9103 43.7882 63.5331 43.5962 63.3025C43.4084 63.072 43.1663 62.9546 42.8741 62.9546C42.5819 62.9546 42.3481 63.0678 42.1561 63.2983C41.9641 63.5247 41.8681 63.8684 41.8681 64.321Z" fill="#001D85"/>
<path d="M48.8975 65.2497L50.0956 65.4509C49.9411 65.891 49.699 66.2263 49.3651 66.461C49.0311 66.6915 48.6179 66.8089 48.117 66.8089C47.328 66.8089 46.7436 66.549 46.3638 66.0293C46.0632 65.6143 45.9129 65.0904 45.9129 64.4575C45.9129 63.7031 46.1091 63.1079 46.5057 62.6804C46.8981 62.2528 47.399 62.0391 48.0001 62.0391C48.6763 62.0391 49.2106 62.2654 49.5988 62.7097C49.9912 63.1582 50.1749 63.8456 50.1582 64.7719H47.1443C47.1527 65.1281 47.2487 65.409 47.4365 65.606C47.6202 65.8072 47.854 65.9036 48.1295 65.9036C48.3173 65.9036 48.4759 65.8533 48.6053 65.7485C48.7348 65.6437 48.8308 65.4802 48.8975 65.2497ZM48.9643 64.0258C48.956 63.6779 48.8642 63.4097 48.693 63.2294C48.5219 63.0492 48.3131 62.957 48.0669 62.957C47.8039 62.957 47.5868 63.0534 47.4157 63.2462C47.2445 63.439 47.161 63.6989 47.1652 64.03H48.9643V64.0258Z" fill="#001D85"/>
<path d="M55.3092 66.7018H54.1905V66.0311C54.0069 66.291 53.7856 66.4838 53.5352 66.6138C53.2847 66.7395 53.0301 66.8066 52.7713 66.8066C52.2495 66.8066 51.8028 66.597 51.4313 66.1737C51.0598 65.7503 50.872 65.1593 50.872 64.4049C50.872 63.6504 51.0515 63.0427 51.4146 62.6403C51.7778 62.2379 52.2328 62.0367 52.788 62.0367C53.2972 62.0367 53.7355 62.2505 54.107 62.6738V60.4062H55.3092V66.706V66.7018ZM52.0992 64.321C52.0992 64.8073 52.166 65.1593 52.2996 65.3773C52.4916 65.6916 52.7629 65.8509 53.1136 65.8509C53.3891 65.8509 53.627 65.7336 53.819 65.4946C54.011 65.2599 54.1112 64.9037 54.1112 64.4342C54.1112 63.9103 54.0194 63.5331 53.8274 63.3025C53.6395 63.072 53.3974 62.9546 53.1052 62.9546C52.813 62.9546 52.5793 63.0678 52.3872 63.2983C52.1952 63.5247 52.0992 63.8684 52.0992 64.321Z" fill="#001D85"/>
<path d="M58.8783 66.7021V60.4023H60.0804V62.6699C60.452 62.2466 60.8903 62.0328 61.3995 62.0328C61.9547 62.0328 62.4097 62.234 62.7729 62.6364C63.136 63.0388 63.3155 63.6172 63.3155 64.3716C63.3155 65.1261 63.1319 65.7506 62.7603 66.1739C62.393 66.5973 61.9422 66.8068 61.4162 66.8068C61.1574 66.8068 60.8986 66.7398 60.6481 66.6098C60.3977 66.4799 60.1765 66.2871 59.997 66.0314V66.7021H58.8783ZM60.0721 64.3213C60.0721 64.795 60.1472 65.1428 60.2933 65.3692C60.5021 65.6919 60.7776 65.8512 61.124 65.8512C61.3912 65.8512 61.6166 65.738 61.8003 65.5075C61.9881 65.2812 62.0799 64.9207 62.0799 64.4303C62.0799 63.9106 61.9839 63.5333 61.7961 63.3028C61.6082 63.0723 61.3661 62.9549 61.0739 62.9549C60.7817 62.9549 60.548 63.0681 60.356 63.2944C60.1639 63.5208 60.0679 63.8603 60.0679 64.3213H60.0721Z" fill="#001D85"/>
<path d="M63.7121 62.1367H64.9936L66.0831 65.3767L67.1433 62.1367H68.3873L66.7844 66.5293L66.4963 67.3257C66.392 67.594 66.2918 67.7951 66.1958 67.9377C66.0998 68.076 65.9912 68.1933 65.866 68.2772C65.7408 68.3652 65.5905 68.4322 65.4068 68.4825C65.2273 68.5328 65.0228 68.5538 64.7932 68.5538C64.5636 68.5538 64.334 68.5286 64.1128 68.4825L64.0043 67.5353C64.1921 67.573 64.3633 67.5898 64.5135 67.5898C64.7932 67.5898 65.0019 67.5059 65.1355 67.3425C65.2691 67.179 65.3734 66.9694 65.4444 66.7138L63.7163 62.1367H63.7121Z" fill="#001D85"/>
<path d="M2.57971 72.6996V73.6637H1.75737V75.5037C1.75737 75.8767 1.76572 76.0947 1.78242 76.1534C1.79912 76.2162 1.83251 76.2665 1.89095 76.3043C1.94522 76.3462 2.01618 76.3629 2.09549 76.3629C2.2082 76.3629 2.36682 76.3252 2.57971 76.2456L2.68406 77.1845C2.40439 77.306 2.08714 77.3647 1.73233 77.3647C1.51526 77.3647 1.31907 77.327 1.14793 77.2557C0.972608 77.1845 0.847379 77.0881 0.763894 76.9707C0.684582 76.8533 0.626142 76.6983 0.596922 76.5013C0.571877 76.3629 0.559354 76.0779 0.559354 75.6504V73.6595H0V72.6954H0.551005V71.7901L1.75737 71.0859V72.6954H2.57971V72.6996Z" fill="#001D85"/>
<path d="M4.61258 70.9648V73.2827C5.00079 72.8258 5.46414 72.5995 6.00262 72.5995C6.27812 72.5995 6.52858 72.6498 6.74982 72.7546C6.97105 72.8594 7.13802 72.9893 7.25073 73.1486C7.36344 73.3079 7.43857 73.4881 7.48032 73.6809C7.52206 73.8737 7.54293 74.1797 7.54293 74.5862V77.2646H6.34074V74.8545C6.34074 74.3767 6.31986 74.0707 6.27395 73.9449C6.22803 73.815 6.14872 73.7144 6.03184 73.639C5.91496 73.5635 5.77303 73.5258 5.59771 73.5258C5.39735 73.5258 5.21785 73.5761 5.06341 73.6725C4.90896 73.7689 4.79208 73.9156 4.71694 74.1126C4.64598 74.3096 4.60841 74.5988 4.60841 74.9844V77.2729H3.40622V70.9732H4.60841L4.61258 70.9648Z" fill="#001D85"/>
<path d="M11.4041 75.8122L12.6022 76.0134C12.4477 76.4535 12.2056 76.7888 11.8717 77.0235C11.5377 77.254 11.1245 77.3714 10.6236 77.3714C9.83461 77.3714 9.25021 77.1115 8.87035 76.5918C8.5698 76.1769 8.41953 75.6529 8.41953 75.02C8.41953 74.2656 8.61572 73.6704 9.01228 73.2429C9.40466 72.8153 9.90557 72.6016 10.5067 72.6016C11.1829 72.6016 11.7172 72.8279 12.1054 73.2722C12.4978 73.7207 12.6815 74.4081 12.6648 75.3344H9.65094C9.65929 75.6906 9.7553 75.9715 9.94314 76.1685C10.1268 76.3697 10.3606 76.4661 10.6361 76.4661C10.8239 76.4661 10.9825 76.4158 11.1119 76.311C11.2413 76.2062 11.3374 76.0427 11.4041 75.8122ZM11.4709 74.5883C11.4626 74.2404 11.3707 73.9722 11.1996 73.7919C11.0285 73.6117 10.8197 73.5195 10.5735 73.5195C10.3105 73.5195 10.0934 73.6159 9.92227 73.8087C9.75113 74.0015 9.66764 74.2614 9.67181 74.5925H11.4709V74.5883Z" fill="#001D85"/>
<path d="M16.0877 77.2646V70.9648H20.742V72.0295H17.3567V73.4252H20.5083V74.4856H17.3567V76.1999H20.8631V77.2604H16.0919L16.0877 77.2646Z" fill="#001D85"/>
<path d="M24.9205 77.2637V76.5805C24.7535 76.8236 24.5364 77.0164 24.2693 77.1589C23.998 77.2972 23.7141 77.3685 23.4136 77.3685C23.113 77.3685 22.8333 77.3014 22.5912 77.1673C22.3491 77.0332 22.1738 76.8445 22.0653 76.6014C21.9567 76.3583 21.9025 76.023 21.9025 75.5913V72.7034H23.1047V74.7991C23.1047 75.4404 23.1255 75.8344 23.1714 75.9769C23.2174 76.1236 23.2967 76.2368 23.4136 76.3206C23.5304 76.4044 23.6807 76.4464 23.8602 76.4464C24.0647 76.4464 24.2484 76.3919 24.4112 76.2745C24.574 76.1613 24.6867 76.023 24.7451 75.8554C24.8036 75.6877 24.837 75.2769 24.837 74.6231V72.6992H26.0392V77.2637H24.9205Z" fill="#001D85"/>
<path d="M28.4352 77.263H27.233V72.6985H28.3517V73.3482C28.5437 73.0422 28.7149 72.841 28.8693 72.7405C29.0238 72.644 29.1949 72.5938 29.3911 72.5938C29.6666 72.5938 29.9296 72.6692 30.1842 72.8201L29.8127 73.8721C29.6082 73.7422 29.4203 73.6751 29.2492 73.6751C29.0781 73.6751 28.9361 73.7212 28.8192 73.8135C28.7024 73.9057 28.6105 74.0733 28.5437 74.3206C28.477 74.5637 28.4436 75.0751 28.4436 75.8505V77.2588L28.4352 77.263Z" fill="#001D85"/>
<path d="M30.4138 74.9158C30.4138 74.5134 30.514 74.1278 30.7102 73.7506C30.9064 73.3734 31.1861 73.0883 31.5451 72.8913C31.9082 72.6943 32.3089 72.5938 32.7556 72.5938C33.4444 72.5938 34.0079 72.8201 34.4462 73.2644C34.8845 73.7129 35.1057 74.2787 35.1057 74.9661C35.1057 75.6535 34.8845 76.2277 34.442 76.6846C33.9995 77.1373 33.4402 77.3636 32.7681 77.3636C32.3507 77.3636 31.9541 77.2672 31.5743 77.0786C31.1944 76.89 30.9106 76.6133 30.7102 76.2487C30.514 75.884 30.4138 75.4397 30.4138 74.9158ZM31.6494 74.9829C31.6494 75.4355 31.7579 75.7834 31.9708 76.0223C32.1837 76.2613 32.4509 76.3828 32.7639 76.3828C33.077 76.3828 33.34 76.2613 33.5529 76.0223C33.7658 75.7834 33.8701 75.4313 33.8701 74.9745C33.8701 74.5176 33.7658 74.1823 33.5529 73.9434C33.34 73.7045 33.077 73.5829 32.7639 73.5829C32.4509 73.5829 32.1879 73.7045 31.9708 73.9434C31.7579 74.1823 31.6494 74.5302 31.6494 74.9829Z" fill="#001D85"/>
<path d="M36.0157 72.6982H37.1386V73.3689C37.2847 73.1383 37.4809 72.9539 37.7313 72.8114C37.9776 72.6689 38.2531 72.5977 38.5578 72.5977C39.0838 72.5977 39.5346 72.8072 39.902 73.2222C40.2693 73.6371 40.453 74.2155 40.453 74.9574C40.453 75.6993 40.2651 76.3113 39.8978 76.7346C39.5263 77.1579 39.0796 77.3675 38.5495 77.3675C38.299 77.3675 38.0695 77.3172 37.8649 77.2166C37.6604 77.116 37.4475 76.9442 37.2221 76.7011V79.0022H36.0199V72.7024L36.0157 72.6982ZM37.2054 74.9029C37.2054 75.4143 37.3056 75.7957 37.5101 76.0388C37.7146 76.2819 37.9609 76.4077 38.2489 76.4077C38.537 76.4077 38.7624 76.2945 38.9461 76.0723C39.1297 75.846 39.2257 75.4772 39.2257 74.9658C39.2257 74.488 39.1297 74.1317 38.9377 73.9012C38.7457 73.6707 38.5078 73.5533 38.2281 73.5533C37.9484 73.5533 37.6896 73.6665 37.4976 73.897C37.3056 74.1233 37.2054 74.4628 37.2054 74.9113V74.9029Z" fill="#001D85"/>
<path d="M44.0345 75.8122L45.2325 76.0134C45.0781 76.4535 44.836 76.7888 44.502 77.0235C44.1681 77.254 43.7548 77.3714 43.2539 77.3714C42.465 77.3714 41.8806 77.1115 41.5007 76.5918C41.2002 76.1769 41.0499 75.6529 41.0499 75.02C41.0499 74.2656 41.2461 73.6704 41.6426 73.2429C42.035 72.8153 42.5359 72.6016 43.137 72.6016C43.8133 72.6016 44.3476 72.8279 44.7358 73.2722C45.1282 73.7207 45.3118 74.4081 45.2951 75.3344H42.2813C42.2897 75.6906 42.3857 75.9715 42.5735 76.1685C42.7572 76.3697 42.9909 76.4661 43.2664 76.4661C43.4543 76.4661 43.6129 76.4158 43.7423 76.311C43.8717 76.2062 43.9677 76.0427 44.0345 75.8122ZM44.1055 74.5883C44.0971 74.2404 44.0053 73.9722 43.8341 73.7919C43.663 73.6117 43.4543 73.5195 43.208 73.5195C42.945 73.5195 42.728 73.6159 42.5568 73.8087C42.3857 74.0015 42.3022 74.2614 42.3064 74.5925H44.1055V74.5883Z" fill="#001D85"/>
<path d="M47.1777 74.0901L46.0883 73.8931C46.2093 73.453 46.4222 73.1261 46.7227 72.9123C47.0233 72.6985 47.4658 72.5938 48.0585 72.5938C48.597 72.5938 48.9936 72.6566 49.2565 72.7866C49.5195 72.9123 49.7032 73.0758 49.8117 73.2728C49.9202 73.4698 49.9703 73.8302 49.9703 74.3541L49.9578 75.7625C49.9578 76.1648 49.9787 76.4582 50.0163 76.6511C50.0538 76.8397 50.1248 77.045 50.2333 77.263H49.0436C49.0103 77.1834 48.9727 77.066 48.9268 76.9067C48.9059 76.8355 48.8934 76.7894 48.885 76.7642C48.6805 76.9654 48.4592 77.1163 48.2255 77.2169C47.9917 77.3175 47.7413 77.3678 47.4783 77.3678C47.0108 77.3678 46.6434 77.242 46.3721 76.9864C46.1008 76.7307 45.9672 76.4079 45.9672 76.0181C45.9672 75.7583 46.0298 75.5319 46.1509 75.3266C46.2719 75.1254 46.4472 74.9703 46.6685 74.8613C46.8897 74.7523 47.207 74.6601 47.6244 74.5805C48.1879 74.4757 48.5761 74.3751 48.7932 74.2829V74.1613C48.7932 73.9308 48.7348 73.7632 48.622 73.6668C48.5093 73.5662 48.2923 73.5201 47.975 73.5201C47.7621 73.5201 47.5952 73.562 47.4741 73.6458C47.3531 73.7296 47.2571 73.8805 47.1819 74.0901H47.1777ZM48.7848 75.0709C48.6304 75.1212 48.3883 75.1841 48.0543 75.2553C47.7204 75.3266 47.5033 75.3978 47.399 75.4649C47.2404 75.578 47.1652 75.7164 47.1652 75.8882C47.1652 76.0601 47.2278 76.2026 47.3531 76.3283C47.4783 76.4541 47.6369 76.5127 47.8331 76.5127C48.0502 76.5127 48.2547 76.4415 48.4551 76.299C48.6012 76.19 48.6972 76.0559 48.7431 75.9008C48.7765 75.796 48.789 75.6032 48.789 75.3098V75.0709H48.7848Z" fill="#001D85"/>
<path d="M55.2884 77.2633H54.0862V74.9328C54.0862 74.4383 54.0611 74.1197 54.011 73.9772C53.961 73.8305 53.8775 73.7215 53.7606 73.6377C53.6437 73.5581 53.506 73.5161 53.3432 73.5161C53.1344 73.5161 52.9466 73.5748 52.7838 73.688C52.6168 73.8012 52.5041 73.9562 52.4415 74.1449C52.3789 74.3335 52.3497 74.6856 52.3497 75.1927V77.2591H51.1475V72.6946H52.2662V73.3653C52.6627 72.8497 53.1637 72.5898 53.7648 72.5898C54.0319 72.5898 54.274 72.6359 54.4911 72.7324C54.7123 72.8288 54.8751 72.9503 54.9878 73.1012C55.1005 73.2521 55.1798 73.4197 55.2216 73.6084C55.2675 73.797 55.2884 74.0694 55.2884 74.4215V77.2591V77.2633Z" fill="#001D85"/>
<path d="M58.945 70.9651H60.214V74.3769C60.214 74.9176 60.2307 75.2697 60.2599 75.429C60.3142 75.6889 60.4436 75.8942 60.6481 76.0493C60.8527 76.2044 61.1324 76.284 61.483 76.284C61.8336 76.284 62.1133 76.2086 62.297 76.0619C62.4807 75.9152 62.5892 75.735 62.6268 75.517C62.6643 75.3033 62.681 74.947 62.681 74.4482V70.9609H63.95V74.2722C63.95 75.0266 63.9166 75.5631 63.8457 75.8733C63.7789 76.1876 63.6495 76.4517 63.4658 76.6655C63.2821 76.8792 63.0358 77.0511 62.7269 77.181C62.418 77.3068 62.0173 77.3738 61.5206 77.3738C60.9195 77.3738 60.4687 77.3026 60.1556 77.1642C59.8467 77.0259 59.6004 76.8457 59.4209 76.6236C59.2414 76.4014 59.1245 76.1709 59.0661 75.9236C58.9826 75.5631 58.9409 75.0308 58.9409 74.3267V70.9651H58.945Z" fill="#001D85"/>
<path d="M69.41 77.2633H68.2078V74.9328C68.2078 74.4383 68.1827 74.1197 68.1326 73.9772C68.0825 73.8305 67.9991 73.7215 67.8822 73.6377C67.7653 73.5581 67.6275 73.5161 67.4648 73.5161C67.256 73.5161 67.0682 73.5748 66.9054 73.688C66.7384 73.8012 66.6257 73.9562 66.5631 74.1449C66.5005 74.3335 66.4713 74.6856 66.4713 75.1927V77.2591H65.2691V72.6946H66.3878V73.3653C66.7843 72.8497 67.2853 72.5898 67.8864 72.5898C68.1535 72.5898 68.3956 72.6359 68.6127 72.7324C68.8339 72.8288 68.9967 72.9503 69.1094 73.1012C69.2221 73.2521 69.3014 73.4197 69.3432 73.6084C69.3891 73.797 69.41 74.0694 69.41 74.4215V77.2591V77.2633Z" fill="#001D85"/>
<path d="M70.6289 72.084V70.9648H71.8311V72.084H70.6289ZM70.6289 77.2646V72.7001H71.8311V77.2646H70.6289Z" fill="#001D85"/>
<path d="M72.787 74.9158C72.787 74.5134 72.8871 74.1278 73.0833 73.7506C73.2795 73.3734 73.5592 73.0883 73.9182 72.8913C74.2814 72.6943 74.6821 72.5938 75.1287 72.5938C75.8175 72.5938 76.381 72.8201 76.8193 73.2644C77.2576 73.7129 77.4789 74.2787 77.4789 74.9661C77.4789 75.6535 77.2576 76.2277 76.8152 76.6846C76.3727 77.1373 75.8133 77.3636 75.1413 77.3636C74.7238 77.3636 74.3273 77.2672 73.9474 77.0786C73.5676 76.89 73.2837 76.6133 73.0833 76.2487C72.8871 75.884 72.787 75.4397 72.787 74.9158ZM74.0184 74.9829C74.0184 75.4355 74.1269 75.7834 74.3398 76.0223C74.5527 76.2613 74.8198 76.3828 75.1329 76.3828C75.446 76.3828 75.709 76.2613 75.9219 76.0223C76.1347 75.7834 76.2391 75.4313 76.2391 74.9745C76.2391 74.5176 76.1347 74.1823 75.9219 73.9434C75.709 73.7045 75.446 73.5829 75.1329 73.5829C74.8198 73.5829 74.5569 73.7045 74.3398 73.9434C74.1269 74.1823 74.0184 74.5302 74.0184 74.9829Z" fill="#001D85"/>
<path d="M82.5548 77.2633H81.3526V74.9328C81.3526 74.4383 81.3276 74.1197 81.2775 73.9772C81.2274 73.8305 81.1439 73.7215 81.027 73.6377C80.9101 73.5581 80.7724 73.5161 80.6096 73.5161C80.4009 73.5161 80.213 73.5748 80.0502 73.688C79.8832 73.8012 79.7705 73.9562 79.7079 74.1449C79.6453 74.3335 79.6161 74.6856 79.6161 75.1927V77.2591H78.4139V72.6946H79.5326V73.3653C79.9292 72.8497 80.4301 72.5898 81.0312 72.5898C81.2983 72.5898 81.5404 72.6359 81.7575 72.7324C81.9787 72.8288 82.1415 72.9503 82.2542 73.1012C82.3669 73.2521 82.4463 73.4197 82.488 73.6084C82.5339 73.797 82.5548 74.0694 82.5548 74.4215V77.2591V77.2633Z" fill="#001D85"/>
</g>
<defs>
<clipPath id="clip0_5983_4793">
<rect width="169" height="79" fill="white"/>
</clipPath>
</defs>
</svg>
