<svg width="764" height="353" viewBox="0 0 764 353" fill="none" xmlns="http://www.w3.org/2000/svg">
<rect opacity="0.8" width="764" height="353" rx="10" fill="#FBFBFC"/>
<path d="M103.22 21H102.772V17.9868L102.194 18.6024L101.924 18.327L102.826 17.3982H103.22V21ZM105.833 21.0648C104.844 21.0648 104.456 20.0766 104.456 19.2018C104.456 18.3216 104.844 17.3442 105.833 17.3442C106.815 17.3442 107.21 18.3216 107.21 19.2018C107.21 20.0766 106.815 21.0648 105.833 21.0648ZM105.833 20.6652C106.518 20.6652 106.751 19.92 106.751 19.2018C106.751 18.4836 106.518 17.7438 105.833 17.7438C105.147 17.7438 104.915 18.4836 104.915 19.2018C104.915 19.92 105.147 20.6652 105.833 20.6652ZM109.064 19.1208C108.551 19.1208 108.194 18.7374 108.194 18.2406C108.194 17.7276 108.551 17.3442 109.064 17.3442C109.582 17.3442 109.933 17.7276 109.933 18.2406C109.933 18.7374 109.582 19.1208 109.064 19.1208ZM109.015 21H108.718L111.018 17.3982H111.321L109.015 21ZM110.943 21.0648C110.43 21.0648 110.073 20.6814 110.073 20.1792C110.073 19.677 110.43 19.2882 110.943 19.2882C111.456 19.2882 111.807 19.677 111.807 20.1792C111.807 20.6814 111.456 21.0648 110.943 21.0648ZM109.064 18.8454C109.388 18.8454 109.609 18.5808 109.609 18.2406C109.609 17.8842 109.388 17.6196 109.064 17.6196C108.745 17.6196 108.518 17.8842 108.518 18.2406C108.518 18.5808 108.745 18.8454 109.064 18.8454ZM110.943 20.7894C111.267 20.7894 111.488 20.5248 111.488 20.1792C111.488 19.8282 111.267 19.5636 110.943 19.5636C110.613 19.5636 110.392 19.8282 110.392 20.1792C110.392 20.5248 110.613 20.7894 110.943 20.7894Z" fill="#342C61"/>
<path d="M94.1774 332.348H91.0148V331.648C92.7348 330.376 93.2387 329.941 93.2387 329.424C93.2387 329.059 92.9048 328.876 92.5584 328.876C92.0795 328.876 91.7142 329.065 91.4307 329.361L90.9204 328.769C91.3298 328.297 91.9536 328.083 92.5394 328.083C93.4341 328.083 94.146 328.587 94.146 329.424C94.146 330.143 93.5537 330.766 92.4638 331.56H94.1774V332.348ZM97.0541 332.423C96.3233 332.423 95.7941 332.184 95.435 331.793L95.9327 331.17C96.2162 331.466 96.6068 331.629 97.0478 331.629C97.5455 331.629 97.829 331.346 97.829 331.006C97.829 330.634 97.5518 330.382 97.073 330.382C96.7265 330.382 96.443 330.483 96.191 330.722L95.5673 330.558V328.146H98.4527V328.933H96.4619V329.96C96.6635 329.758 97.0037 329.607 97.388 329.607C98.0999 329.607 98.7362 330.117 98.7362 330.968C98.7362 331.863 98.0684 332.423 97.0541 332.423ZM101.542 332.423C100.339 332.423 99.8034 331.333 99.8034 330.25C99.8034 329.166 100.339 328.083 101.542 328.083C102.739 328.083 103.281 329.166 103.281 330.25C103.281 331.333 102.739 332.423 101.542 332.423ZM101.542 331.629C102.141 331.629 102.367 331.025 102.367 330.25C102.367 329.475 102.141 328.876 101.542 328.876C100.937 328.876 100.711 329.475 100.711 330.25C100.711 331.025 100.937 331.629 101.542 331.629Z" fill="#342C61"/>
<path d="M170.226 21H167.753V20.6382C169.049 19.623 169.756 19.0236 169.756 18.4026C169.756 17.9382 169.373 17.7438 169 17.7438C168.568 17.7438 168.233 17.9274 168.023 18.1974L167.747 17.9112C168.023 17.544 168.493 17.3442 169 17.3442C169.6 17.3442 170.21 17.6844 170.21 18.4026C170.21 19.137 169.465 19.8066 168.46 20.6004H170.226V21ZM172.828 21.0648C171.84 21.0648 171.451 20.0766 171.451 19.2018C171.451 18.3216 171.84 17.3442 172.828 17.3442C173.811 17.3442 174.205 18.3216 174.205 19.2018C174.205 20.0766 173.811 21.0648 172.828 21.0648ZM172.828 20.6652C173.514 20.6652 173.746 19.92 173.746 19.2018C173.746 18.4836 173.514 17.7438 172.828 17.7438C172.142 17.7438 171.91 18.4836 171.91 19.2018C171.91 19.92 172.142 20.6652 172.828 20.6652ZM176.059 19.1208C175.546 19.1208 175.19 18.7374 175.19 18.2406C175.19 17.7276 175.546 17.3442 176.059 17.3442C176.577 17.3442 176.928 17.7276 176.928 18.2406C176.928 18.7374 176.577 19.1208 176.059 19.1208ZM176.01 21H175.713L178.014 17.3982H178.316L176.01 21ZM177.938 21.0648C177.425 21.0648 177.069 20.6814 177.069 20.1792C177.069 19.677 177.425 19.2882 177.938 19.2882C178.451 19.2882 178.802 19.677 178.802 20.1792C178.802 20.6814 178.451 21.0648 177.938 21.0648ZM176.059 18.8454C176.383 18.8454 176.604 18.5808 176.604 18.2406C176.604 17.8842 176.383 17.6196 176.059 17.6196C175.74 17.6196 175.514 17.8842 175.514 18.2406C175.514 18.5808 175.74 18.8454 176.059 18.8454ZM177.938 20.7894C178.262 20.7894 178.484 20.5248 178.484 20.1792C178.484 19.8282 178.262 19.5636 177.938 19.5636C177.609 19.5636 177.387 19.8282 177.387 20.1792C177.387 20.5248 177.609 20.7894 177.938 20.7894Z" fill="#342C61"/>
<path d="M160.936 332.423C160.205 332.423 159.676 332.184 159.317 331.793L159.814 331.17C160.098 331.466 160.488 331.629 160.929 331.629C161.427 331.629 161.711 331.346 161.711 331.006C161.711 330.634 161.433 330.382 160.955 330.382C160.608 330.382 160.325 330.483 160.073 330.722L159.449 330.558V328.146H162.334V328.933H160.343V329.96C160.545 329.758 160.885 329.607 161.27 329.607C161.981 329.607 162.618 330.117 162.618 330.968C162.618 331.863 161.95 332.423 160.936 332.423ZM165.424 332.423C164.22 332.423 163.685 331.333 163.685 330.25C163.685 329.166 164.22 328.083 165.424 328.083C166.621 328.083 167.163 329.166 167.163 330.25C167.163 331.333 166.621 332.423 165.424 332.423ZM165.424 331.629C166.022 331.629 166.249 331.025 166.249 330.25C166.249 329.475 166.022 328.876 165.424 328.876C164.819 328.876 164.592 329.475 164.592 330.25C164.592 331.025 164.819 331.629 165.424 331.629ZM169.96 332.423C168.757 332.423 168.222 331.333 168.222 330.25C168.222 329.166 168.757 328.083 169.96 328.083C171.157 328.083 171.699 329.166 171.699 330.25C171.699 331.333 171.157 332.423 169.96 332.423ZM169.96 331.629C170.559 331.629 170.786 331.025 170.786 330.25C170.786 329.475 170.559 328.876 169.96 328.876C169.356 328.876 169.129 329.475 169.129 330.25C169.129 331.025 169.356 331.629 169.96 331.629Z" fill="#342C61"/>
<path d="M236.574 21.0648C235.964 21.0648 235.516 20.7948 235.294 20.4708L235.559 20.19C235.77 20.4708 236.137 20.6652 236.563 20.6652C237.087 20.6652 237.406 20.4006 237.406 19.9902C237.406 19.542 237.039 19.353 236.509 19.353C236.358 19.353 236.191 19.353 236.137 19.3584V18.948C236.196 18.9534 236.364 18.9534 236.509 18.9534C236.963 18.9534 237.346 18.7752 237.346 18.3594C237.346 17.9598 236.979 17.7438 236.542 17.7438C236.148 17.7438 235.856 17.895 235.591 18.1812L235.343 17.9004C235.602 17.5818 236.018 17.3442 236.58 17.3442C237.271 17.3442 237.795 17.6952 237.795 18.3C237.795 18.8238 237.357 19.083 237.022 19.137C237.346 19.1694 237.854 19.4448 237.854 20.028C237.854 20.6274 237.368 21.0648 236.574 21.0648ZM240.336 21.0648C239.348 21.0648 238.959 20.0766 238.959 19.2018C238.959 18.3216 239.348 17.3442 240.336 17.3442C241.319 17.3442 241.713 18.3216 241.713 19.2018C241.713 20.0766 241.319 21.0648 240.336 21.0648ZM240.336 20.6652C241.022 20.6652 241.254 19.92 241.254 19.2018C241.254 18.4836 241.022 17.7438 240.336 17.7438C239.65 17.7438 239.418 18.4836 239.418 19.2018C239.418 19.92 239.65 20.6652 240.336 20.6652ZM243.567 19.1208C243.054 19.1208 242.697 18.7374 242.697 18.2406C242.697 17.7276 243.054 17.3442 243.567 17.3442C244.085 17.3442 244.436 17.7276 244.436 18.2406C244.436 18.7374 244.085 19.1208 243.567 19.1208ZM243.518 21H243.221L245.522 17.3982H245.824L243.518 21ZM245.446 21.0648C244.933 21.0648 244.577 20.6814 244.577 20.1792C244.577 19.677 244.933 19.2882 245.446 19.2882C245.959 19.2882 246.31 19.677 246.31 20.1792C246.31 20.6814 245.959 21.0648 245.446 21.0648ZM243.567 18.8454C243.891 18.8454 244.112 18.5808 244.112 18.2406C244.112 17.8842 243.891 17.6196 243.567 17.6196C243.248 17.6196 243.021 17.8842 243.021 18.2406C243.021 18.5808 243.248 18.8454 243.567 18.8454ZM245.446 20.7894C245.77 20.7894 245.991 20.5248 245.991 20.1792C245.991 19.8282 245.77 19.5636 245.446 19.5636C245.117 19.5636 244.895 19.8282 244.895 20.1792C244.895 20.5248 245.117 20.7894 245.446 20.7894Z" fill="#342C61"/>
<path d="M221.085 332.423C220.203 332.423 219.396 332.045 219.396 331.258C219.396 330.747 219.793 330.357 220.297 330.18C219.831 330.017 219.466 329.714 219.466 329.191C219.466 328.404 220.303 328.083 221.085 328.083C221.86 328.083 222.704 328.404 222.704 329.191C222.704 329.714 222.332 330.017 221.866 330.18C222.37 330.357 222.773 330.747 222.773 331.258C222.773 332.039 221.967 332.423 221.085 332.423ZM221.085 329.828C221.343 329.79 221.79 329.645 221.79 329.33C221.79 329.028 221.494 328.851 221.085 328.851C220.669 328.851 220.373 329.028 220.373 329.33C220.373 329.645 220.826 329.79 221.085 329.828ZM221.085 331.655C221.513 331.655 221.866 331.453 221.866 331.144C221.866 330.792 221.343 330.621 221.085 330.584C220.82 330.621 220.303 330.792 220.303 331.144C220.303 331.453 220.644 331.655 221.085 331.655ZM225.554 332.423C224.823 332.423 224.294 332.184 223.935 331.793L224.433 331.17C224.716 331.466 225.107 331.629 225.548 331.629C226.046 331.629 226.329 331.346 226.329 331.006C226.329 330.634 226.052 330.382 225.573 330.382C225.227 330.382 224.943 330.483 224.691 330.722L224.067 330.558V328.146H226.953V328.933H224.962V329.96C225.164 329.758 225.504 329.607 225.888 329.607C226.6 329.607 227.236 330.117 227.236 330.968C227.236 331.863 226.568 332.423 225.554 332.423ZM230.042 332.423C228.839 332.423 228.303 331.333 228.303 330.25C228.303 329.166 228.839 328.083 230.042 328.083C231.239 328.083 231.781 329.166 231.781 330.25C231.781 331.333 231.239 332.423 230.042 332.423ZM230.042 331.629C230.641 331.629 230.868 331.025 230.868 330.25C230.868 329.475 230.641 328.876 230.042 328.876C229.437 328.876 229.211 329.475 229.211 330.25C229.211 331.025 229.437 331.629 230.042 331.629Z" fill="#342C61"/>
<path d="M304.971 21H304.523V20.0874H302.811V19.7148L304.355 17.3982H304.971V19.6932H305.479V20.0874H304.971V21ZM304.523 19.6932V17.814L303.259 19.6932H304.523ZM307.842 21.0648C306.854 21.0648 306.465 20.0766 306.465 19.2018C306.465 18.3216 306.854 17.3442 307.842 17.3442C308.825 17.3442 309.219 18.3216 309.219 19.2018C309.219 20.0766 308.825 21.0648 307.842 21.0648ZM307.842 20.6652C308.528 20.6652 308.76 19.92 308.76 19.2018C308.76 18.4836 308.528 17.7438 307.842 17.7438C307.156 17.7438 306.924 18.4836 306.924 19.2018C306.924 19.92 307.156 20.6652 307.842 20.6652ZM311.073 19.1208C310.56 19.1208 310.203 18.7374 310.203 18.2406C310.203 17.7276 310.56 17.3442 311.073 17.3442C311.591 17.3442 311.942 17.7276 311.942 18.2406C311.942 18.7374 311.591 19.1208 311.073 19.1208ZM311.024 21H310.727L313.027 17.3982H313.33L311.024 21ZM312.952 21.0648C312.439 21.0648 312.082 20.6814 312.082 20.1792C312.082 19.677 312.439 19.2882 312.952 19.2882C313.465 19.2882 313.816 19.677 313.816 20.1792C313.816 20.6814 313.465 21.0648 312.952 21.0648ZM311.073 18.8454C311.397 18.8454 311.618 18.5808 311.618 18.2406C311.618 17.8842 311.397 17.6196 311.073 17.6196C310.754 17.6196 310.527 17.8842 310.527 18.2406C310.527 18.5808 310.754 18.8454 311.073 18.8454ZM312.952 20.7894C313.276 20.7894 313.497 20.5248 313.497 20.1792C313.497 19.8282 313.276 19.5636 312.952 19.5636C312.622 19.5636 312.401 19.8282 312.401 20.1792C312.401 20.5248 312.622 20.7894 312.952 20.7894Z" fill="#342C61"/>
<path d="M288.857 332.348H287.962V329.298L287.263 330.01L286.753 329.475L288.076 328.146H288.857V332.348ZM291.857 332.423C290.653 332.423 290.118 331.333 290.118 330.25C290.118 329.166 290.653 328.083 291.857 328.083C293.054 328.083 293.596 329.166 293.596 330.25C293.596 331.333 293.054 332.423 291.857 332.423ZM291.857 331.629C292.455 331.629 292.682 331.025 292.682 330.25C292.682 329.475 292.455 328.876 291.857 328.876C291.252 328.876 291.025 329.475 291.025 330.25C291.025 331.025 291.252 331.629 291.857 331.629ZM296.393 332.423C295.19 332.423 294.655 331.333 294.655 330.25C294.655 329.166 295.19 328.083 296.393 328.083C297.59 328.083 298.132 329.166 298.132 330.25C298.132 331.333 297.59 332.423 296.393 332.423ZM296.393 331.629C296.992 331.629 297.219 331.025 297.219 330.25C297.219 329.475 296.992 328.876 296.393 328.876C295.789 328.876 295.562 329.475 295.562 330.25C295.562 331.025 295.789 331.629 296.393 331.629ZM300.93 332.423C299.727 332.423 299.191 331.333 299.191 330.25C299.191 329.166 299.727 328.083 300.93 328.083C302.127 328.083 302.669 329.166 302.669 330.25C302.669 331.333 302.127 332.423 300.93 332.423ZM300.93 331.629C301.529 331.629 301.756 331.025 301.756 330.25C301.756 329.475 301.529 328.876 300.93 328.876C300.325 328.876 300.099 329.475 300.099 330.25C300.099 331.025 300.325 331.629 300.93 331.629Z" fill="#342C61"/>
<path d="M371.596 21.0648C370.991 21.0648 370.597 20.8434 370.327 20.487L370.602 20.1846C370.84 20.4924 371.158 20.6652 371.596 20.6652C372.087 20.6652 372.427 20.3304 372.427 19.893C372.427 19.4178 372.087 19.1154 371.601 19.1154C371.288 19.1154 371.012 19.218 370.769 19.4502L370.44 19.3368V17.3982H372.643V17.7978H370.888V19.0506C371.066 18.8778 371.369 18.7266 371.731 18.7266C372.335 18.7266 372.881 19.1316 372.881 19.8768C372.881 20.6058 372.319 21.0648 371.596 21.0648ZM375.348 21.0648C374.36 21.0648 373.971 20.0766 373.971 19.2018C373.971 18.3216 374.36 17.3442 375.348 17.3442C376.331 17.3442 376.725 18.3216 376.725 19.2018C376.725 20.0766 376.331 21.0648 375.348 21.0648ZM375.348 20.6652C376.034 20.6652 376.266 19.92 376.266 19.2018C376.266 18.4836 376.034 17.7438 375.348 17.7438C374.662 17.7438 374.43 18.4836 374.43 19.2018C374.43 19.92 374.662 20.6652 375.348 20.6652ZM378.579 19.1208C378.066 19.1208 377.709 18.7374 377.709 18.2406C377.709 17.7276 378.066 17.3442 378.579 17.3442C379.097 17.3442 379.448 17.7276 379.448 18.2406C379.448 18.7374 379.097 19.1208 378.579 19.1208ZM378.53 21H378.233L380.533 17.3982H380.836L378.53 21ZM380.458 21.0648C379.945 21.0648 379.588 20.6814 379.588 20.1792C379.588 19.677 379.945 19.2882 380.458 19.2882C380.971 19.2882 381.322 19.677 381.322 20.1792C381.322 20.6814 380.971 21.0648 380.458 21.0648ZM378.579 18.8454C378.903 18.8454 379.124 18.5808 379.124 18.2406C379.124 17.8842 378.903 17.6196 378.579 17.6196C378.26 17.6196 378.033 17.8842 378.033 18.2406C378.033 18.5808 378.26 18.8454 378.579 18.8454ZM380.458 20.7894C380.782 20.7894 381.003 20.5248 381.003 20.1792C381.003 19.8282 380.782 19.5636 380.458 19.5636C380.128 19.5636 379.907 19.8282 379.907 20.1792C379.907 20.5248 380.128 20.7894 380.458 20.7894Z" fill="#342C61"/>
<path d="M357.646 332.348H354.484V331.648C356.204 330.376 356.707 329.941 356.707 329.424C356.707 329.059 356.374 328.876 356.027 328.876C355.548 328.876 355.183 329.065 354.899 329.361L354.389 328.769C354.799 328.297 355.422 328.083 356.008 328.083C356.903 328.083 357.615 328.587 357.615 329.424C357.615 330.143 357.022 330.766 355.933 331.56H357.646V332.348ZM360.523 332.423C359.792 332.423 359.263 332.184 358.904 331.793L359.401 331.17C359.685 331.466 360.076 331.629 360.517 331.629C361.014 331.629 361.298 331.346 361.298 331.006C361.298 330.634 361.021 330.382 360.542 330.382C360.195 330.382 359.912 330.483 359.66 330.722L359.036 330.558V328.146H361.921V328.933H359.931V329.96C360.132 329.758 360.472 329.607 360.857 329.607C361.569 329.607 362.205 330.117 362.205 330.968C362.205 331.863 361.537 332.423 360.523 332.423ZM365.011 332.423C363.808 332.423 363.272 331.333 363.272 330.25C363.272 329.166 363.808 328.083 365.011 328.083C366.208 328.083 366.75 329.166 366.75 330.25C366.75 331.333 366.208 332.423 365.011 332.423ZM365.011 331.629C365.609 331.629 365.836 331.025 365.836 330.25C365.836 329.475 365.609 328.876 365.011 328.876C364.406 328.876 364.179 329.475 364.179 330.25C364.179 331.025 364.406 331.629 365.011 331.629ZM369.548 332.423C368.344 332.423 367.809 331.333 367.809 330.25C367.809 329.166 368.344 328.083 369.548 328.083C370.745 328.083 371.286 329.166 371.286 330.25C371.286 331.333 370.745 332.423 369.548 332.423ZM369.548 331.629C370.146 331.629 370.373 331.025 370.373 330.25C370.373 329.475 370.146 328.876 369.548 328.876C368.943 328.876 368.716 329.475 368.716 330.25C368.716 331.025 368.943 331.629 369.548 331.629Z" fill="#342C61"/>
<path d="M439.141 21.0648C438.131 21.0648 437.748 20.1846 437.748 19.2018C437.748 18.2298 438.202 17.3442 439.217 17.3442C439.676 17.3442 439.989 17.517 440.21 17.7762L439.984 18.111C439.8 17.895 439.589 17.7438 439.217 17.7438C438.515 17.7438 438.202 18.4512 438.202 19.1586C438.202 19.2072 438.202 19.2504 438.202 19.299C438.358 19.0506 438.758 18.7374 439.222 18.7374C439.87 18.7374 440.399 19.1208 440.399 19.8876C440.399 20.5086 439.924 21.0648 439.141 21.0648ZM439.12 20.6652C439.676 20.6652 439.946 20.244 439.946 19.9038C439.946 19.3746 439.579 19.1262 439.12 19.1262C438.758 19.1262 438.412 19.3476 438.218 19.6608C438.256 20.109 438.493 20.6652 439.12 20.6652ZM442.856 21.0648C441.867 21.0648 441.479 20.0766 441.479 19.2018C441.479 18.3216 441.867 17.3442 442.856 17.3442C443.838 17.3442 444.233 18.3216 444.233 19.2018C444.233 20.0766 443.838 21.0648 442.856 21.0648ZM442.856 20.6652C443.541 20.6652 443.774 19.92 443.774 19.2018C443.774 18.4836 443.541 17.7438 442.856 17.7438C442.17 17.7438 441.938 18.4836 441.938 19.2018C441.938 19.92 442.17 20.6652 442.856 20.6652ZM446.086 19.1208C445.573 19.1208 445.217 18.7374 445.217 18.2406C445.217 17.7276 445.573 17.3442 446.086 17.3442C446.605 17.3442 446.956 17.7276 446.956 18.2406C446.956 18.7374 446.605 19.1208 446.086 19.1208ZM446.038 21H445.741L448.041 17.3982H448.344L446.038 21ZM447.966 21.0648C447.453 21.0648 447.096 20.6814 447.096 20.1792C447.096 19.677 447.453 19.2882 447.966 19.2882C448.479 19.2882 448.83 19.677 448.83 20.1792C448.83 20.6814 448.479 21.0648 447.966 21.0648ZM446.086 18.8454C446.41 18.8454 446.632 18.5808 446.632 18.2406C446.632 17.8842 446.41 17.6196 446.086 17.6196C445.768 17.6196 445.541 17.8842 445.541 18.2406C445.541 18.5808 445.768 18.8454 446.086 18.8454ZM447.966 20.7894C448.29 20.7894 448.511 20.5248 448.511 20.1792C448.511 19.8282 448.29 19.5636 447.966 19.5636C447.636 19.5636 447.415 19.8282 447.415 20.1792C447.415 20.5248 447.636 20.7894 447.966 20.7894Z" fill="#342C61"/>
<path d="M423.623 332.423C422.892 332.423 422.363 332.184 422.004 331.793L422.502 331.17C422.785 331.466 423.176 331.629 423.617 331.629C424.115 331.629 424.398 331.346 424.398 331.006C424.398 330.634 424.121 330.382 423.642 330.382C423.296 330.382 423.012 330.483 422.76 330.722L422.136 330.558V328.146H425.022V328.933H423.031V329.96C423.233 329.758 423.573 329.607 423.957 329.607C424.669 329.607 425.305 330.117 425.305 330.968C425.305 331.863 424.637 332.423 423.623 332.423ZM428.111 332.423C426.908 332.423 426.372 331.333 426.372 330.25C426.372 329.166 426.908 328.083 428.111 328.083C429.308 328.083 429.85 329.166 429.85 330.25C429.85 331.333 429.308 332.423 428.111 332.423ZM428.111 331.629C428.71 331.629 428.937 331.025 428.937 330.25C428.937 329.475 428.71 328.876 428.111 328.876C427.506 328.876 427.28 329.475 427.28 330.25C427.28 331.025 427.506 331.629 428.111 331.629ZM432.648 332.423C431.445 332.423 430.909 331.333 430.909 330.25C430.909 329.166 431.445 328.083 432.648 328.083C433.845 328.083 434.387 329.166 434.387 330.25C434.387 331.333 433.845 332.423 432.648 332.423ZM432.648 331.629C433.246 331.629 433.473 331.025 433.473 330.25C433.473 329.475 433.246 328.876 432.648 328.876C432.043 328.876 431.816 329.475 431.816 330.25C431.816 331.025 432.043 331.629 432.648 331.629ZM437.185 332.423C435.981 332.423 435.446 331.333 435.446 330.25C435.446 329.166 435.981 328.083 437.185 328.083C438.382 328.083 438.923 329.166 438.923 330.25C438.923 331.333 438.382 332.423 437.185 332.423ZM437.185 331.629C437.783 331.629 438.01 331.025 438.01 330.25C438.01 329.475 437.783 328.876 437.185 328.876C436.58 328.876 436.353 329.475 436.353 330.25C436.353 331.025 436.58 331.629 437.185 331.629Z" fill="#342C61"/>
<path d="M506.538 21H506.041L507.494 17.7978H505.555V17.3982H508.012V17.706L506.538 21ZM510.359 21.0648C509.371 21.0648 508.982 20.0766 508.982 19.2018C508.982 18.3216 509.371 17.3442 510.359 17.3442C511.342 17.3442 511.736 18.3216 511.736 19.2018C511.736 20.0766 511.342 21.0648 510.359 21.0648ZM510.359 20.6652C511.045 20.6652 511.277 19.92 511.277 19.2018C511.277 18.4836 511.045 17.7438 510.359 17.7438C509.674 17.7438 509.441 18.4836 509.441 19.2018C509.441 19.92 509.674 20.6652 510.359 20.6652ZM513.59 19.1208C513.077 19.1208 512.721 18.7374 512.721 18.2406C512.721 17.7276 513.077 17.3442 513.59 17.3442C514.109 17.3442 514.46 17.7276 514.46 18.2406C514.46 18.7374 514.109 19.1208 513.59 19.1208ZM513.542 21H513.245L515.545 17.3982H515.847L513.542 21ZM515.469 21.0648C514.956 21.0648 514.6 20.6814 514.6 20.1792C514.6 19.677 514.956 19.2882 515.469 19.2882C515.982 19.2882 516.333 19.677 516.333 20.1792C516.333 20.6814 515.982 21.0648 515.469 21.0648ZM513.59 18.8454C513.914 18.8454 514.136 18.5808 514.136 18.2406C514.136 17.8842 513.914 17.6196 513.59 17.6196C513.272 17.6196 513.045 17.8842 513.045 18.2406C513.045 18.5808 513.272 18.8454 513.59 18.8454ZM515.469 20.7894C515.793 20.7894 516.015 20.5248 516.015 20.1792C516.015 19.8282 515.793 19.5636 515.469 19.5636C515.14 19.5636 514.919 19.8282 514.919 20.1792C514.919 20.5248 515.14 20.7894 515.469 20.7894Z" fill="#342C61"/>
<path d="M491.108 332.423C490.226 332.423 489.42 332.045 489.42 331.258C489.42 330.747 489.817 330.357 490.321 330.18C489.854 330.017 489.489 329.714 489.489 329.191C489.489 328.404 490.327 328.083 491.108 328.083C491.883 328.083 492.727 328.404 492.727 329.191C492.727 329.714 492.356 330.017 491.889 330.18C492.393 330.357 492.797 330.747 492.797 331.258C492.797 332.039 491.99 332.423 491.108 332.423ZM491.108 329.828C491.366 329.79 491.814 329.645 491.814 329.33C491.814 329.028 491.518 328.851 491.108 328.851C490.692 328.851 490.396 329.028 490.396 329.33C490.396 329.645 490.85 329.79 491.108 329.828ZM491.108 331.655C491.537 331.655 491.889 331.453 491.889 331.144C491.889 330.792 491.366 330.621 491.108 330.584C490.844 330.621 490.327 330.792 490.327 331.144C490.327 331.453 490.667 331.655 491.108 331.655ZM495.578 332.423C494.847 332.423 494.318 332.184 493.959 331.793L494.456 331.17C494.74 331.466 495.13 331.629 495.571 331.629C496.069 331.629 496.353 331.346 496.353 331.006C496.353 330.634 496.075 330.382 495.597 330.382C495.25 330.382 494.967 330.483 494.715 330.722L494.091 330.558V328.146H496.976V328.933H494.985V329.96C495.187 329.758 495.527 329.607 495.912 329.607C496.623 329.607 497.26 330.117 497.26 330.968C497.26 331.863 496.592 332.423 495.578 332.423ZM500.066 332.423C498.862 332.423 498.327 331.333 498.327 330.25C498.327 329.166 498.862 328.083 500.066 328.083C501.263 328.083 501.805 329.166 501.805 330.25C501.805 331.333 501.263 332.423 500.066 332.423ZM500.066 331.629C500.664 331.629 500.891 331.025 500.891 330.25C500.891 329.475 500.664 328.876 500.066 328.876C499.461 328.876 499.234 329.475 499.234 330.25C499.234 331.025 499.461 331.629 500.066 331.629ZM504.602 332.423C503.399 332.423 502.864 331.333 502.864 330.25C502.864 329.166 503.399 328.083 504.602 328.083C505.799 328.083 506.341 329.166 506.341 330.25C506.341 331.333 505.799 332.423 504.602 332.423ZM504.602 331.629C505.201 331.629 505.428 331.025 505.428 330.25C505.428 329.475 505.201 328.876 504.602 328.876C503.998 328.876 503.771 329.475 503.771 330.25C503.771 331.025 503.998 331.629 504.602 331.629Z" fill="#342C61"/>
<path d="M573.447 21.0648C572.734 21.0648 572.156 20.703 572.156 20.0874C572.156 19.6068 572.567 19.2774 573.015 19.1424C572.599 19.0236 572.216 18.7482 572.216 18.2784C572.216 17.6304 572.848 17.3442 573.447 17.3442C574.041 17.3442 574.684 17.6304 574.684 18.2784C574.684 18.7482 574.295 19.0236 573.879 19.1424C574.327 19.2774 574.738 19.6068 574.738 20.0874C574.738 20.6976 574.154 21.0648 573.447 21.0648ZM573.447 18.9588C573.668 18.921 574.23 18.7752 574.23 18.3378C574.23 17.9652 573.879 17.7438 573.447 17.7438C573.01 17.7438 572.669 17.9652 572.669 18.3378C572.669 18.7752 573.231 18.921 573.447 18.9588ZM573.447 20.6652C573.89 20.6652 574.284 20.4276 574.284 20.0388C574.284 19.569 573.668 19.3692 573.447 19.3422C573.226 19.3692 572.61 19.569 572.61 20.0388C572.61 20.4276 572.999 20.6652 573.447 20.6652ZM577.211 21.0648C576.223 21.0648 575.834 20.0766 575.834 19.2018C575.834 18.3216 576.223 17.3442 577.211 17.3442C578.194 17.3442 578.588 18.3216 578.588 19.2018C578.588 20.0766 578.194 21.0648 577.211 21.0648ZM577.211 20.6652C577.897 20.6652 578.129 19.92 578.129 19.2018C578.129 18.4836 577.897 17.7438 577.211 17.7438C576.525 17.7438 576.293 18.4836 576.293 19.2018C576.293 19.92 576.525 20.6652 577.211 20.6652ZM580.442 19.1208C579.929 19.1208 579.572 18.7374 579.572 18.2406C579.572 17.7276 579.929 17.3442 580.442 17.3442C580.96 17.3442 581.311 17.7276 581.311 18.2406C581.311 18.7374 580.96 19.1208 580.442 19.1208ZM580.393 21H580.096L582.397 17.3982H582.699L580.393 21ZM582.321 21.0648C581.808 21.0648 581.452 20.6814 581.452 20.1792C581.452 19.677 581.808 19.2882 582.321 19.2882C582.834 19.2882 583.185 19.677 583.185 20.1792C583.185 20.6814 582.834 21.0648 582.321 21.0648ZM580.442 18.8454C580.766 18.8454 580.987 18.5808 580.987 18.2406C580.987 17.8842 580.766 17.6196 580.442 17.6196C580.123 17.6196 579.896 17.8842 579.896 18.2406C579.896 18.5808 580.123 18.8454 580.442 18.8454ZM582.321 20.7894C582.645 20.7894 582.866 20.5248 582.866 20.1792C582.866 19.8282 582.645 19.5636 582.321 19.5636C581.992 19.5636 581.77 19.8282 581.77 20.1792C581.77 20.5248 581.992 20.7894 582.321 20.7894Z" fill="#342C61"/>
<path d="M558.224 332.348H557.33V329.298L556.63 330.01L556.12 329.475L557.443 328.146H558.224V332.348ZM561.224 332.423C560.021 332.423 559.485 331.333 559.485 330.25C559.485 329.166 560.021 328.083 561.224 328.083C562.421 328.083 562.963 329.166 562.963 330.25C562.963 331.333 562.421 332.423 561.224 332.423ZM561.224 331.629C561.822 331.629 562.049 331.025 562.049 330.25C562.049 329.475 561.822 328.876 561.224 328.876C560.619 328.876 560.392 329.475 560.392 330.25C560.392 331.025 560.619 331.629 561.224 331.629ZM565.761 332.423C564.557 332.423 564.022 331.333 564.022 330.25C564.022 329.166 564.557 328.083 565.761 328.083C566.958 328.083 567.499 329.166 567.499 330.25C567.499 331.333 566.958 332.423 565.761 332.423ZM565.761 331.629C566.359 331.629 566.586 331.025 566.586 330.25C566.586 329.475 566.359 328.876 565.761 328.876C565.156 328.876 564.929 329.475 564.929 330.25C564.929 331.025 565.156 331.629 565.761 331.629ZM570.297 332.423C569.094 332.423 568.559 331.333 568.559 330.25C568.559 329.166 569.094 328.083 570.297 328.083C571.494 328.083 572.036 329.166 572.036 330.25C572.036 331.333 571.494 332.423 570.297 332.423ZM570.297 331.629C570.896 331.629 571.123 331.025 571.123 330.25C571.123 329.475 570.896 328.876 570.297 328.876C569.693 328.876 569.466 329.475 569.466 330.25C569.466 331.025 569.693 331.629 570.297 331.629ZM574.834 332.423C573.631 332.423 573.095 331.333 573.095 330.25C573.095 329.166 573.631 328.083 574.834 328.083C576.031 328.083 576.573 329.166 576.573 330.25C576.573 331.333 576.031 332.423 574.834 332.423ZM574.834 331.629C575.433 331.629 575.659 331.025 575.659 330.25C575.659 329.475 575.433 328.876 574.834 328.876C574.229 328.876 574.003 329.475 574.003 330.25C574.003 331.025 574.229 331.629 574.834 331.629Z" fill="#342C61"/>
<path d="M640.787 21.0594C640.328 21.0594 640.014 20.8812 639.788 20.6274L640.014 20.2926C640.198 20.5086 640.414 20.6598 640.787 20.6598C641.516 20.6598 641.802 19.9308 641.802 19.245C641.802 19.2018 641.802 19.1532 641.796 19.1046C641.64 19.353 641.24 19.6662 640.781 19.6662C640.133 19.6662 639.599 19.2828 639.599 18.516C639.599 17.895 640.074 17.3388 640.862 17.3388C641.867 17.3388 642.255 18.219 642.255 19.2018C642.255 20.1738 641.796 21.0594 640.787 21.0594ZM640.884 19.2774C641.24 19.2774 641.591 19.056 641.786 18.7374C641.742 18.2946 641.505 17.7384 640.878 17.7384C640.328 17.7384 640.052 18.1542 640.052 18.4998C640.052 19.029 640.419 19.2774 640.884 19.2774ZM644.717 21.0648C643.729 21.0648 643.34 20.0766 643.34 19.2018C643.34 18.3216 643.729 17.3442 644.717 17.3442C645.7 17.3442 646.094 18.3216 646.094 19.2018C646.094 20.0766 645.7 21.0648 644.717 21.0648ZM644.717 20.6652C645.403 20.6652 645.635 19.92 645.635 19.2018C645.635 18.4836 645.403 17.7438 644.717 17.7438C644.031 17.7438 643.799 18.4836 643.799 19.2018C643.799 19.92 644.031 20.6652 644.717 20.6652ZM647.948 19.1208C647.435 19.1208 647.078 18.7374 647.078 18.2406C647.078 17.7276 647.435 17.3442 647.948 17.3442C648.466 17.3442 648.817 17.7276 648.817 18.2406C648.817 18.7374 648.466 19.1208 647.948 19.1208ZM647.899 21H647.602L649.902 17.3982H650.205L647.899 21ZM649.827 21.0648C649.314 21.0648 648.957 20.6814 648.957 20.1792C648.957 19.677 649.314 19.2882 649.827 19.2882C650.34 19.2882 650.691 19.677 650.691 20.1792C650.691 20.6814 650.34 21.0648 649.827 21.0648ZM647.948 18.8454C648.272 18.8454 648.493 18.5808 648.493 18.2406C648.493 17.8842 648.272 17.6196 647.948 17.6196C647.629 17.6196 647.402 17.8842 647.402 18.2406C647.402 18.5808 647.629 18.8454 647.948 18.8454ZM649.827 20.7894C650.151 20.7894 650.372 20.5248 650.372 20.1792C650.372 19.8282 650.151 19.5636 649.827 19.5636C649.497 19.5636 649.276 19.8282 649.276 20.1792C649.276 20.5248 649.497 20.7894 649.827 20.7894Z" fill="#342C61"/>
<path d="M625.731 332.348H624.837V329.298L624.137 330.01L623.627 329.475L624.95 328.146H625.731V332.348ZM630.236 332.348H627.074V331.648C628.794 330.376 629.298 329.941 629.298 329.424C629.298 329.059 628.964 328.876 628.617 328.876C628.139 328.876 627.773 329.065 627.49 329.361L626.979 328.769C627.389 328.297 628.013 328.083 628.598 328.083C629.493 328.083 630.205 328.587 630.205 329.424C630.205 330.143 629.613 330.766 628.523 331.56H630.236V332.348ZM633.113 332.423C632.382 332.423 631.853 332.184 631.494 331.793L631.992 331.17C632.275 331.466 632.666 331.629 633.107 331.629C633.604 331.629 633.888 331.346 633.888 331.006C633.888 330.634 633.611 330.382 633.132 330.382C632.785 330.382 632.502 330.483 632.25 330.722L631.626 330.558V328.146H634.512V328.933H632.521V329.96C632.722 329.758 633.063 329.607 633.447 329.607C634.159 329.607 634.795 330.117 634.795 330.968C634.795 331.863 634.127 332.423 633.113 332.423ZM637.601 332.423C636.398 332.423 635.862 331.333 635.862 330.25C635.862 329.166 636.398 328.083 637.601 328.083C638.798 328.083 639.34 329.166 639.34 330.25C639.34 331.333 638.798 332.423 637.601 332.423ZM637.601 331.629C638.2 331.629 638.427 331.025 638.427 330.25C638.427 329.475 638.2 328.876 637.601 328.876C636.996 328.876 636.77 329.475 636.77 330.25C636.77 331.025 636.996 331.629 637.601 331.629ZM642.138 332.423C640.935 332.423 640.399 331.333 640.399 330.25C640.399 329.166 640.935 328.083 642.138 328.083C643.335 328.083 643.877 329.166 643.877 330.25C643.877 331.333 643.335 332.423 642.138 332.423ZM642.138 331.629C642.736 331.629 642.963 331.025 642.963 330.25C642.963 329.475 642.736 328.876 642.138 328.876C641.533 328.876 641.306 329.475 641.306 330.25C641.306 331.025 641.533 331.629 642.138 331.629Z" fill="#342C61"/>
<path d="M710.133 21H709.684V17.9868L709.107 18.6024L708.837 18.327L709.738 17.3982H710.133V21ZM712.746 21.0648C711.757 21.0648 711.369 20.0766 711.369 19.2018C711.369 18.3216 711.757 17.3442 712.746 17.3442C713.728 17.3442 714.123 18.3216 714.123 19.2018C714.123 20.0766 713.728 21.0648 712.746 21.0648ZM712.746 20.6652C713.431 20.6652 713.664 19.92 713.664 19.2018C713.664 18.4836 713.431 17.7438 712.746 17.7438C712.06 17.7438 711.828 18.4836 711.828 19.2018C711.828 19.92 712.06 20.6652 712.746 20.6652ZM716.592 21.0648C715.604 21.0648 715.215 20.0766 715.215 19.2018C715.215 18.3216 715.604 17.3442 716.592 17.3442C717.575 17.3442 717.969 18.3216 717.969 19.2018C717.969 20.0766 717.575 21.0648 716.592 21.0648ZM716.592 20.6652C717.278 20.6652 717.51 19.92 717.51 19.2018C717.51 18.4836 717.278 17.7438 716.592 17.7438C715.906 17.7438 715.674 18.4836 715.674 19.2018C715.674 19.92 715.906 20.6652 716.592 20.6652ZM719.823 19.1208C719.31 19.1208 718.953 18.7374 718.953 18.2406C718.953 17.7276 719.31 17.3442 719.823 17.3442C720.341 17.3442 720.692 17.7276 720.692 18.2406C720.692 18.7374 720.341 19.1208 719.823 19.1208ZM719.774 21H719.477L721.778 17.3982H722.08L719.774 21ZM721.702 21.0648C721.189 21.0648 720.833 20.6814 720.833 20.1792C720.833 19.677 721.189 19.2882 721.702 19.2882C722.215 19.2882 722.566 19.677 722.566 20.1792C722.566 20.6814 722.215 21.0648 721.702 21.0648ZM719.823 18.8454C720.147 18.8454 720.368 18.5808 720.368 18.2406C720.368 17.8842 720.147 17.6196 719.823 17.6196C719.504 17.6196 719.277 17.8842 719.277 18.2406C719.277 18.5808 719.504 18.8454 719.823 18.8454ZM721.702 20.7894C722.026 20.7894 722.247 20.5248 722.247 20.1792C722.247 19.8282 722.026 19.5636 721.702 19.5636C721.373 19.5636 721.151 19.8282 721.151 20.1792C721.151 20.5248 721.373 20.7894 721.702 20.7894Z" fill="#342C61"/>
<path d="M39.2016 21.0648C38.2134 21.0648 37.8246 20.0766 37.8246 19.2018C37.8246 18.3216 38.2134 17.3442 39.2016 17.3442C40.1844 17.3442 40.5786 18.3216 40.5786 19.2018C40.5786 20.0766 40.1844 21.0648 39.2016 21.0648ZM39.2016 20.6652C39.8874 20.6652 40.1196 19.92 40.1196 19.2018C40.1196 18.4836 39.8874 17.7438 39.2016 17.7438C38.5158 17.7438 38.2836 18.4836 38.2836 19.2018C38.2836 19.92 38.5158 20.6652 39.2016 20.6652ZM42.4325 19.1208C41.9195 19.1208 41.5631 18.7374 41.5631 18.2406C41.5631 17.7276 41.9195 17.3442 42.4325 17.3442C42.9509 17.3442 43.3019 17.7276 43.3019 18.2406C43.3019 18.7374 42.9509 19.1208 42.4325 19.1208ZM42.3839 21H42.0869L44.3873 17.3982H44.6897L42.3839 21ZM44.3117 21.0648C43.7987 21.0648 43.4423 20.6814 43.4423 20.1792C43.4423 19.677 43.7987 19.2882 44.3117 19.2882C44.8247 19.2882 45.1757 19.677 45.1757 20.1792C45.1757 20.6814 44.8247 21.0648 44.3117 21.0648ZM42.4325 18.8454C42.7565 18.8454 42.9779 18.5808 42.9779 18.2406C42.9779 17.8842 42.7565 17.6196 42.4325 17.6196C42.1139 17.6196 41.8871 17.8842 41.8871 18.2406C41.8871 18.5808 42.1139 18.8454 42.4325 18.8454ZM44.3117 20.7894C44.6357 20.7894 44.8571 20.5248 44.8571 20.1792C44.8571 19.8282 44.6357 19.5636 44.3117 19.5636C43.9823 19.5636 43.7609 19.8282 43.7609 20.1792C43.7609 20.5248 43.9823 20.7894 44.3117 20.7894Z" fill="#342C61"/>
<rect x="724.917" y="227.608" width="32.3199" height="690.34" transform="rotate(90 724.917 227.608)" fill="#F7F7FA" stroke="white" stroke-width="0.45"/>
<rect x="186.179" y="227.608" width="32.3199" height="151.602" transform="rotate(90 186.179 227.608)" fill="#81D1DF" stroke="white" stroke-width="0.45"/>
<rect x="348.062" y="227.608" width="32.3199" height="22.4889" transform="rotate(90 348.062 227.608)" fill="#7CADD0" stroke="white" stroke-width="0.45"/>
<rect x="705.91" y="227.608" width="32.3199" height="357.398" transform="rotate(90 705.91 227.608)" fill="#8192CB" stroke="white" stroke-width="0.45"/>
<rect x="724.917" y="227.608" width="32.3199" height="18.5565" transform="rotate(90 724.917 227.608)" fill="#E8A7E9" stroke="white" stroke-width="0.45"/>
<rect x="325.123" y="227.608" width="32.3199" height="138.494" transform="rotate(90 325.123 227.608)" fill="#91B0B6" stroke="white" stroke-width="0.45"/>
<rect x="724.917" y="44.0961" width="32.3199" height="690.34" transform="rotate(90 724.917 44.0961)" fill="#F7F7FA" stroke="white" stroke-width="0.45"/>
<rect x="131.781" y="44.0961" width="32.3199" height="97.2044" transform="rotate(90 131.781 44.0961)" fill="#81D1DF" stroke="white" stroke-width="0.45"/>
<rect x="294.974" y="44.0961" width="32.3199" height="162.744" transform="rotate(90 294.974 44.0961)" fill="#B5DBE2" stroke="white" stroke-width="0.45"/>
<rect x="380.177" y="44.0961" width="32.3199" height="22.4889" transform="rotate(90 380.177 44.0961)" fill="#7CADD0" stroke="white" stroke-width="0.45"/>
<rect x="549.925" y="44.0961" width="32.3199" height="29.6983" transform="rotate(90 549.925 44.0961)" fill="#DAA3BA" stroke="white" stroke-width="0.45"/>
<rect x="519.777" y="44.0961" width="32.3199" height="139.15" transform="rotate(90 519.777 44.0961)" fill="#8192CB" stroke="white" stroke-width="0.45"/>
<rect x="576.796" y="44.0961" width="32.3199" height="26.4213" transform="rotate(90 576.796 44.0961)" fill="#B491A1" stroke="white" stroke-width="0.45"/>
<rect x="618.088" y="44.0961" width="32.3199" height="40.8401" transform="rotate(90 618.088 44.0961)" fill="#B17095" stroke="white" stroke-width="0.45"/>
<rect x="665.276" y="44.0961" width="32.3199" height="18.5565" transform="rotate(90 665.276 44.0961)" fill="#E8A7E9" stroke="white" stroke-width="0.45"/>
<rect x="707.876" y="44.0961" width="32.3199" height="13.9688" transform="rotate(90 707.876 44.0961)" fill="#E18BB9" stroke="white" stroke-width="0.45"/>
<rect x="646.269" y="44.0961" width="32.3199" height="27.7321" transform="rotate(90 646.269 44.0961)" fill="#D08093" stroke="white" stroke-width="0.45"/>
<rect x="693.458" y="44.0961" width="32.3199" height="27.7321" transform="rotate(90 693.458 44.0961)" fill="#A27981" stroke="white" stroke-width="0.45"/>
<rect x="716.397" y="44.0961" width="32.3199" height="8.07017" transform="rotate(90 716.397 44.0961)" fill="#C48EBF" stroke="white" stroke-width="0.45"/>
<rect x="724.917" y="44.0961" width="32.3199" height="8.07017" transform="rotate(90 724.917 44.0961)" fill="#DD86D0" stroke="white" stroke-width="0.45"/>
<rect x="357.238" y="44.0961" width="32.3199" height="61.8128" transform="rotate(90 357.238 44.0961)" fill="#91B0B6" stroke="white" stroke-width="0.45"/>
<rect x="724.917" y="273.487" width="32.3199" height="690.34" transform="rotate(90 724.917 273.487)" fill="#F7F7FA" stroke="white" stroke-width="0.45"/>
<rect x="131.781" y="273.487" width="32.3199" height="97.2044" transform="rotate(90 131.781 273.487)" fill="#81D1DF" stroke="white" stroke-width="0.45"/>
<rect x="294.974" y="273.487" width="32.3199" height="162.744" transform="rotate(90 294.974 273.487)" fill="#B5DBE2" stroke="white" stroke-width="0.45"/>
<rect x="380.177" y="273.487" width="32.3199" height="22.4889" transform="rotate(90 380.177 273.487)" fill="#7CADD0" stroke="white" stroke-width="0.45"/>
<rect x="549.927" y="273.487" width="32.3199" height="109.002" transform="rotate(90 549.927 273.487)" fill="#DAA3BA" stroke="white" stroke-width="0.45"/>
<rect x="440.474" y="273.487" width="32.3199" height="59.8466" transform="rotate(90 440.474 273.487)" fill="#8192CB" stroke="white" stroke-width="0.45"/>
<rect x="576.796" y="273.487" width="32.3199" height="26.4213" transform="rotate(90 576.796 273.487)" fill="#B491A1" stroke="white" stroke-width="0.45"/>
<rect x="618.088" y="273.487" width="32.3199" height="40.8401" transform="rotate(90 618.088 273.487)" fill="#B17095" stroke="white" stroke-width="0.45"/>
<rect x="665.276" y="273.487" width="32.3199" height="18.5565" transform="rotate(90 665.276 273.487)" fill="#E8A7E9" stroke="white" stroke-width="0.45"/>
<rect x="707.876" y="273.487" width="32.3199" height="13.9688" transform="rotate(90 707.876 273.487)" fill="#E18BB9" stroke="white" stroke-width="0.45"/>
<rect x="646.269" y="273.487" width="32.3199" height="27.7321" transform="rotate(90 646.269 273.487)" fill="#D08093" stroke="white" stroke-width="0.45"/>
<rect x="693.459" y="273.487" width="32.3199" height="27.7321" transform="rotate(90 693.459 273.487)" fill="#A27981" stroke="white" stroke-width="0.45"/>
<rect x="716.397" y="273.487" width="32.3199" height="8.07017" transform="rotate(90 716.397 273.487)" fill="#C48EBF" stroke="white" stroke-width="0.45"/>
<rect x="724.917" y="273.487" width="32.3199" height="8.07017" transform="rotate(90 724.917 273.487)" fill="#DD86D0" stroke="white" stroke-width="0.45"/>
<rect x="357.24" y="273.487" width="32.3199" height="61.8128" transform="rotate(90 357.24 273.487)" fill="#91B0B6" stroke="white" stroke-width="0.45"/>
<rect x="724.918" y="135.854" width="32.3199" height="690.34" transform="rotate(90 724.918 135.854)" fill="#F7F7FA" stroke="white" stroke-width="0.45"/>
<rect x="49.2008" y="135.854" width="32.3199" height="14.6242" transform="rotate(90 49.2008 135.854)" fill="#81D1DF" stroke="white" stroke-width="0.45"/>
<rect x="256.963" y="135.854" width="32.3199" height="207.311" transform="rotate(90 256.963 135.854)" fill="#B5DBE2" stroke="white" stroke-width="0.45"/>
<rect x="357.238" y="135.854" width="32.3199" height="37.5631" transform="rotate(90 357.238 135.854)" fill="#7CADD0" stroke="white" stroke-width="0.45"/>
<rect x="523.056" y="135.854" width="32.3199" height="25.1105" transform="rotate(90 523.056 135.854)" fill="#DAA3BA" stroke="white" stroke-width="0.45"/>
<rect x="497.496" y="135.854" width="32.3199" height="139.805" transform="rotate(90 497.496 135.854)" fill="#8192CB" stroke="white" stroke-width="0.45"/>
<rect x="618.087" y="135.854" width="32.3199" height="94.5828" transform="rotate(90 618.087 135.854)" fill="#B491A1" stroke="white" stroke-width="0.45"/>
<rect x="724.918" y="135.854" width="32.3199" height="106.38" transform="rotate(90 724.918 135.854)" fill="#E8A7E9" stroke="white" stroke-width="0.45"/>
<rect x="319.226" y="135.854" width="32.3199" height="61.8128" transform="rotate(90 319.226 135.854)" fill="#91B0B6" stroke="white" stroke-width="0.45"/>
<rect x="724.917" y="89.975" width="32.3199" height="690.34" transform="rotate(90 724.917 89.975)" fill="#F7F7FA" stroke="white" stroke-width="0.45"/>
<rect x="236.646" y="89.975" width="32.3199" height="202.068" transform="rotate(90 236.646 89.975)" fill="#81D1DF" stroke="white" stroke-width="0.45"/>
<rect x="390.662" y="89.975" width="32.3199" height="153.569" transform="rotate(90 390.662 89.975)" fill="#B5DBE2" stroke="white" stroke-width="0.45"/>
<rect x="440.474" y="89.975" width="32.3199" height="22.4889" transform="rotate(90 440.474 89.975)" fill="#7CADD0" stroke="white" stroke-width="0.45"/>
<rect x="549.925" y="89.975" width="32.3199" height="72.2992" transform="rotate(90 549.925 89.975)" fill="#DAA3BA" stroke="white" stroke-width="0.45"/>
<rect x="477.177" y="89.975" width="32.3199" height="36.2523" transform="rotate(90 477.177 89.975)" fill="#8192CB" stroke="white" stroke-width="0.45"/>
<rect x="565" y="89.975" width="32.3199" height="14.6242" transform="rotate(90 565 89.975)" fill="#B491A1" stroke="white" stroke-width="0.45"/>
<rect x="618.087" y="89.975" width="32.3199" height="52.6373" transform="rotate(90 618.087 89.975)" fill="#B17095" stroke="white" stroke-width="0.45"/>
<rect x="665.276" y="89.975" width="32.3199" height="36.9077" transform="rotate(90 665.276 89.975)" fill="#E8A7E9" stroke="white" stroke-width="0.45"/>
<rect x="707.876" y="89.975" width="32.3199" height="35.5969" transform="rotate(90 707.876 89.975)" fill="#E18BB9" stroke="white" stroke-width="0.45"/>
<rect x="627.918" y="89.975" width="32.3199" height="9.38097" transform="rotate(90 627.918 89.975)" fill="#D08093" stroke="white" stroke-width="0.45"/>
<rect x="671.828" y="89.975" width="32.3199" height="6.10397" transform="rotate(90 671.828 89.975)" fill="#A27981" stroke="white" stroke-width="0.45"/>
<rect x="716.397" y="89.975" width="32.3199" height="8.07017" transform="rotate(90 716.397 89.975)" fill="#C48EBF" stroke="white" stroke-width="0.45"/>
<rect x="724.917" y="89.975" width="32.3199" height="8.07017" transform="rotate(90 724.917 89.975)" fill="#DD86D0" stroke="white" stroke-width="0.45"/>
<rect x="417.535" y="89.975" width="32.3199" height="26.4213" transform="rotate(90 417.535 89.975)" fill="#91B0B6" stroke="white" stroke-width="0.45"/>
<rect x="724.918" y="181.729" width="32.3199" height="690.34" transform="rotate(90 724.918 181.729)" fill="#F7F7FA" stroke="white" stroke-width="0.45"/>
<rect x="293.009" y="181.729" width="32.3199" height="258.432" transform="rotate(90 293.009 181.729)" fill="#81D1DF" stroke="white" stroke-width="0.45"/>
<rect x="390.664" y="181.729" width="32.3199" height="97.2044" transform="rotate(90 390.664 181.729)" fill="#B5DBE2" stroke="white" stroke-width="0.45"/>
<rect x="440.474" y="181.729" width="32.3199" height="22.4889" transform="rotate(90 440.474 181.729)" fill="#7CADD0" stroke="white" stroke-width="0.45"/>
<rect x="707.877" y="181.729" width="32.3199" height="35.5969" transform="rotate(90 707.877 181.729)" fill="#E18BB9" stroke="white" stroke-width="0.45"/>
<rect x="627.919" y="181.729" width="32.3199" height="186.994" transform="rotate(90 627.919 181.729)" fill="#D08093" stroke="white" stroke-width="0.45"/>
<rect x="671.829" y="181.729" width="32.3199" height="43.4617" transform="rotate(90 671.829 181.729)" fill="#A27981" stroke="white" stroke-width="0.45"/>
<rect x="716.397" y="181.729" width="32.3199" height="8.07017" transform="rotate(90 716.397 181.729)" fill="#C48EBF" stroke="white" stroke-width="0.45"/>
<rect x="724.918" y="181.729" width="32.3199" height="8.07017" transform="rotate(90 724.918 181.729)" fill="#DD86D0" stroke="white" stroke-width="0.45"/>
<rect x="417.535" y="181.729" width="32.3199" height="26.4213" transform="rotate(90 417.535 181.729)" fill="#91B0B6" stroke="white" stroke-width="0.45"/>
<path d="M36.4183 39.1039C35.3329 39.1039 34.5391 38.3263 34.5391 37.2409C34.5391 36.1555 35.3329 35.3779 36.4183 35.3779C37.5091 35.3779 38.3029 36.1555 38.3029 37.2409C38.3029 38.3263 37.5091 39.1039 36.4183 39.1039ZM36.4183 38.4235C37.0825 38.4235 37.5145 37.9105 37.5145 37.2409C37.5145 36.5659 37.0825 36.0583 36.4183 36.0583C35.7541 36.0583 35.3275 36.5659 35.3275 37.2409C35.3275 37.9105 35.7541 38.4235 36.4183 38.4235ZM40.0506 39.0391H39.3648V36.4309H40.0506V36.7873C40.2342 36.5551 40.5582 36.3661 40.8822 36.3661V37.0357C40.8336 37.0249 40.7688 37.0195 40.6932 37.0195C40.4664 37.0195 40.164 37.1491 40.0506 37.3165V39.0391ZM42.9199 40.0975C42.4717 40.0975 42.1261 39.9949 41.7967 39.7087L42.1045 39.2119C42.3151 39.4441 42.5905 39.5359 42.9199 39.5359C43.2493 39.5359 43.6381 39.3901 43.6381 38.8771V38.6125C43.4329 38.8717 43.1521 39.0229 42.8335 39.0229C42.1801 39.0229 41.6833 38.5639 41.6833 37.6945C41.6833 36.8413 42.1747 36.3661 42.8335 36.3661C43.1467 36.3661 43.4275 36.5011 43.6381 36.7657V36.4309H44.3293V38.8609C44.3293 39.8545 43.5625 40.0975 42.9199 40.0975ZM43.0495 38.4127C43.2763 38.4127 43.5247 38.2831 43.6381 38.1157V37.2733C43.5247 37.1005 43.2763 36.9763 43.0495 36.9763C42.6607 36.9763 42.3907 37.2463 42.3907 37.6945C42.3907 38.1427 42.6607 38.4127 43.0495 38.4127ZM47.8013 39.0391H47.1155V38.7691C46.9373 38.9797 46.6295 39.1039 46.2893 39.1039C45.8735 39.1039 45.3821 38.8231 45.3821 38.2399C45.3821 37.6297 45.8735 37.3975 46.2893 37.3975C46.6349 37.3975 46.9427 37.5109 47.1155 37.7161V37.3651C47.1155 37.1005 46.8887 36.9277 46.5431 36.9277C46.2623 36.9277 46.0031 37.0303 45.7817 37.2355L45.5225 36.7765C45.8411 36.4957 46.2515 36.3661 46.6619 36.3661C47.2559 36.3661 47.8013 36.6037 47.8013 37.3543V39.0391ZM46.5647 38.6395C46.7861 38.6395 47.0021 38.5639 47.1155 38.4127V38.0887C47.0021 37.9375 46.7861 37.8619 46.5647 37.8619C46.2947 37.8619 46.0733 38.0023 46.0733 38.2561C46.0733 38.4991 46.2947 38.6395 46.5647 38.6395ZM51.4677 39.0391H50.7819V37.4623C50.7819 37.1005 50.5929 36.9763 50.3013 36.9763C50.0313 36.9763 49.8207 37.1275 49.7073 37.2841V39.0391H49.0215V36.4309H49.7073V36.7711C49.8747 36.5713 50.1933 36.3661 50.6199 36.3661C51.1923 36.3661 51.4677 36.6901 51.4677 37.1977V39.0391ZM53.0288 36.1501C52.8074 36.1501 52.6184 35.9665 52.6184 35.7397C52.6184 35.5129 52.8074 35.3347 53.0288 35.3347C53.2556 35.3347 53.4392 35.5129 53.4392 35.7397C53.4392 35.9665 53.2556 36.1501 53.0288 36.1501ZM53.3744 39.0391H52.6886V36.4309H53.3744V39.0391ZM56.6087 39.0391H54.4811V38.5261L55.6583 37.0303H54.4811V36.4309H56.5871V36.9277L55.3937 38.4397H56.6087V39.0391ZM59.9702 39.0391H59.2844V38.7691C59.1062 38.9797 58.7984 39.1039 58.4582 39.1039C58.0424 39.1039 57.551 38.8231 57.551 38.2399C57.551 37.6297 58.0424 37.3975 58.4582 37.3975C58.8038 37.3975 59.1116 37.5109 59.2844 37.7161V37.3651C59.2844 37.1005 59.0576 36.9277 58.712 36.9277C58.4312 36.9277 58.172 37.0303 57.9506 37.2355L57.6914 36.7765C58.01 36.4957 58.4204 36.3661 58.8308 36.3661C59.4248 36.3661 59.9702 36.6037 59.9702 37.3543V39.0391ZM58.7336 38.6395C58.955 38.6395 59.171 38.5639 59.2844 38.4127V38.0887C59.171 37.9375 58.955 37.8619 58.7336 37.8619C58.4636 37.8619 58.2422 38.0023 58.2422 38.2561C58.2422 38.4991 58.4636 38.6395 58.7336 38.6395ZM62.0653 39.1039C61.5847 39.1039 61.3255 38.8555 61.3255 38.3911V37.0303H60.8935V36.4309H61.3255V35.7181H62.0167V36.4309H62.5459V37.0303H62.0167V38.2075C62.0167 38.3695 62.1031 38.4937 62.2543 38.4937C62.3569 38.4937 62.4541 38.4559 62.4919 38.4181L62.6377 38.9365C62.5351 39.0283 62.3515 39.1039 62.0653 39.1039ZM63.8953 36.1501C63.6739 36.1501 63.4849 35.9665 63.4849 35.7397C63.4849 35.5129 63.6739 35.3347 63.8953 35.3347C64.1221 35.3347 64.3057 35.5129 64.3057 35.7397C64.3057 35.9665 64.1221 36.1501 63.8953 36.1501ZM64.2409 39.0391H63.5551V36.4309H64.2409V39.0391ZM66.6705 39.1039C65.8119 39.1039 65.2935 38.4775 65.2935 37.7323C65.2935 36.9925 65.8119 36.3661 66.6705 36.3661C67.5345 36.3661 68.0529 36.9925 68.0529 37.7323C68.0529 38.4775 67.5345 39.1039 66.6705 39.1039ZM66.6705 38.4937C67.0971 38.4937 67.3401 38.1427 67.3401 37.7323C67.3401 37.3273 67.0971 36.9763 66.6705 36.9763C66.2439 36.9763 66.0063 37.3273 66.0063 37.7323C66.0063 38.1427 66.2439 38.4937 66.6705 38.4937ZM71.5479 39.0391H70.8621V37.4623C70.8621 37.1005 70.6731 36.9763 70.3815 36.9763C70.1115 36.9763 69.9009 37.1275 69.7875 37.2841V39.0391H69.1017V36.4309H69.7875V36.7711C69.9549 36.5713 70.2735 36.3661 70.7001 36.3661C71.2725 36.3661 71.5479 36.6901 71.5479 37.1977V39.0391ZM76.3321 39.1039C75.2359 39.1039 74.7067 38.4883 74.7067 37.6027V35.4373H75.4843V37.5757C75.4843 38.0779 75.7759 38.4235 76.3321 38.4235C76.8883 38.4235 77.1745 38.0779 77.1745 37.5757V35.4373H77.9575V37.5973C77.9575 38.4937 77.4283 39.1039 76.3321 39.1039ZM81.637 39.0391H80.9512V37.4623C80.9512 37.1005 80.7622 36.9763 80.4706 36.9763C80.2006 36.9763 79.99 37.1275 79.8766 37.2841V39.0391H79.1908V36.4309H79.8766V36.7711C80.044 36.5713 80.3626 36.3661 80.7892 36.3661C81.3616 36.3661 81.637 36.6901 81.637 37.1977V39.0391ZM83.1982 36.1501C82.9768 36.1501 82.7878 35.9665 82.7878 35.7397C82.7878 35.5129 82.9768 35.3347 83.1982 35.3347C83.425 35.3347 83.6086 35.5129 83.6086 35.7397C83.6086 35.9665 83.425 36.1501 83.1982 36.1501ZM83.5438 39.0391H82.858V36.4309H83.5438V39.0391ZM85.6386 39.1039C85.158 39.1039 84.8988 38.8555 84.8988 38.3911V37.0303H84.4668V36.4309H84.8988V35.7181H85.59V36.4309H86.1192V37.0303H85.59V38.2075C85.59 38.3695 85.6764 38.4937 85.8276 38.4937C85.9302 38.4937 86.0274 38.4559 86.0652 38.4181L86.211 38.9365C86.1084 39.0283 85.9248 39.1039 85.6386 39.1039ZM90.5728 39.0391H89.806V36.4255L89.2066 37.0357L88.7692 36.5767L89.9032 35.4373H90.5728V39.0391Z" fill="#45475E"/>
<path d="M36.4183 84.9828C35.3329 84.9828 34.5391 84.2052 34.5391 83.1198C34.5391 82.0344 35.3329 81.2568 36.4183 81.2568C37.5091 81.2568 38.3029 82.0344 38.3029 83.1198C38.3029 84.2052 37.5091 84.9828 36.4183 84.9828ZM36.4183 84.3024C37.0825 84.3024 37.5145 83.7894 37.5145 83.1198C37.5145 82.4448 37.0825 81.9372 36.4183 81.9372C35.7541 81.9372 35.3275 82.4448 35.3275 83.1198C35.3275 83.7894 35.7541 84.3024 36.4183 84.3024ZM40.0506 84.918H39.3648V82.3098H40.0506V82.6662C40.2342 82.434 40.5582 82.245 40.8822 82.245V82.9146C40.8336 82.9038 40.7688 82.8984 40.6932 82.8984C40.4664 82.8984 40.164 83.028 40.0506 83.1954V84.918ZM42.9199 85.9764C42.4717 85.9764 42.1261 85.8738 41.7967 85.5876L42.1045 85.0908C42.3151 85.323 42.5905 85.4148 42.9199 85.4148C43.2493 85.4148 43.6381 85.269 43.6381 84.756V84.4914C43.4329 84.7506 43.1521 84.9018 42.8335 84.9018C42.1801 84.9018 41.6833 84.4428 41.6833 83.5734C41.6833 82.7202 42.1747 82.245 42.8335 82.245C43.1467 82.245 43.4275 82.38 43.6381 82.6446V82.3098H44.3293V84.7398C44.3293 85.7334 43.5625 85.9764 42.9199 85.9764ZM43.0495 84.2916C43.2763 84.2916 43.5247 84.162 43.6381 83.9946V83.1522C43.5247 82.9794 43.2763 82.8552 43.0495 82.8552C42.6607 82.8552 42.3907 83.1252 42.3907 83.5734C42.3907 84.0216 42.6607 84.2916 43.0495 84.2916ZM47.8013 84.918H47.1155V84.648C46.9373 84.8586 46.6295 84.9828 46.2893 84.9828C45.8735 84.9828 45.3821 84.702 45.3821 84.1188C45.3821 83.5086 45.8735 83.2764 46.2893 83.2764C46.6349 83.2764 46.9427 83.3898 47.1155 83.595V83.244C47.1155 82.9794 46.8887 82.8066 46.5431 82.8066C46.2623 82.8066 46.0031 82.9092 45.7817 83.1144L45.5225 82.6554C45.8411 82.3746 46.2515 82.245 46.6619 82.245C47.2559 82.245 47.8013 82.4826 47.8013 83.2332V84.918ZM46.5647 84.5184C46.7861 84.5184 47.0021 84.4428 47.1155 84.2916V83.9676C47.0021 83.8164 46.7861 83.7408 46.5647 83.7408C46.2947 83.7408 46.0733 83.8812 46.0733 84.135C46.0733 84.378 46.2947 84.5184 46.5647 84.5184ZM51.4677 84.918H50.7819V83.3412C50.7819 82.9794 50.5929 82.8552 50.3013 82.8552C50.0313 82.8552 49.8207 83.0064 49.7073 83.163V84.918H49.0215V82.3098H49.7073V82.65C49.8747 82.4502 50.1933 82.245 50.6199 82.245C51.1923 82.245 51.4677 82.569 51.4677 83.0766V84.918ZM53.0288 82.029C52.8074 82.029 52.6184 81.8454 52.6184 81.6186C52.6184 81.3918 52.8074 81.2136 53.0288 81.2136C53.2556 81.2136 53.4392 81.3918 53.4392 81.6186C53.4392 81.8454 53.2556 82.029 53.0288 82.029ZM53.3744 84.918H52.6886V82.3098H53.3744V84.918ZM56.6087 84.918H54.4811V84.405L55.6583 82.9092H54.4811V82.3098H56.5871V82.8066L55.3937 84.3186H56.6087V84.918ZM59.9702 84.918H59.2844V84.648C59.1062 84.8586 58.7984 84.9828 58.4582 84.9828C58.0424 84.9828 57.551 84.702 57.551 84.1188C57.551 83.5086 58.0424 83.2764 58.4582 83.2764C58.8038 83.2764 59.1116 83.3898 59.2844 83.595V83.244C59.2844 82.9794 59.0576 82.8066 58.712 82.8066C58.4312 82.8066 58.172 82.9092 57.9506 83.1144L57.6914 82.6554C58.01 82.3746 58.4204 82.245 58.8308 82.245C59.4248 82.245 59.9702 82.4826 59.9702 83.2332V84.918ZM58.7336 84.5184C58.955 84.5184 59.171 84.4428 59.2844 84.2916V83.9676C59.171 83.8164 58.955 83.7408 58.7336 83.7408C58.4636 83.7408 58.2422 83.8812 58.2422 84.135C58.2422 84.378 58.4636 84.5184 58.7336 84.5184ZM62.0653 84.9828C61.5847 84.9828 61.3255 84.7344 61.3255 84.27V82.9092H60.8935V82.3098H61.3255V81.597H62.0167V82.3098H62.5459V82.9092H62.0167V84.0864C62.0167 84.2484 62.1031 84.3726 62.2543 84.3726C62.3569 84.3726 62.4541 84.3348 62.4919 84.297L62.6377 84.8154C62.5351 84.9072 62.3515 84.9828 62.0653 84.9828ZM63.8953 82.029C63.6739 82.029 63.4849 81.8454 63.4849 81.6186C63.4849 81.3918 63.6739 81.2136 63.8953 81.2136C64.1221 81.2136 64.3057 81.3918 64.3057 81.6186C64.3057 81.8454 64.1221 82.029 63.8953 82.029ZM64.2409 84.918H63.5551V82.3098H64.2409V84.918ZM66.6705 84.9828C65.8119 84.9828 65.2935 84.3564 65.2935 83.6112C65.2935 82.8714 65.8119 82.245 66.6705 82.245C67.5345 82.245 68.0529 82.8714 68.0529 83.6112C68.0529 84.3564 67.5345 84.9828 66.6705 84.9828ZM66.6705 84.3726C67.0971 84.3726 67.3401 84.0216 67.3401 83.6112C67.3401 83.2062 67.0971 82.8552 66.6705 82.8552C66.2439 82.8552 66.0063 83.2062 66.0063 83.6112C66.0063 84.0216 66.2439 84.3726 66.6705 84.3726ZM71.5479 84.918H70.8621V83.3412C70.8621 82.9794 70.6731 82.8552 70.3815 82.8552C70.1115 82.8552 69.9009 83.0064 69.7875 83.163V84.918H69.1017V82.3098H69.7875V82.65C69.9549 82.4502 70.2735 82.245 70.7001 82.245C71.2725 82.245 71.5479 82.569 71.5479 83.0766V84.918ZM76.3321 84.9828C75.2359 84.9828 74.7067 84.3672 74.7067 83.4816V81.3162H75.4843V83.4546C75.4843 83.9568 75.7759 84.3024 76.3321 84.3024C76.8883 84.3024 77.1745 83.9568 77.1745 83.4546V81.3162H77.9575V83.4762C77.9575 84.3726 77.4283 84.9828 76.3321 84.9828ZM81.637 84.918L80.9512 84.918V83.3412C80.9512 82.9794 80.7622 82.8552 80.4706 82.8552C80.2006 82.8552 79.99 83.0064 79.8766 83.163V84.918H79.1908V82.3098H79.8766V82.65C80.044 82.4502 80.3626 82.245 80.7892 82.245C81.3616 82.245 81.637 82.569 81.637 83.0766V84.918ZM83.1982 82.029C82.9768 82.029 82.7878 81.8454 82.7878 81.6186C82.7878 81.3918 82.9768 81.2136 83.1982 81.2136C83.425 81.2136 83.6086 81.3918 83.6086 81.6186C83.6086 81.8454 83.425 82.029 83.1982 82.029ZM83.5438 84.918H82.858V82.3098H83.5438V84.918ZM85.6386 84.9828C85.158 84.9828 84.8988 84.7344 84.8988 84.27V82.9092H84.4668V82.3098H84.8988V81.597H85.59V82.3098H86.1192V82.9092H85.59V84.0864C85.59 84.2484 85.6764 84.3726 85.8276 84.3726C85.9302 84.3726 86.0274 84.3348 86.0652 84.297L86.211 84.8154C86.1084 84.9072 85.9248 84.9828 85.6386 84.9828ZM91.6744 84.918H88.9636V84.3186C90.4378 83.2278 90.8698 82.8552 90.8698 82.4124C90.8698 82.0992 90.5836 81.9426 90.2866 81.9426C89.8762 81.9426 89.563 82.1046 89.32 82.3584L88.8826 81.8508C89.2336 81.4458 89.7682 81.2622 90.2704 81.2622C91.0372 81.2622 91.6474 81.6942 91.6474 82.4124C91.6474 83.028 91.1398 83.5626 90.2056 84.243H91.6744V84.918Z" fill="#45475E"/>
<path d="M36.4183 130.862C35.3329 130.862 34.5391 130.084 34.5391 128.999C34.5391 127.913 35.3329 127.136 36.4183 127.136C37.5091 127.136 38.3029 127.913 38.3029 128.999C38.3029 130.084 37.5091 130.862 36.4183 130.862ZM36.4183 130.181C37.0825 130.181 37.5145 129.668 37.5145 128.999C37.5145 128.324 37.0825 127.816 36.4183 127.816C35.7541 127.816 35.3275 128.324 35.3275 128.999C35.3275 129.668 35.7541 130.181 36.4183 130.181ZM40.0506 130.797H39.3648V128.189H40.0506V128.545C40.2342 128.313 40.5582 128.124 40.8822 128.124V128.793C40.8336 128.783 40.7688 128.777 40.6932 128.777C40.4664 128.777 40.164 128.907 40.0506 129.074V130.797ZM42.9199 131.855C42.4717 131.855 42.1261 131.753 41.7967 131.466L42.1045 130.97C42.3151 131.202 42.5905 131.294 42.9199 131.294C43.2493 131.294 43.6381 131.148 43.6381 130.635V130.37C43.4329 130.629 43.1521 130.781 42.8335 130.781C42.1801 130.781 41.6833 130.322 41.6833 129.452C41.6833 128.599 42.1747 128.124 42.8335 128.124C43.1467 128.124 43.4275 128.259 43.6381 128.523V128.189H44.3293V130.619C44.3293 131.612 43.5625 131.855 42.9199 131.855ZM43.0495 130.17C43.2763 130.17 43.5247 130.041 43.6381 129.873V129.031C43.5247 128.858 43.2763 128.734 43.0495 128.734C42.6607 128.734 42.3907 129.004 42.3907 129.452C42.3907 129.9 42.6607 130.17 43.0495 130.17ZM47.8013 130.797H47.1155V130.527C46.9373 130.737 46.6295 130.862 46.2893 130.862C45.8735 130.862 45.3821 130.581 45.3821 129.998C45.3821 129.387 45.8735 129.155 46.2893 129.155C46.6349 129.155 46.9427 129.269 47.1155 129.474V129.123C47.1155 128.858 46.8887 128.685 46.5431 128.685C46.2623 128.685 46.0031 128.788 45.7817 128.993L45.5225 128.534C45.8411 128.253 46.2515 128.124 46.6619 128.124C47.2559 128.124 47.8013 128.361 47.8013 129.112V130.797ZM46.5647 130.397C46.7861 130.397 47.0021 130.322 47.1155 130.17V129.846C47.0021 129.695 46.7861 129.62 46.5647 129.62C46.2947 129.62 46.0733 129.76 46.0733 130.014C46.0733 130.257 46.2947 130.397 46.5647 130.397ZM51.4677 130.797H50.7819V129.22C50.7819 128.858 50.5929 128.734 50.3013 128.734C50.0313 128.734 49.8207 128.885 49.7073 129.042V130.797H49.0215V128.189H49.7073V128.529C49.8747 128.329 50.1933 128.124 50.6199 128.124C51.1923 128.124 51.4677 128.448 51.4677 128.955V130.797ZM53.0288 127.908C52.8074 127.908 52.6184 127.724 52.6184 127.497C52.6184 127.271 52.8074 127.092 53.0288 127.092C53.2556 127.092 53.4392 127.271 53.4392 127.497C53.4392 127.724 53.2556 127.908 53.0288 127.908ZM53.3744 130.797H52.6886V128.189H53.3744V130.797ZM56.6087 130.797H54.4811V130.284L55.6583 128.788H54.4811V128.189H56.5871V128.685L55.3937 130.197H56.6087V130.797ZM59.9702 130.797H59.2844V130.527C59.1062 130.737 58.7984 130.862 58.4582 130.862C58.0424 130.862 57.551 130.581 57.551 129.998C57.551 129.387 58.0424 129.155 58.4582 129.155C58.8038 129.155 59.1116 129.269 59.2844 129.474V129.123C59.2844 128.858 59.0576 128.685 58.712 128.685C58.4312 128.685 58.172 128.788 57.9506 128.993L57.6914 128.534C58.01 128.253 58.4204 128.124 58.8308 128.124C59.4248 128.124 59.9702 128.361 59.9702 129.112V130.797ZM58.7336 130.397C58.955 130.397 59.171 130.322 59.2844 130.17V129.846C59.171 129.695 58.955 129.62 58.7336 129.62C58.4636 129.62 58.2422 129.76 58.2422 130.014C58.2422 130.257 58.4636 130.397 58.7336 130.397ZM62.0653 130.862C61.5847 130.862 61.3255 130.613 61.3255 130.149V128.788H60.8935V128.189H61.3255V127.476H62.0167V128.189H62.5459V128.788H62.0167V129.965C62.0167 130.127 62.1031 130.251 62.2543 130.251C62.3569 130.251 62.4541 130.214 62.4919 130.176L62.6377 130.694C62.5351 130.786 62.3515 130.862 62.0653 130.862ZM63.8953 127.908C63.6739 127.908 63.4849 127.724 63.4849 127.497C63.4849 127.271 63.6739 127.092 63.8953 127.092C64.1221 127.092 64.3057 127.271 64.3057 127.497C64.3057 127.724 64.1221 127.908 63.8953 127.908ZM64.2409 130.797H63.5551V128.189H64.2409V130.797ZM66.6705 130.862C65.8119 130.862 65.2935 130.235 65.2935 129.49C65.2935 128.75 65.8119 128.124 66.6705 128.124C67.5345 128.124 68.0529 128.75 68.0529 129.49C68.0529 130.235 67.5345 130.862 66.6705 130.862ZM66.6705 130.251C67.0971 130.251 67.3401 129.9 67.3401 129.49C67.3401 129.085 67.0971 128.734 66.6705 128.734C66.2439 128.734 66.0063 129.085 66.0063 129.49C66.0063 129.9 66.2439 130.251 66.6705 130.251ZM71.5479 130.797H70.8621V129.22C70.8621 128.858 70.6731 128.734 70.3815 128.734C70.1115 128.734 69.9009 128.885 69.7875 129.042V130.797H69.1017V128.189H69.7875V128.529C69.9549 128.329 70.2735 128.124 70.7001 128.124C71.2725 128.124 71.5479 128.448 71.5479 128.955V130.797ZM76.3321 130.862C75.2359 130.862 74.7067 130.246 74.7067 129.36V127.195H75.4843V129.333C75.4843 129.836 75.7759 130.181 76.3321 130.181C76.8883 130.181 77.1745 129.836 77.1745 129.333V127.195H77.9575V129.355C77.9575 130.251 77.4283 130.862 76.3321 130.862ZM81.637 130.797H80.9512V129.22C80.9512 128.858 80.7622 128.734 80.4706 128.734C80.2006 128.734 79.99 128.885 79.8766 129.042V130.797H79.1908V128.189H79.8766V128.529C80.044 128.329 80.3626 128.124 80.7892 128.124C81.3616 128.124 81.637 128.448 81.637 128.955V130.797ZM83.1982 127.908C82.9768 127.908 82.7878 127.724 82.7878 127.497C82.7878 127.271 82.9768 127.092 83.1982 127.092C83.425 127.092 83.6086 127.271 83.6086 127.497C83.6086 127.724 83.425 127.908 83.1982 127.908ZM83.5438 130.797H82.858V128.189H83.5438V130.797ZM85.6386 130.862C85.158 130.862 84.8988 130.613 84.8988 130.149V128.788H84.4668V128.189H84.8988V127.476H85.59V128.189H86.1192V128.788H85.59V129.965C85.59 130.127 85.6764 130.251 85.8276 130.251C85.9302 130.251 86.0274 130.214 86.0652 130.176L86.211 130.694C86.1084 130.786 85.9248 130.862 85.6386 130.862ZM90.238 130.862C89.5738 130.862 89.0824 130.608 88.8178 130.284L89.2174 129.771C89.4658 130.03 89.86 130.181 90.211 130.181C90.6484 130.181 90.8914 129.992 90.8914 129.722C90.8914 129.436 90.67 129.306 90.1678 129.306C90.0166 129.306 89.7736 129.312 89.7196 129.317V128.626C89.7844 128.631 90.0328 128.631 90.1678 128.631C90.5674 128.631 90.832 128.513 90.832 128.248C90.832 127.962 90.5404 127.821 90.1624 127.821C89.8168 127.821 89.5036 127.951 89.2498 128.194L88.8664 127.713C89.158 127.384 89.6116 127.141 90.2434 127.141C91.0858 127.141 91.6042 127.519 91.6042 128.118C91.6042 128.572 91.2154 128.869 90.8158 128.939C91.183 128.977 91.6582 129.263 91.6582 129.803C91.6582 130.424 91.102 130.862 90.238 130.862Z" fill="#45475E"/>
<path d="M36.4183 176.737C35.3329 176.737 34.5391 175.959 34.5391 174.874C34.5391 173.788 35.3329 173.011 36.4183 173.011C37.5091 173.011 38.3029 173.788 38.3029 174.874C38.3029 175.959 37.5091 176.737 36.4183 176.737ZM36.4183 176.056C37.0825 176.056 37.5145 175.543 37.5145 174.874C37.5145 174.199 37.0825 173.691 36.4183 173.691C35.7541 173.691 35.3275 174.199 35.3275 174.874C35.3275 175.543 35.7541 176.056 36.4183 176.056ZM40.0506 176.672H39.3648V174.064H40.0506V174.42C40.2342 174.188 40.5582 173.999 40.8822 173.999V174.668C40.8336 174.658 40.7688 174.652 40.6932 174.652C40.4664 174.652 40.164 174.782 40.0506 174.949V176.672ZM42.9199 177.73C42.4717 177.73 42.1261 177.628 41.7967 177.341L42.1045 176.845C42.3151 177.077 42.5905 177.169 42.9199 177.169C43.2493 177.169 43.6381 177.023 43.6381 176.51V176.245C43.4329 176.504 43.1521 176.656 42.8335 176.656C42.1801 176.656 41.6833 176.197 41.6833 175.327C41.6833 174.474 42.1747 173.999 42.8335 173.999C43.1467 173.999 43.4275 174.134 43.6381 174.398V174.064H44.3293V176.494C44.3293 177.487 43.5625 177.73 42.9199 177.73ZM43.0495 176.045C43.2763 176.045 43.5247 175.916 43.6381 175.748V174.906C43.5247 174.733 43.2763 174.609 43.0495 174.609C42.6607 174.609 42.3907 174.879 42.3907 175.327C42.3907 175.775 42.6607 176.045 43.0495 176.045ZM47.8013 176.672H47.1155V176.402C46.9373 176.612 46.6295 176.737 46.2893 176.737C45.8735 176.737 45.3821 176.456 45.3821 175.873C45.3821 175.262 45.8735 175.03 46.2893 175.03C46.6349 175.03 46.9427 175.144 47.1155 175.349V174.998C47.1155 174.733 46.8887 174.56 46.5431 174.56C46.2623 174.56 46.0031 174.663 45.7817 174.868L45.5225 174.409C45.8411 174.128 46.2515 173.999 46.6619 173.999C47.2559 173.999 47.8013 174.236 47.8013 174.987V176.672ZM46.5647 176.272C46.7861 176.272 47.0021 176.197 47.1155 176.045V175.721C47.0021 175.57 46.7861 175.495 46.5647 175.495C46.2947 175.495 46.0733 175.635 46.0733 175.889C46.0733 176.132 46.2947 176.272 46.5647 176.272ZM51.4677 176.672H50.7819V175.095C50.7819 174.733 50.5929 174.609 50.3013 174.609C50.0313 174.609 49.8207 174.76 49.7073 174.917V176.672H49.0215V174.064H49.7073V174.404C49.8747 174.204 50.1933 173.999 50.6199 173.999C51.1923 173.999 51.4677 174.323 51.4677 174.83V176.672ZM53.0288 173.783C52.8074 173.783 52.6184 173.599 52.6184 173.372C52.6184 173.146 52.8074 172.967 53.0288 172.967C53.2556 172.967 53.4392 173.146 53.4392 173.372C53.4392 173.599 53.2556 173.783 53.0288 173.783ZM53.3744 176.672H52.6886V174.064H53.3744V176.672ZM56.6087 176.672H54.4811V176.159L55.6583 174.663H54.4811V174.064H56.5871V174.56L55.3937 176.072H56.6087V176.672ZM59.9702 176.672H59.2844V176.402C59.1062 176.612 58.7984 176.737 58.4582 176.737C58.0424 176.737 57.551 176.456 57.551 175.873C57.551 175.262 58.0424 175.03 58.4582 175.03C58.8038 175.03 59.1116 175.144 59.2844 175.349V174.998C59.2844 174.733 59.0576 174.56 58.712 174.56C58.4312 174.56 58.172 174.663 57.9506 174.868L57.6914 174.409C58.01 174.128 58.4204 173.999 58.8308 173.999C59.4248 173.999 59.9702 174.236 59.9702 174.987V176.672ZM58.7336 176.272C58.955 176.272 59.171 176.197 59.2844 176.045V175.721C59.171 175.57 58.955 175.495 58.7336 175.495C58.4636 175.495 58.2422 175.635 58.2422 175.889C58.2422 176.132 58.4636 176.272 58.7336 176.272ZM62.0653 176.737C61.5847 176.737 61.3255 176.488 61.3255 176.024V174.663H60.8935V174.064H61.3255V173.351H62.0167V174.064H62.5459V174.663H62.0167V175.84C62.0167 176.002 62.1031 176.126 62.2543 176.126C62.3569 176.126 62.4541 176.089 62.4919 176.051L62.6377 176.569C62.5351 176.661 62.3515 176.737 62.0653 176.737ZM63.8953 173.783C63.6739 173.783 63.4849 173.599 63.4849 173.372C63.4849 173.146 63.6739 172.967 63.8953 172.967C64.1221 172.967 64.3057 173.146 64.3057 173.372C64.3057 173.599 64.1221 173.783 63.8953 173.783ZM64.2409 176.672H63.5551V174.064H64.2409V176.672ZM66.6705 176.737C65.8119 176.737 65.2935 176.11 65.2935 175.365C65.2935 174.625 65.8119 173.999 66.6705 173.999C67.5345 173.999 68.0529 174.625 68.0529 175.365C68.0529 176.11 67.5345 176.737 66.6705 176.737ZM66.6705 176.126C67.0971 176.126 67.3401 175.775 67.3401 175.365C67.3401 174.96 67.0971 174.609 66.6705 174.609C66.2439 174.609 66.0063 174.96 66.0063 175.365C66.0063 175.775 66.2439 176.126 66.6705 176.126ZM71.5479 176.672H70.8621V175.095C70.8621 174.733 70.6731 174.609 70.3815 174.609C70.1115 174.609 69.9009 174.76 69.7875 174.917V176.672H69.1017V174.064H69.7875V174.404C69.9549 174.204 70.2735 173.999 70.7001 173.999C71.2725 173.999 71.5479 174.323 71.5479 174.83V176.672ZM76.3321 176.737C75.2359 176.737 74.7067 176.121 74.7067 175.235V173.07H75.4843V175.208C75.4843 175.711 75.7759 176.056 76.3321 176.056C76.8883 176.056 77.1745 175.711 77.1745 175.208V173.07H77.9575V175.23C77.9575 176.126 77.4283 176.737 76.3321 176.737ZM81.637 176.672H80.9512V175.095C80.9512 174.733 80.7622 174.609 80.4706 174.609C80.2006 174.609 79.99 174.76 79.8766 174.917V176.672H79.1908V174.064H79.8766V174.404C80.044 174.204 80.3626 173.999 80.7892 173.999C81.3616 173.999 81.637 174.323 81.637 174.83V176.672ZM83.1982 173.783C82.9768 173.783 82.7878 173.599 82.7878 173.372C82.7878 173.146 82.9768 172.967 83.1982 172.967C83.425 172.967 83.6086 173.146 83.6086 173.372C83.6086 173.599 83.425 173.783 83.1982 173.783ZM83.5438 176.672H82.858V174.064H83.5438V176.672ZM85.6386 176.737C85.158 176.737 84.8988 176.488 84.8988 176.024V174.663H84.4668V174.064H84.8988V173.351H85.59V174.064H86.1192V174.663H85.59V175.84C85.59 176.002 85.6764 176.126 85.8276 176.126C85.9302 176.126 86.0274 176.089 86.0652 176.051L86.211 176.569C86.1084 176.661 85.9248 176.737 85.6386 176.737ZM91.3342 176.672H90.5674V175.927H88.8448V175.322L90.2758 173.07H91.3342V175.252H91.7986V175.927H91.3342V176.672ZM90.5674 175.252V173.75L89.5954 175.252H90.5674Z" fill="#45475E"/>
<path d="M36.4183 222.619C35.3329 222.619 34.5391 221.842 34.5391 220.756C34.5391 219.671 35.3329 218.893 36.4183 218.893C37.5091 218.893 38.3029 219.671 38.3029 220.756C38.3029 221.842 37.5091 222.619 36.4183 222.619ZM36.4183 221.939C37.0825 221.939 37.5145 221.426 37.5145 220.756C37.5145 220.081 37.0825 219.574 36.4183 219.574C35.7541 219.574 35.3275 220.081 35.3275 220.756C35.3275 221.426 35.7541 221.939 36.4183 221.939ZM40.0506 222.555H39.3648V219.946H40.0506V220.303C40.2342 220.071 40.5582 219.882 40.8822 219.882V220.551C40.8336 220.54 40.7688 220.535 40.6932 220.535C40.4664 220.535 40.164 220.665 40.0506 220.832V222.555ZM42.9199 223.613C42.4717 223.613 42.1261 223.51 41.7967 223.224L42.1045 222.727C42.3151 222.96 42.5905 223.051 42.9199 223.051C43.2493 223.051 43.6381 222.906 43.6381 222.393V222.128C43.4329 222.387 43.1521 222.538 42.8335 222.538C42.1801 222.538 41.6833 222.079 41.6833 221.21C41.6833 220.357 42.1747 219.882 42.8335 219.882C43.1467 219.882 43.4275 220.017 43.6381 220.281V219.946H44.3293V222.376C44.3293 223.37 43.5625 223.613 42.9199 223.613ZM43.0495 221.928C43.2763 221.928 43.5247 221.799 43.6381 221.631V220.789C43.5247 220.616 43.2763 220.492 43.0495 220.492C42.6607 220.492 42.3907 220.762 42.3907 221.21C42.3907 221.658 42.6607 221.928 43.0495 221.928ZM47.8013 222.555H47.1155V222.285C46.9373 222.495 46.6295 222.619 46.2893 222.619C45.8735 222.619 45.3821 222.339 45.3821 221.755C45.3821 221.145 45.8735 220.913 46.2893 220.913C46.6349 220.913 46.9427 221.026 47.1155 221.232V220.881C47.1155 220.616 46.8887 220.443 46.5431 220.443C46.2623 220.443 46.0031 220.546 45.7817 220.751L45.5225 220.292C45.8411 220.011 46.2515 219.882 46.6619 219.882C47.2559 219.882 47.8013 220.119 47.8013 220.87V222.555ZM46.5647 222.155C46.7861 222.155 47.0021 222.079 47.1155 221.928V221.604C47.0021 221.453 46.7861 221.377 46.5647 221.377C46.2947 221.377 46.0733 221.518 46.0733 221.772C46.0733 222.015 46.2947 222.155 46.5647 222.155ZM51.4677 222.555H50.7819V220.978C50.7819 220.616 50.5929 220.492 50.3013 220.492C50.0313 220.492 49.8207 220.643 49.7073 220.8V222.555H49.0215V219.946H49.7073V220.287C49.8747 220.087 50.1933 219.882 50.6199 219.882C51.1923 219.882 51.4677 220.206 51.4677 220.713V222.555ZM53.0288 219.666C52.8074 219.666 52.6184 219.482 52.6184 219.255C52.6184 219.028 52.8074 218.85 53.0288 218.85C53.2556 218.85 53.4392 219.028 53.4392 219.255C53.4392 219.482 53.2556 219.666 53.0288 219.666ZM53.3744 222.555H52.6886V219.946H53.3744V222.555ZM56.6087 222.555H54.4811V222.042L55.6583 220.546H54.4811V219.946H56.5871V220.443L55.3937 221.955H56.6087V222.555ZM59.9702 222.555H59.2844V222.285C59.1062 222.495 58.7984 222.619 58.4582 222.619C58.0424 222.619 57.551 222.339 57.551 221.755C57.551 221.145 58.0424 220.913 58.4582 220.913C58.8038 220.913 59.1116 221.026 59.2844 221.232V220.881C59.2844 220.616 59.0576 220.443 58.712 220.443C58.4312 220.443 58.172 220.546 57.9506 220.751L57.6914 220.292C58.01 220.011 58.4204 219.882 58.8308 219.882C59.4248 219.882 59.9702 220.119 59.9702 220.87V222.555ZM58.7336 222.155C58.955 222.155 59.171 222.079 59.2844 221.928V221.604C59.171 221.453 58.955 221.377 58.7336 221.377C58.4636 221.377 58.2422 221.518 58.2422 221.772C58.2422 222.015 58.4636 222.155 58.7336 222.155ZM62.0653 222.619C61.5847 222.619 61.3255 222.371 61.3255 221.907V220.546H60.8935V219.946H61.3255V219.234H62.0167V219.946H62.5459V220.546H62.0167V221.723C62.0167 221.885 62.1031 222.009 62.2543 222.009C62.3569 222.009 62.4541 221.971 62.4919 221.934L62.6377 222.452C62.5351 222.544 62.3515 222.619 62.0653 222.619ZM63.8953 219.666C63.6739 219.666 63.4849 219.482 63.4849 219.255C63.4849 219.028 63.6739 218.85 63.8953 218.85C64.1221 218.85 64.3057 219.028 64.3057 219.255C64.3057 219.482 64.1221 219.666 63.8953 219.666ZM64.2409 222.555H63.5551V219.946H64.2409V222.555ZM66.6705 222.619C65.8119 222.619 65.2935 221.993 65.2935 221.248C65.2935 220.508 65.8119 219.882 66.6705 219.882C67.5345 219.882 68.0529 220.508 68.0529 221.248C68.0529 221.993 67.5345 222.619 66.6705 222.619ZM66.6705 222.009C67.0971 222.009 67.3401 221.658 67.3401 221.248C67.3401 220.843 67.0971 220.492 66.6705 220.492C66.2439 220.492 66.0063 220.843 66.0063 221.248C66.0063 221.658 66.2439 222.009 66.6705 222.009ZM71.5479 222.555H70.8621V220.978C70.8621 220.616 70.6731 220.492 70.3815 220.492C70.1115 220.492 69.9009 220.643 69.7875 220.8V222.555H69.1017V219.946H69.7875V220.287C69.9549 220.087 70.2735 219.882 70.7001 219.882C71.2725 219.882 71.5479 220.206 71.5479 220.713V222.555ZM76.3321 222.619C75.2359 222.619 74.7067 222.004 74.7067 221.118V218.953H75.4843V221.091C75.4843 221.593 75.7759 221.939 76.3321 221.939C76.8883 221.939 77.1745 221.593 77.1745 221.091V218.953H77.9575V221.113C77.9575 222.009 77.4283 222.619 76.3321 222.619ZM81.637 222.555H80.9512V220.978C80.9512 220.616 80.7622 220.492 80.4706 220.492C80.2006 220.492 79.99 220.643 79.8766 220.8V222.555H79.1908V219.946H79.8766V220.287C80.044 220.087 80.3626 219.882 80.7892 219.882C81.3616 219.882 81.637 220.206 81.637 220.713V222.555ZM83.1982 219.666C82.9768 219.666 82.7878 219.482 82.7878 219.255C82.7878 219.028 82.9768 218.85 83.1982 218.85C83.425 218.85 83.6086 219.028 83.6086 219.255C83.6086 219.482 83.425 219.666 83.1982 219.666ZM83.5438 222.555H82.858V219.946H83.5438V222.555ZM85.6386 222.619C85.158 222.619 84.8988 222.371 84.8988 221.907V220.546H84.4668V219.946H84.8988V219.234H85.59V219.946H86.1192V220.546H85.59V221.723C85.59 221.885 85.6764 222.009 85.8276 222.009C85.9302 222.009 86.0274 221.971 86.0652 221.934L86.211 222.452C86.1084 222.544 85.9248 222.619 85.6386 222.619ZM90.3622 222.619C89.7358 222.619 89.2822 222.414 88.9744 222.079L89.401 221.545C89.644 221.799 89.9788 221.939 90.3568 221.939C90.7834 221.939 91.0264 221.696 91.0264 221.404C91.0264 221.086 90.7888 220.87 90.3784 220.87C90.0814 220.87 89.8384 220.956 89.6224 221.161L89.0878 221.021V218.953H91.561V219.628H89.8546V220.508C90.0274 220.335 90.319 220.206 90.6484 220.206C91.2586 220.206 91.804 220.643 91.804 221.372C91.804 222.139 91.2316 222.619 90.3622 222.619Z" fill="#45475E"/>
<path d="M36.4183 268.494C35.3329 268.494 34.5391 267.717 34.5391 266.631C34.5391 265.546 35.3329 264.768 36.4183 264.768C37.5091 264.768 38.3029 265.546 38.3029 266.631C38.3029 267.717 37.5091 268.494 36.4183 268.494ZM36.4183 267.814C37.0825 267.814 37.5145 267.301 37.5145 266.631C37.5145 265.956 37.0825 265.449 36.4183 265.449C35.7541 265.449 35.3275 265.956 35.3275 266.631C35.3275 267.301 35.7541 267.814 36.4183 267.814ZM40.0506 268.43H39.3648V265.821H40.0506V266.178C40.2342 265.946 40.5582 265.757 40.8822 265.757V266.426C40.8336 266.415 40.7688 266.41 40.6932 266.41C40.4664 266.41 40.164 266.54 40.0506 266.707V268.43ZM42.9199 269.488C42.4717 269.488 42.1261 269.385 41.7967 269.099L42.1045 268.602C42.3151 268.835 42.5905 268.926 42.9199 268.926C43.2493 268.926 43.6381 268.781 43.6381 268.268V268.003C43.4329 268.262 43.1521 268.413 42.8335 268.413C42.1801 268.413 41.6833 267.954 41.6833 267.085C41.6833 266.232 42.1747 265.757 42.8335 265.757C43.1467 265.757 43.4275 265.892 43.6381 266.156V265.821H44.3293V268.251C44.3293 269.245 43.5625 269.488 42.9199 269.488ZM43.0495 267.803C43.2763 267.803 43.5247 267.674 43.6381 267.506V266.664C43.5247 266.491 43.2763 266.367 43.0495 266.367C42.6607 266.367 42.3907 266.637 42.3907 267.085C42.3907 267.533 42.6607 267.803 43.0495 267.803ZM47.8013 268.43H47.1155V268.16C46.9373 268.37 46.6295 268.494 46.2893 268.494C45.8735 268.494 45.3821 268.214 45.3821 267.63C45.3821 267.02 45.8735 266.788 46.2893 266.788C46.6349 266.788 46.9427 266.901 47.1155 267.107V266.756C47.1155 266.491 46.8887 266.318 46.5431 266.318C46.2623 266.318 46.0031 266.421 45.7817 266.626L45.5225 266.167C45.8411 265.886 46.2515 265.757 46.6619 265.757C47.2559 265.757 47.8013 265.994 47.8013 266.745V268.43ZM46.5647 268.03C46.7861 268.03 47.0021 267.954 47.1155 267.803V267.479C47.0021 267.328 46.7861 267.252 46.5647 267.252C46.2947 267.252 46.0733 267.393 46.0733 267.647C46.0733 267.89 46.2947 268.03 46.5647 268.03ZM51.4677 268.43H50.7819V266.853C50.7819 266.491 50.5929 266.367 50.3013 266.367C50.0313 266.367 49.8207 266.518 49.7073 266.675V268.43H49.0215V265.821H49.7073V266.162C49.8747 265.962 50.1933 265.757 50.6199 265.757C51.1923 265.757 51.4677 266.081 51.4677 266.588V268.43ZM53.0288 265.541C52.8074 265.541 52.6184 265.357 52.6184 265.13C52.6184 264.903 52.8074 264.725 53.0288 264.725C53.2556 264.725 53.4392 264.903 53.4392 265.13C53.4392 265.357 53.2556 265.541 53.0288 265.541ZM53.3744 268.43H52.6886V265.821H53.3744V268.43ZM56.6087 268.43H54.4811V267.917L55.6583 266.421H54.4811V265.821H56.5871V266.318L55.3937 267.83H56.6087V268.43ZM59.9702 268.43H59.2844V268.16C59.1062 268.37 58.7984 268.494 58.4582 268.494C58.0424 268.494 57.551 268.214 57.551 267.63C57.551 267.02 58.0424 266.788 58.4582 266.788C58.8038 266.788 59.1116 266.901 59.2844 267.107V266.756C59.2844 266.491 59.0576 266.318 58.712 266.318C58.4312 266.318 58.172 266.421 57.9506 266.626L57.6914 266.167C58.01 265.886 58.4204 265.757 58.8308 265.757C59.4248 265.757 59.9702 265.994 59.9702 266.745V268.43ZM58.7336 268.03C58.955 268.03 59.171 267.954 59.2844 267.803V267.479C59.171 267.328 58.955 267.252 58.7336 267.252C58.4636 267.252 58.2422 267.393 58.2422 267.647C58.2422 267.89 58.4636 268.03 58.7336 268.03ZM62.0653 268.494C61.5847 268.494 61.3255 268.246 61.3255 267.782V266.421H60.8935V265.821H61.3255V265.109H62.0167V265.821H62.5459V266.421H62.0167V267.598C62.0167 267.76 62.1031 267.884 62.2543 267.884C62.3569 267.884 62.4541 267.846 62.4919 267.809L62.6377 268.327C62.5351 268.419 62.3515 268.494 62.0653 268.494ZM63.8953 265.541C63.6739 265.541 63.4849 265.357 63.4849 265.13C63.4849 264.903 63.6739 264.725 63.8953 264.725C64.1221 264.725 64.3057 264.903 64.3057 265.13C64.3057 265.357 64.1221 265.541 63.8953 265.541ZM64.2409 268.43H63.5551V265.821H64.2409V268.43ZM66.6705 268.494C65.8119 268.494 65.2935 267.868 65.2935 267.123C65.2935 266.383 65.8119 265.757 66.6705 265.757C67.5345 265.757 68.0529 266.383 68.0529 267.123C68.0529 267.868 67.5345 268.494 66.6705 268.494ZM66.6705 267.884C67.0971 267.884 67.3401 267.533 67.3401 267.123C67.3401 266.718 67.0971 266.367 66.6705 266.367C66.2439 266.367 66.0063 266.718 66.0063 267.123C66.0063 267.533 66.2439 267.884 66.6705 267.884ZM71.5479 268.43H70.8621V266.853C70.8621 266.491 70.6731 266.367 70.3815 266.367C70.1115 266.367 69.9009 266.518 69.7875 266.675V268.43H69.1017V265.821H69.7875V266.162C69.9549 265.962 70.2735 265.757 70.7001 265.757C71.2725 265.757 71.5479 266.081 71.5479 266.588V268.43ZM76.3321 268.494C75.2359 268.494 74.7067 267.879 74.7067 266.993V264.828H75.4843V266.966C75.4843 267.468 75.7759 267.814 76.3321 267.814C76.8883 267.814 77.1745 267.468 77.1745 266.966V264.828H77.9575V266.988C77.9575 267.884 77.4283 268.494 76.3321 268.494ZM81.637 268.43H80.9512V266.853C80.9512 266.491 80.7622 266.367 80.4706 266.367C80.2006 266.367 79.99 266.518 79.8766 266.675V268.43H79.1908V265.821H79.8766V266.162C80.044 265.962 80.3626 265.757 80.7892 265.757C81.3616 265.757 81.637 266.081 81.637 266.588V268.43ZM83.1982 265.541C82.9768 265.541 82.7878 265.357 82.7878 265.13C82.7878 264.903 82.9768 264.725 83.1982 264.725C83.425 264.725 83.6086 264.903 83.6086 265.13C83.6086 265.357 83.425 265.541 83.1982 265.541ZM83.5438 268.43H82.858V265.821H83.5438V268.43ZM85.6386 268.494C85.158 268.494 84.8988 268.246 84.8988 267.782V266.421H84.4668V265.821H84.8988V265.109H85.59V265.821H86.1192V266.421H85.59V267.598C85.59 267.76 85.6764 267.884 85.8276 267.884C85.9302 267.884 86.0274 267.846 86.0652 267.809L86.211 268.327C86.1084 268.419 85.9248 268.494 85.6386 268.494ZM90.4486 268.494C89.3524 268.494 88.8934 267.652 88.8934 266.637C88.8934 265.546 89.509 264.774 90.5728 264.774C91.0102 264.774 91.3774 264.925 91.6366 265.146L91.291 265.735C91.0966 265.551 90.8914 265.454 90.5728 265.454C90.0436 265.454 89.671 265.902 89.671 266.475C89.671 266.502 89.671 266.523 89.6764 266.55C89.8438 266.307 90.2056 266.086 90.5998 266.086C91.2478 266.086 91.8256 266.491 91.8256 267.258C91.8256 267.96 91.2694 268.494 90.4486 268.494ZM90.4054 267.814C90.8212 267.814 91.048 267.539 91.048 267.285C91.048 266.907 90.724 266.745 90.3784 266.745C90.1084 266.745 89.8492 266.869 89.6764 267.085C89.7088 267.431 89.9032 267.814 90.4054 267.814Z" fill="#45475E"/>
<path d="M35.4227 323.205C35.0339 323.205 34.8395 322.984 34.8395 322.595V320.889H34.4075V320.532H34.8395V319.82H35.2499V320.532H35.7791V320.889H35.2499V322.509C35.2499 322.703 35.3363 322.844 35.5091 322.844C35.6279 322.844 35.7305 322.79 35.7845 322.73L35.9033 323.038C35.8007 323.135 35.6549 323.205 35.4227 323.205ZM38.6084 323.205C37.5716 323.205 36.7562 322.449 36.7562 321.342C36.7562 320.235 37.5716 319.479 38.6084 319.479C39.2456 319.479 39.6884 319.782 39.9746 320.192L39.602 320.403C39.3968 320.095 39.0188 319.879 38.6084 319.879C37.82 319.879 37.2206 320.478 37.2206 321.342C37.2206 322.196 37.82 322.806 38.6084 322.806C39.0188 322.806 39.3968 322.584 39.602 322.282L39.98 322.487C39.6776 322.903 39.2456 323.205 38.6084 323.205ZM42.7328 323.205C41.669 323.205 40.9454 322.406 40.9454 321.342C40.9454 320.279 41.669 319.479 42.7328 319.479C43.7966 319.479 44.5256 320.279 44.5256 321.342C44.5256 322.406 43.7966 323.205 42.7328 323.205ZM42.7328 322.806C43.5374 322.806 44.0612 322.179 44.0612 321.342C44.0612 320.5 43.5374 319.879 42.7328 319.879C41.9228 319.879 41.4098 320.5 41.4098 321.342C41.4098 322.179 41.9228 322.806 42.7328 322.806ZM47.1805 323.929H45.6091V323.686C46.4353 323.092 46.8457 322.746 46.8457 322.395C46.8457 322.12 46.6189 322.001 46.3867 322.001C46.1221 322.001 45.8953 322.131 45.7819 322.282L45.6037 322.077C45.7819 321.85 46.0951 321.737 46.3975 321.737C46.7917 321.737 47.1697 321.931 47.1697 322.374C47.1697 322.806 46.7215 323.2 46.0843 323.664H47.1805V323.929ZM49.5603 323.205C48.7827 323.205 48.2265 322.649 48.2265 321.834C48.2265 321.078 48.7665 320.468 49.5117 320.468C50.3001 320.468 50.7645 321.083 50.7645 321.866V321.969H48.6585C48.6909 322.46 49.0311 322.871 49.5927 322.871C49.8951 322.871 50.1921 322.752 50.4027 322.536L50.5971 322.8C50.3325 323.06 49.9815 323.205 49.5603 323.205ZM50.3649 321.666C50.3595 321.283 50.1003 320.802 49.5063 320.802C48.9501 320.802 48.6747 321.272 48.6531 321.666H50.3649Z" fill="#342C61"/>
<path d="M36.3065 333.083C35.1032 333.083 34.5677 331.994 34.5677 330.91C34.5677 329.826 35.1032 328.743 36.3065 328.743C37.5035 328.743 38.0453 329.826 38.0453 330.91C38.0453 331.994 37.5035 333.083 36.3065 333.083ZM36.3065 332.29C36.905 332.29 37.1318 331.685 37.1318 330.91C37.1318 330.135 36.905 329.537 36.3065 329.537C35.7017 329.537 35.4749 330.135 35.4749 330.91C35.4749 331.685 35.7017 332.29 36.3065 332.29Z" fill="#342C61"/>
<path d="M708.752 323.205C708.363 323.205 708.168 322.984 708.168 322.595V320.889H707.736V320.532H708.168V319.82H708.579V320.532H709.108V320.889H708.579V322.509C708.579 322.703 708.665 322.844 708.838 322.844C708.957 322.844 709.059 322.79 709.113 322.73L709.232 323.038C709.13 323.135 708.984 323.205 708.752 323.205ZM711.937 323.205C710.901 323.205 710.085 322.449 710.085 321.342C710.085 320.235 710.901 319.479 711.937 319.479C712.575 319.479 713.017 319.782 713.304 320.192L712.931 320.403C712.726 320.095 712.348 319.879 711.937 319.879C711.149 319.879 710.55 320.478 710.55 321.342C710.55 322.196 711.149 322.806 711.937 322.806C712.348 322.806 712.726 322.584 712.931 322.282L713.309 322.487C713.007 322.903 712.575 323.205 711.937 323.205ZM716.062 323.205C714.998 323.205 714.274 322.406 714.274 321.342C714.274 320.279 714.998 319.479 716.062 319.479C717.126 319.479 717.855 320.279 717.855 321.342C717.855 322.406 717.126 323.205 716.062 323.205ZM716.062 322.806C716.866 322.806 717.39 322.179 717.39 321.342C717.39 320.5 716.866 319.879 716.062 319.879C715.252 319.879 714.739 320.5 714.739 321.342C714.739 322.179 715.252 322.806 716.062 322.806ZM720.509 323.929H718.938V323.686C719.764 323.092 720.175 322.746 720.175 322.395C720.175 322.12 719.948 322.001 719.716 322.001C719.451 322.001 719.224 322.131 719.111 322.282L718.933 322.077C719.111 321.85 719.424 321.737 719.726 321.737C720.121 321.737 720.499 321.931 720.499 322.374C720.499 322.806 720.05 323.2 719.413 323.664H720.509V323.929ZM722.889 323.205C722.112 323.205 721.555 322.649 721.555 321.834C721.555 321.078 722.095 320.468 722.841 320.468C723.629 320.468 724.093 321.083 724.093 321.866V321.969H721.987C722.02 322.46 722.36 322.871 722.922 322.871C723.224 322.871 723.521 322.752 723.732 322.536L723.926 322.8C723.661 323.06 723.31 323.205 722.889 323.205ZM723.694 321.666C723.688 321.283 723.429 320.802 722.835 320.802C722.279 320.802 722.004 321.272 721.982 321.666H723.694Z" fill="#342C61"/>
<path d="M708.52 333.008H707.625V329.959L706.926 330.671L706.416 330.135L707.739 328.806H708.52V333.008ZM710.864 333.083C710.133 333.083 709.604 332.844 709.245 332.453L709.743 331.83C710.026 332.126 710.417 332.29 710.858 332.29C711.356 332.29 711.639 332.006 711.639 331.666C711.639 331.294 711.362 331.042 710.883 331.042C710.537 331.042 710.253 331.143 710.001 331.382L709.377 331.219V328.806H712.263V329.593H710.272V330.62C710.474 330.419 710.814 330.267 711.198 330.267C711.91 330.267 712.546 330.778 712.546 331.628C712.546 332.523 711.878 333.083 710.864 333.083ZM714.722 333.083C713.519 333.083 712.983 331.994 712.983 330.91C712.983 329.826 713.519 328.743 714.722 328.743C715.919 328.743 716.461 329.826 716.461 330.91C716.461 331.994 715.919 333.083 714.722 333.083ZM714.722 332.29C715.321 332.29 715.548 331.685 715.548 330.91C715.548 330.135 715.321 329.537 714.722 329.537C714.117 329.537 713.891 330.135 713.891 330.91C713.891 331.685 714.117 332.29 714.722 332.29ZM718.629 333.083C717.426 333.083 716.89 331.994 716.89 330.91C716.89 329.826 717.426 328.743 718.629 328.743C719.826 328.743 720.368 329.826 720.368 330.91C720.368 331.994 719.826 333.083 718.629 333.083ZM718.629 332.29C719.228 332.29 719.454 331.685 719.454 330.91C719.454 330.135 719.228 329.537 718.629 329.537C718.024 329.537 717.797 330.135 717.797 330.91C717.797 331.685 718.024 332.29 718.629 332.29ZM722.536 333.083C721.332 333.083 720.797 331.994 720.797 330.91C720.797 329.826 721.332 328.743 722.536 328.743C723.733 328.743 724.275 329.826 724.275 330.91C724.275 331.994 723.733 333.083 722.536 333.083ZM722.536 332.29C723.134 332.29 723.361 331.685 723.361 330.91C723.361 330.135 723.134 329.537 722.536 329.537C721.931 329.537 721.704 330.135 721.704 330.91C721.704 331.685 721.931 332.29 722.536 332.29Z" fill="#342C61"/>
</svg>
