<svg width="684" height="365" viewBox="0 0 684 365" fill="none" xmlns="http://www.w3.org/2000/svg">
<g filter="url(#filter0_d_5983_5113)">
<rect opacity="0.8" x="5" y="5" width="672" height="353" rx="10" fill="#FBFBFC"/>
<path d="M76 306.473H641.093" stroke="#E0E0E0" stroke-width="0.5" stroke-dasharray="2 2"/>
<path d="M76 284.199H641.093" stroke="#E0E0E0" stroke-width="0.5" stroke-dasharray="2 2"/>
<path d="M76 261.922H641.093" stroke="#E0E0E0" stroke-width="0.5" stroke-dasharray="2 2"/>
<path d="M76 239.652H641.093" stroke="#E0E0E0" stroke-width="0.5" stroke-dasharray="2 2"/>
<path d="M76 217.379H641.093" stroke="#E0E0E0" stroke-width="0.5" stroke-dasharray="2 2"/>
<path d="M76 195.102H641.093" stroke="#E0E0E0" stroke-width="0.5" stroke-dasharray="2 2"/>
<path d="M76 172.828H641.093" stroke="#E0E0E0" stroke-width="0.5" stroke-dasharray="2 2"/>
<path d="M76 150.559H641.093" stroke="#E0E0E0" stroke-width="0.5" stroke-dasharray="2 2"/>
<path d="M76 128.285H641.093" stroke="#E0E0E0" stroke-width="0.5" stroke-dasharray="2 2"/>
<path d="M76 106.008H641.093" stroke="#E0E0E0" stroke-width="0.5" stroke-dasharray="2 2"/>
<path d="M76 83.7344H641.093" stroke="#E0E0E0" stroke-width="0.5" stroke-dasharray="2 2"/>
<path d="M76 83.7344V306.471" stroke="#E0E0E0" stroke-width="0.5" stroke-dasharray="2 2"/>
<path d="M92.6215 83.7344V306.471" stroke="#E0E0E0" stroke-width="0.5" stroke-dasharray="2 2"/>
<path d="M109.241 83.7344V306.471" stroke="#E0E0E0" stroke-width="0.5" stroke-dasharray="2 2"/>
<path d="M125.862 83.7344V306.471" stroke="#E0E0E0" stroke-width="0.5" stroke-dasharray="2 2"/>
<path d="M142.482 83.7344V306.471" stroke="#E0E0E0" stroke-width="0.5" stroke-dasharray="2 2"/>
<path d="M159.102 83.7344V306.471" stroke="#E0E0E0" stroke-width="0.5" stroke-dasharray="2 2"/>
<path d="M175.723 83.7344V306.471" stroke="#E0E0E0" stroke-width="0.5" stroke-dasharray="2 2"/>
<path d="M192.343 83.7344V306.471" stroke="#E0E0E0" stroke-width="0.5" stroke-dasharray="2 2"/>
<path d="M208.963 83.7344V306.471" stroke="#E0E0E0" stroke-width="0.5" stroke-dasharray="2 2"/>
<path d="M225.585 83.7344V306.471" stroke="#E0E0E0" stroke-width="0.5" stroke-dasharray="2 2"/>
<path d="M242.205 83.7344V306.471" stroke="#E0E0E0" stroke-width="0.5" stroke-dasharray="2 2"/>
<path d="M258.825 83.7344V306.471" stroke="#E0E0E0" stroke-width="0.5" stroke-dasharray="2 2"/>
<path d="M275.445 83.7344V306.471" stroke="#E0E0E0" stroke-width="0.5" stroke-dasharray="2 2"/>
<path d="M292.066 83.7344V306.471" stroke="#E0E0E0" stroke-width="0.5" stroke-dasharray="2 2"/>
<path d="M308.686 83.7344V306.471" stroke="#E0E0E0" stroke-width="0.5" stroke-dasharray="2 2"/>
<path d="M325.306 83.7344V306.471" stroke="#E0E0E0" stroke-width="0.5" stroke-dasharray="2 2"/>
<path d="M341.926 83.7344V306.471" stroke="#E0E0E0" stroke-width="0.5" stroke-dasharray="2 2"/>
<path d="M358.547 83.7344V306.471" stroke="#E0E0E0" stroke-width="0.5" stroke-dasharray="2 2"/>
<path d="M375.168 83.7344V306.471" stroke="#E0E0E0" stroke-width="0.5" stroke-dasharray="2 2"/>
<path d="M391.787 83.7344V306.471" stroke="#E0E0E0" stroke-width="0.5" stroke-dasharray="2 2"/>
<path d="M408.408 83.7344V306.471" stroke="#E0E0E0" stroke-width="0.5" stroke-dasharray="2 2"/>
<path d="M425.028 83.7344V306.471" stroke="#E0E0E0" stroke-width="0.5" stroke-dasharray="2 2"/>
<path d="M441.648 83.7344V306.471" stroke="#E0E0E0" stroke-width="0.5" stroke-dasharray="2 2"/>
<path d="M458.269 83.7344V306.471" stroke="#E0E0E0" stroke-width="0.5" stroke-dasharray="2 2"/>
<path d="M474.889 83.7344V306.471" stroke="#E0E0E0" stroke-width="0.5" stroke-dasharray="2 2"/>
<path d="M491.51 83.7344V306.471" stroke="#E0E0E0" stroke-width="0.5" stroke-dasharray="2 2"/>
<path d="M508.131 83.7344V306.471" stroke="#E0E0E0" stroke-width="0.5" stroke-dasharray="2 2"/>
<path d="M524.75 83.7344V306.471" stroke="#E0E0E0" stroke-width="0.5" stroke-dasharray="2 2"/>
<path d="M541.372 83.7344V306.471" stroke="#E0E0E0" stroke-width="0.5" stroke-dasharray="2 2"/>
<path d="M557.992 83.7344V306.471" stroke="#E0E0E0" stroke-width="0.5" stroke-dasharray="2 2"/>
<path d="M574.612 83.7344V306.471" stroke="#E0E0E0" stroke-width="0.5" stroke-dasharray="2 2"/>
<path d="M591.232 83.7344V306.471" stroke="#E0E0E0" stroke-width="0.5" stroke-dasharray="2 2"/>
<path d="M607.852 83.7344V306.471" stroke="#E0E0E0" stroke-width="0.5" stroke-dasharray="2 2"/>
<path d="M624.473 83.7344V306.471" stroke="#E0E0E0" stroke-width="0.5" stroke-dasharray="2 2"/>
<path d="M641.094 83.7344V306.471" stroke="#E0E0E0" stroke-width="0.5" stroke-dasharray="2 2"/>
<path d="M70.6152 325.523H66.0352V324.853C68.4352 322.973 69.7452 321.863 69.7452 320.713C69.7452 319.853 69.0352 319.493 68.3452 319.493C67.5452 319.493 66.9252 319.833 66.5352 320.333L66.0252 319.803C66.5352 319.123 67.4052 318.753 68.3452 318.753C69.4552 318.753 70.5852 319.383 70.5852 320.713C70.5852 322.073 69.2052 323.313 67.3452 324.783H70.6152V325.523ZM74.4341 325.643C72.6041 325.643 71.8841 323.813 71.8841 322.193C71.8841 320.563 72.6041 318.753 74.4341 318.753C76.2541 318.753 76.9841 320.563 76.9841 322.193C76.9841 323.813 76.2541 325.643 74.4341 325.643ZM74.4341 324.903C75.7041 324.903 76.1341 323.523 76.1341 322.193C76.1341 320.863 75.7041 319.493 74.4341 319.493C73.1641 319.493 72.7341 320.863 72.7341 322.193C72.7341 323.523 73.1641 324.903 74.4341 324.903ZM82.6172 325.523H78.0372V324.853C80.4372 322.973 81.7472 321.863 81.7472 320.713C81.7472 319.853 81.0372 319.493 80.3472 319.493C79.5472 319.493 78.9272 319.833 78.5372 320.333L78.0272 319.803C78.5372 319.123 79.4072 318.753 80.3472 318.753C81.4572 318.753 82.5872 319.383 82.5872 320.713C82.5872 322.073 81.2072 323.313 79.3472 324.783H82.6172V325.523ZM86.3861 325.643C85.2661 325.643 84.5361 325.233 84.0361 324.573L84.5461 324.013C84.9861 324.583 85.5761 324.903 86.3861 324.903C87.2961 324.903 87.9261 324.283 87.9261 323.473C87.9261 322.593 87.2961 322.033 86.3961 322.033C85.8161 322.033 85.3061 322.223 84.8561 322.653L84.2461 322.443V318.853H88.3261V319.593H85.0761V321.913C85.4061 321.593 85.9661 321.313 86.6361 321.313C87.7561 321.313 88.7661 322.063 88.7661 323.443C88.7661 324.793 87.7261 325.643 86.3861 325.643Z" fill="black"/>
<path d="M123.51 325.523H118.93V324.853C121.33 322.973 122.64 321.863 122.64 320.713C122.64 319.853 121.93 319.493 121.24 319.493C120.44 319.493 119.82 319.833 119.43 320.333L118.92 319.803C119.43 319.123 120.3 318.753 121.24 318.753C122.35 318.753 123.48 319.383 123.48 320.713C123.48 322.073 122.1 323.313 120.24 324.783H123.51V325.523ZM127.329 325.643C125.499 325.643 124.779 323.813 124.779 322.193C124.779 320.563 125.499 318.753 127.329 318.753C129.149 318.753 129.879 320.563 129.879 322.193C129.879 323.813 129.149 325.643 127.329 325.643ZM127.329 324.903C128.599 324.903 129.029 323.523 129.029 322.193C129.029 320.863 128.599 319.493 127.329 319.493C126.059 319.493 125.629 320.863 125.629 322.193C125.629 323.523 126.059 324.903 127.329 324.903ZM133.052 325.643C131.922 325.643 131.092 325.143 130.682 324.543L131.172 324.023C131.562 324.543 132.242 324.903 133.032 324.903C134.002 324.903 134.592 324.413 134.592 323.653C134.592 322.823 133.912 322.473 132.932 322.473C132.652 322.473 132.342 322.473 132.242 322.483V321.723C132.352 321.733 132.662 321.733 132.932 321.733C133.772 321.733 134.482 321.403 134.482 320.633C134.482 319.893 133.802 319.493 132.992 319.493C132.262 319.493 131.722 319.773 131.232 320.303L130.772 319.783C131.252 319.193 132.022 318.753 133.062 318.753C134.342 318.753 135.312 319.403 135.312 320.523C135.312 321.493 134.502 321.973 133.882 322.073C134.482 322.133 135.422 322.643 135.422 323.723C135.422 324.833 134.522 325.643 133.052 325.643ZM139.018 325.643C137.188 325.643 136.468 323.813 136.468 322.193C136.468 320.563 137.188 318.753 139.018 318.753C140.838 318.753 141.568 320.563 141.568 322.193C141.568 323.813 140.838 325.643 139.018 325.643ZM139.018 324.903C140.288 324.903 140.718 323.523 140.718 322.193C140.718 320.863 140.288 319.493 139.018 319.493C137.748 319.493 137.318 320.863 137.318 322.193C137.318 323.523 137.748 324.903 139.018 324.903Z" fill="black"/>
<path d="M178.543 325.523H173.963V324.853C176.363 322.973 177.673 321.863 177.673 320.713C177.673 319.853 176.963 319.493 176.273 319.493C175.473 319.493 174.853 319.833 174.463 320.333L173.953 319.803C174.463 319.123 175.333 318.753 176.273 318.753C177.383 318.753 178.513 319.383 178.513 320.713C178.513 322.073 177.133 323.313 175.273 324.783H178.543V325.523ZM182.362 325.643C180.532 325.643 179.812 323.813 179.812 322.193C179.812 320.563 180.532 318.753 182.362 318.753C184.182 318.753 184.912 320.563 184.912 322.193C184.912 323.813 184.182 325.643 182.362 325.643ZM182.362 324.903C183.632 324.903 184.062 323.523 184.062 322.193C184.062 320.863 183.632 319.493 182.362 319.493C181.092 319.493 180.662 320.863 180.662 322.193C180.662 323.523 181.092 324.903 182.362 324.903ZM188.085 325.643C186.955 325.643 186.125 325.143 185.715 324.543L186.205 324.023C186.595 324.543 187.275 324.903 188.065 324.903C189.035 324.903 189.625 324.413 189.625 323.653C189.625 322.823 188.945 322.473 187.965 322.473C187.685 322.473 187.375 322.473 187.275 322.483V321.723C187.385 321.733 187.695 321.733 187.965 321.733C188.805 321.733 189.515 321.403 189.515 320.633C189.515 319.893 188.835 319.493 188.025 319.493C187.295 319.493 186.755 319.773 186.265 320.303L185.805 319.783C186.285 319.193 187.055 318.753 188.095 318.753C189.375 318.753 190.345 319.403 190.345 320.523C190.345 321.493 189.535 321.973 188.915 322.073C189.515 322.133 190.455 322.643 190.455 323.723C190.455 324.833 189.555 325.643 188.085 325.643ZM194.001 325.643C192.881 325.643 192.151 325.233 191.651 324.573L192.161 324.013C192.601 324.583 193.191 324.903 194.001 324.903C194.911 324.903 195.541 324.283 195.541 323.473C195.541 322.593 194.911 322.033 194.011 322.033C193.431 322.033 192.921 322.223 192.471 322.653L191.861 322.443V318.853H195.941V319.593H192.691V321.913C193.021 321.593 193.581 321.313 194.251 321.313C195.371 321.313 196.381 322.063 196.381 323.443C196.381 324.793 195.341 325.643 194.001 325.643Z" fill="black"/>
<path d="M234.166 325.523H229.586V324.853C231.986 322.973 233.296 321.863 233.296 320.713C233.296 319.853 232.586 319.493 231.896 319.493C231.096 319.493 230.476 319.833 230.086 320.333L229.576 319.803C230.086 319.123 230.956 318.753 231.896 318.753C233.006 318.753 234.136 319.383 234.136 320.713C234.136 322.073 232.756 323.313 230.896 324.783H234.166V325.523ZM237.985 325.643C236.155 325.643 235.435 323.813 235.435 322.193C235.435 320.563 236.155 318.753 237.985 318.753C239.805 318.753 240.535 320.563 240.535 322.193C240.535 323.813 239.805 325.643 237.985 325.643ZM237.985 324.903C239.255 324.903 239.685 323.523 239.685 322.193C239.685 320.863 239.255 319.493 237.985 319.493C236.715 319.493 236.285 320.863 236.285 322.193C236.285 323.523 236.715 324.903 237.985 324.903ZM245.368 325.523H244.538V323.833H241.368V323.143L244.228 318.853H245.368V323.103H246.308V323.833H245.368V325.523ZM244.538 323.103V319.623L242.198 323.103H244.538ZM249.684 325.643C247.854 325.643 247.134 323.813 247.134 322.193C247.134 320.563 247.854 318.753 249.684 318.753C251.504 318.753 252.234 320.563 252.234 322.193C252.234 323.813 251.504 325.643 249.684 325.643ZM249.684 324.903C250.954 324.903 251.384 323.523 251.384 322.193C251.384 320.863 250.954 319.493 249.684 319.493C248.414 319.493 247.984 320.863 247.984 322.193C247.984 323.523 248.414 324.903 249.684 324.903Z" fill="black"/>
<path d="M290.199 325.523H285.619V324.853C288.019 322.973 289.329 321.863 289.329 320.713C289.329 319.853 288.619 319.493 287.929 319.493C287.129 319.493 286.509 319.833 286.119 320.333L285.609 319.803C286.119 319.123 286.989 318.753 287.929 318.753C289.039 318.753 290.169 319.383 290.169 320.713C290.169 322.073 288.789 323.313 286.929 324.783H290.199V325.523ZM294.018 325.643C292.188 325.643 291.468 323.813 291.468 322.193C291.468 320.563 292.188 318.753 294.018 318.753C295.838 318.753 296.568 320.563 296.568 322.193C296.568 323.813 295.838 325.643 294.018 325.643ZM294.018 324.903C295.288 324.903 295.718 323.523 295.718 322.193C295.718 320.863 295.288 319.493 294.018 319.493C292.748 319.493 292.318 320.863 292.318 322.193C292.318 323.523 292.748 324.903 294.018 324.903ZM301.401 325.523H300.571V323.833H297.401V323.143L300.261 318.853H301.401V323.103H302.341V323.833H301.401V325.523ZM300.571 323.103V319.623L298.231 323.103H300.571ZM305.667 325.643C304.547 325.643 303.817 325.233 303.317 324.573L303.827 324.013C304.267 324.583 304.857 324.903 305.667 324.903C306.577 324.903 307.207 324.283 307.207 323.473C307.207 322.593 306.577 322.033 305.677 322.033C305.097 322.033 304.587 322.223 304.137 322.653L303.527 322.443V318.853H307.607V319.593H304.357V321.913C304.687 321.593 305.247 321.313 305.917 321.313C307.037 321.313 308.047 322.063 308.047 323.443C308.047 324.793 307.007 325.643 305.667 325.643Z" fill="black"/>
<path d="M346.166 325.523H341.586V324.853C343.986 322.973 345.296 321.863 345.296 320.713C345.296 319.853 344.586 319.493 343.896 319.493C343.096 319.493 342.476 319.833 342.086 320.333L341.576 319.803C342.086 319.123 342.956 318.753 343.896 318.753C345.006 318.753 346.136 319.383 346.136 320.713C346.136 322.073 344.756 323.313 342.896 324.783H346.166V325.523ZM349.985 325.643C348.155 325.643 347.435 323.813 347.435 322.193C347.435 320.563 348.155 318.753 349.985 318.753C351.805 318.753 352.535 320.563 352.535 322.193C352.535 323.813 351.805 325.643 349.985 325.643ZM349.985 324.903C351.255 324.903 351.685 323.523 351.685 322.193C351.685 320.863 351.255 319.493 349.985 319.493C348.715 319.493 348.285 320.863 348.285 322.193C348.285 323.523 348.715 324.903 349.985 324.903ZM356.058 325.643C354.938 325.643 354.208 325.233 353.708 324.573L354.218 324.013C354.658 324.583 355.248 324.903 356.058 324.903C356.968 324.903 357.598 324.283 357.598 323.473C357.598 322.593 356.968 322.033 356.068 322.033C355.488 322.033 354.978 322.223 354.528 322.653L353.918 322.443V318.853H357.998V319.593H354.748V321.913C355.078 321.593 355.638 321.313 356.308 321.313C357.428 321.313 358.438 322.063 358.438 323.443C358.438 324.793 357.398 325.643 356.058 325.643ZM362.006 325.643C360.176 325.643 359.456 323.813 359.456 322.193C359.456 320.563 360.176 318.753 362.006 318.753C363.826 318.753 364.556 320.563 364.556 322.193C364.556 323.813 363.826 325.643 362.006 325.643ZM362.006 324.903C363.276 324.903 363.706 323.523 363.706 322.193C363.706 320.863 363.276 319.493 362.006 319.493C360.736 319.493 360.306 320.863 360.306 322.193C360.306 323.523 360.736 324.903 362.006 324.903Z" fill="black"/>
<path d="M401.519 325.523H396.939V324.853C399.339 322.973 400.649 321.863 400.649 320.713C400.649 319.853 399.939 319.493 399.249 319.493C398.449 319.493 397.829 319.833 397.439 320.333L396.929 319.803C397.439 319.123 398.309 318.753 399.249 318.753C400.359 318.753 401.489 319.383 401.489 320.713C401.489 322.073 400.109 323.313 398.249 324.783H401.519V325.523ZM405.338 325.643C403.508 325.643 402.788 323.813 402.788 322.193C402.788 320.563 403.508 318.753 405.338 318.753C407.158 318.753 407.888 320.563 407.888 322.193C407.888 323.813 407.158 325.643 405.338 325.643ZM405.338 324.903C406.608 324.903 407.038 323.523 407.038 322.193C407.038 320.863 406.608 319.493 405.338 319.493C404.068 319.493 403.638 320.863 403.638 322.193C403.638 323.523 404.068 324.903 405.338 324.903ZM411.411 325.643C410.291 325.643 409.561 325.233 409.061 324.573L409.571 324.013C410.011 324.583 410.601 324.903 411.411 324.903C412.321 324.903 412.951 324.283 412.951 323.473C412.951 322.593 412.321 322.033 411.421 322.033C410.841 322.033 410.331 322.223 409.881 322.653L409.271 322.443V318.853H413.351V319.593H410.101V321.913C410.431 321.593 410.991 321.313 411.661 321.313C412.781 321.313 413.791 322.063 413.791 323.443C413.791 324.793 412.751 325.643 411.411 325.643ZM417.309 325.643C416.189 325.643 415.459 325.233 414.959 324.573L415.469 324.013C415.909 324.583 416.499 324.903 417.309 324.903C418.219 324.903 418.849 324.283 418.849 323.473C418.849 322.593 418.219 322.033 417.319 322.033C416.739 322.033 416.229 322.223 415.779 322.653L415.169 322.443V318.853H419.249V319.593H415.999V321.913C416.329 321.593 416.889 321.313 417.559 321.313C418.679 321.313 419.689 322.063 419.689 323.443C419.689 324.793 418.649 325.643 417.309 325.643Z" fill="black"/>
<path d="M457.642 325.523H453.062V324.853C455.462 322.973 456.772 321.863 456.772 320.713C456.772 319.853 456.062 319.493 455.372 319.493C454.572 319.493 453.952 319.833 453.562 320.333L453.052 319.803C453.562 319.123 454.432 318.753 455.372 318.753C456.482 318.753 457.612 319.383 457.612 320.713C457.612 322.073 456.232 323.313 454.372 324.783H457.642V325.523ZM461.461 325.643C459.631 325.643 458.911 323.813 458.911 322.193C458.911 320.563 459.631 318.753 461.461 318.753C463.281 318.753 464.011 320.563 464.011 322.193C464.011 323.813 463.281 325.643 461.461 325.643ZM461.461 324.903C462.731 324.903 463.161 323.523 463.161 322.193C463.161 320.863 462.731 319.493 461.461 319.493C460.191 319.493 459.761 320.863 459.761 322.193C459.761 323.523 460.191 324.903 461.461 324.903ZM467.614 325.643C465.744 325.643 465.034 324.013 465.034 322.193C465.034 320.393 465.874 318.753 467.754 318.753C468.604 318.753 469.184 319.073 469.594 319.553L469.174 320.173C468.834 319.773 468.444 319.493 467.754 319.493C466.454 319.493 465.874 320.803 465.874 322.113C465.874 322.203 465.874 322.283 465.874 322.373C466.164 321.913 466.904 321.333 467.764 321.333C468.964 321.333 469.944 322.043 469.944 323.463C469.944 324.613 469.064 325.643 467.614 325.643ZM467.574 324.903C468.604 324.903 469.104 324.123 469.104 323.493C469.104 322.513 468.424 322.053 467.574 322.053C466.904 322.053 466.264 322.463 465.904 323.043C465.974 323.873 466.414 324.903 467.574 324.903ZM473.492 325.643C471.662 325.643 470.942 323.813 470.942 322.193C470.942 320.563 471.662 318.753 473.492 318.753C475.312 318.753 476.042 320.563 476.042 322.193C476.042 323.813 475.312 325.643 473.492 325.643ZM473.492 324.903C474.762 324.903 475.192 323.523 475.192 322.193C475.192 320.863 474.762 319.493 473.492 319.493C472.222 319.493 471.792 320.863 471.792 322.193C471.792 323.523 472.222 324.903 473.492 324.903Z" fill="black"/>
<path d="M512.814 325.523H508.234V324.853C510.634 322.973 511.944 321.863 511.944 320.713C511.944 319.853 511.234 319.493 510.544 319.493C509.744 319.493 509.124 319.833 508.734 320.333L508.224 319.803C508.734 319.123 509.604 318.753 510.544 318.753C511.654 318.753 512.784 319.383 512.784 320.713C512.784 322.073 511.404 323.313 509.544 324.783H512.814V325.523ZM516.633 325.643C514.803 325.643 514.083 323.813 514.083 322.193C514.083 320.563 514.803 318.753 516.633 318.753C518.453 318.753 519.183 320.563 519.183 322.193C519.183 323.813 518.453 325.643 516.633 325.643ZM516.633 324.903C517.903 324.903 518.333 323.523 518.333 322.193C518.333 320.863 517.903 319.493 516.633 319.493C515.363 319.493 514.933 320.863 514.933 322.193C514.933 323.523 515.363 324.903 516.633 324.903ZM522.786 325.643C520.916 325.643 520.206 324.013 520.206 322.193C520.206 320.393 521.046 318.753 522.926 318.753C523.776 318.753 524.356 319.073 524.766 319.553L524.346 320.173C524.006 319.773 523.616 319.493 522.926 319.493C521.626 319.493 521.046 320.803 521.046 322.113C521.046 322.203 521.046 322.283 521.046 322.373C521.336 321.913 522.076 321.333 522.936 321.333C524.136 321.333 525.116 322.043 525.116 323.463C525.116 324.613 524.236 325.643 522.786 325.643ZM522.746 324.903C523.776 324.903 524.276 324.123 524.276 323.493C524.276 322.513 523.596 322.053 522.746 322.053C522.076 322.053 521.436 322.463 521.076 323.043C521.146 323.873 521.586 324.903 522.746 324.903ZM528.614 325.643C527.494 325.643 526.764 325.233 526.264 324.573L526.774 324.013C527.214 324.583 527.804 324.903 528.614 324.903C529.524 324.903 530.154 324.283 530.154 323.473C530.154 322.593 529.524 322.033 528.624 322.033C528.044 322.033 527.534 322.223 527.084 322.653L526.474 322.443V318.853H530.554V319.593H527.304V321.913C527.634 321.593 528.194 321.313 528.864 321.313C529.984 321.313 530.994 322.063 530.994 323.443C530.994 324.793 529.954 325.643 528.614 325.643Z" fill="black"/>
<path d="M622.333 325.523H617.753V324.853C620.153 322.973 621.463 321.863 621.463 320.713C621.463 319.853 620.753 319.493 620.063 319.493C619.263 319.493 618.643 319.833 618.253 320.333L617.743 319.803C618.253 319.123 619.123 318.753 620.063 318.753C621.173 318.753 622.303 319.383 622.303 320.713C622.303 322.073 620.923 323.313 619.063 324.783H622.333V325.523ZM626.152 325.643C624.322 325.643 623.602 323.813 623.602 322.193C623.602 320.563 624.322 318.753 626.152 318.753C627.972 318.753 628.702 320.563 628.702 322.193C628.702 323.813 627.972 325.643 626.152 325.643ZM626.152 324.903C627.422 324.903 627.852 323.523 627.852 322.193C627.852 320.863 627.422 319.493 626.152 319.493C624.882 319.493 624.452 320.863 624.452 322.193C624.452 323.523 624.882 324.903 626.152 324.903ZM631.345 325.523H630.425L633.115 319.593H629.525V318.853H634.075V319.423L631.345 325.523ZM637.371 325.643C636.251 325.643 635.521 325.233 635.021 324.573L635.531 324.013C635.971 324.583 636.561 324.903 637.371 324.903C638.281 324.903 638.911 324.283 638.911 323.473C638.911 322.593 638.281 322.033 637.381 322.033C636.801 322.033 636.291 322.223 635.841 322.653L635.231 322.443V318.853H639.311V319.593H636.061V321.913C636.391 321.593 636.951 321.313 637.621 321.313C638.741 321.313 639.751 322.063 639.751 323.443C639.751 324.793 638.711 325.643 637.371 325.643Z" fill="black"/>
<path d="M568.004 325.523H563.424V324.853C565.824 322.973 567.134 321.863 567.134 320.713C567.134 319.853 566.424 319.493 565.734 319.493C564.934 319.493 564.314 319.833 563.924 320.333L563.414 319.803C563.924 319.123 564.794 318.753 565.734 318.753C566.844 318.753 567.974 319.383 567.974 320.713C567.974 322.073 566.594 323.313 564.734 324.783H568.004V325.523ZM571.822 325.643C569.992 325.643 569.272 323.813 569.272 322.193C569.272 320.563 569.992 318.753 571.822 318.753C573.642 318.753 574.372 320.563 574.372 322.193C574.372 323.813 573.642 325.643 571.822 325.643ZM571.822 324.903C573.092 324.903 573.522 323.523 573.522 322.193C573.522 320.863 573.092 319.493 571.822 319.493C570.552 319.493 570.122 320.863 570.122 322.193C570.122 323.523 570.552 324.903 571.822 324.903ZM577.015 325.523H576.095L578.785 319.593H575.195V318.853H579.745V319.423L577.015 325.523ZM583.092 325.643C581.262 325.643 580.542 323.813 580.542 322.193C580.542 320.563 581.262 318.753 583.092 318.753C584.912 318.753 585.642 320.563 585.642 322.193C585.642 323.813 584.912 325.643 583.092 325.643ZM583.092 324.903C584.362 324.903 584.792 323.523 584.792 322.193C584.792 320.863 584.362 319.493 583.092 319.493C581.822 319.493 581.392 320.863 581.392 322.193C581.392 323.523 581.822 324.903 583.092 324.903Z" fill="black"/>
<path d="M60.5265 306.819C58.6965 306.819 57.9765 304.989 57.9765 303.369C57.9765 301.739 58.6965 299.929 60.5265 299.929C62.3465 299.929 63.0765 301.739 63.0765 303.369C63.0765 304.989 62.3465 306.819 60.5265 306.819ZM60.5265 306.079C61.7965 306.079 62.2265 304.699 62.2265 303.369C62.2265 302.039 61.7965 300.669 60.5265 300.669C59.2565 300.669 58.8265 302.039 58.8265 303.369C58.8265 304.699 59.2565 306.079 60.5265 306.079Z" fill="black"/>
<path d="M54.9406 284.206C53.8206 284.206 53.0906 283.796 52.5906 283.136L53.1006 282.576C53.5406 283.146 54.1306 283.466 54.9406 283.466C55.8506 283.466 56.4806 282.846 56.4806 282.036C56.4806 281.156 55.8506 280.596 54.9506 280.596C54.3706 280.596 53.8606 280.786 53.4106 281.216L52.8006 281.006V277.416H56.8806V278.156H53.6306V280.476C53.9606 280.156 54.5206 279.876 55.1906 279.876C56.3106 279.876 57.3206 280.626 57.3206 282.006C57.3206 283.356 56.2806 284.206 54.9406 284.206ZM60.889 284.206C59.059 284.206 58.339 282.376 58.339 280.756C58.339 279.126 59.059 277.316 60.889 277.316C62.709 277.316 63.439 279.126 63.439 280.756C63.439 282.376 62.709 284.206 60.889 284.206ZM60.889 283.466C62.159 283.466 62.589 282.086 62.589 280.756C62.589 279.426 62.159 278.056 60.889 278.056C59.619 278.056 59.189 279.426 59.189 280.756C59.189 282.086 59.619 283.466 60.889 283.466Z" fill="black"/>
<path d="M50.6086 261.465H49.7786V255.885L48.7086 257.025L48.2086 256.515L49.8786 254.795H50.6086V261.465ZM54.4472 261.585C52.6172 261.585 51.8972 259.755 51.8972 258.135C51.8972 256.505 52.6172 254.695 54.4472 254.695C56.2672 254.695 56.9972 256.505 56.9972 258.135C56.9972 259.755 56.2672 261.585 54.4472 261.585ZM54.4472 260.845C55.7172 260.845 56.1472 259.465 56.1472 258.135C56.1472 256.805 55.7172 255.435 54.4472 255.435C53.1772 255.435 52.7472 256.805 52.7472 258.135C52.7472 259.465 53.1772 260.845 54.4472 260.845ZM60.5703 261.585C58.7403 261.585 58.0203 259.755 58.0203 258.135C58.0203 256.505 58.7403 254.695 60.5703 254.695C62.3903 254.695 63.1203 256.505 63.1203 258.135C63.1203 259.755 62.3903 261.585 60.5703 261.585ZM60.5703 260.845C61.8403 260.845 62.2703 259.465 62.2703 258.135C62.2703 256.805 61.8403 255.435 60.5703 255.435C59.3003 255.435 58.8703 256.805 58.8703 258.135C58.8703 259.465 59.3003 260.845 60.5703 260.845Z" fill="black"/>
<path d="M50.8332 238.852H50.0032V233.272L48.9332 234.412L48.4332 233.902L50.1032 232.182H50.8332V238.852ZM54.6218 238.972C53.5018 238.972 52.7718 238.562 52.2718 237.902L52.7818 237.342C53.2218 237.912 53.8118 238.232 54.6218 238.232C55.5318 238.232 56.1618 237.612 56.1618 236.802C56.1618 235.922 55.5318 235.362 54.6318 235.362C54.0518 235.362 53.5418 235.552 53.0918 235.982L52.4818 235.772V232.182H56.5618V232.922H53.3118V235.242C53.6418 234.922 54.2018 234.642 54.8718 234.642C55.9918 234.642 57.0018 235.392 57.0018 236.772C57.0018 238.122 55.9618 238.972 54.6218 238.972ZM60.5703 238.972C58.7403 238.972 58.0203 237.142 58.0203 235.522C58.0203 233.892 58.7403 232.082 60.5703 232.082C62.3903 232.082 63.1203 233.892 63.1203 235.522C63.1203 237.142 62.3903 238.972 60.5703 238.972ZM60.5703 238.232C61.8403 238.232 62.2703 236.852 62.2703 235.522C62.2703 234.192 61.8403 232.822 60.5703 232.822C59.3003 232.822 58.8703 234.192 58.8703 235.522C58.8703 236.852 59.3003 238.232 60.5703 238.232Z" fill="black"/>
<path d="M51.3096 216.234H46.7296V215.564C49.1296 213.684 50.4396 212.574 50.4396 211.424C50.4396 210.564 49.7296 210.204 49.0396 210.204C48.2396 210.204 47.6196 210.544 47.2296 211.044L46.7196 210.514C47.2296 209.834 48.0996 209.464 49.0396 209.464C50.1496 209.464 51.2796 210.094 51.2796 211.424C51.2796 212.784 49.8996 214.024 48.0396 215.494H51.3096V216.234ZM55.1285 216.354C53.2985 216.354 52.5785 214.524 52.5785 212.904C52.5785 211.274 53.2985 209.464 55.1285 209.464C56.9485 209.464 57.6785 211.274 57.6785 212.904C57.6785 214.524 56.9485 216.354 55.1285 216.354ZM55.1285 215.614C56.3985 215.614 56.8285 214.234 56.8285 212.904C56.8285 211.574 56.3985 210.204 55.1285 210.204C53.8585 210.204 53.4285 211.574 53.4285 212.904C53.4285 214.234 53.8585 215.614 55.1285 215.614ZM61.2515 216.354C59.4215 216.354 58.7015 214.524 58.7015 212.904C58.7015 211.274 59.4215 209.464 61.2515 209.464C63.0715 209.464 63.8015 211.274 63.8015 212.904C63.8015 214.524 63.0715 216.354 61.2515 216.354ZM61.2515 215.614C62.5215 215.614 62.9515 214.234 62.9515 212.904C62.9515 211.574 62.5215 210.204 61.2515 210.204C59.9815 210.204 59.5515 211.574 59.5515 212.904C59.5515 214.234 59.9815 215.614 61.2515 215.614Z" fill="black"/>
<path d="M51.3071 193.617H46.7271V192.947C49.1271 191.067 50.4371 189.957 50.4371 188.807C50.4371 187.947 49.7271 187.587 49.0371 187.587C48.2371 187.587 47.6171 187.927 47.2271 188.427L46.7171 187.897C47.2271 187.217 48.0971 186.847 49.0371 186.847C50.1471 186.847 51.2771 187.477 51.2771 188.807C51.2771 190.167 49.8971 191.407 48.0371 192.877H51.3071V193.617ZM55.076 193.737C53.956 193.737 53.226 193.327 52.726 192.667L53.236 192.107C53.676 192.677 54.266 192.997 55.076 192.997C55.986 192.997 56.616 192.377 56.616 191.567C56.616 190.687 55.986 190.127 55.086 190.127C54.506 190.127 53.996 190.317 53.546 190.747L52.936 190.537V186.947H57.016V187.687H53.766V190.007C54.096 189.687 54.656 189.407 55.326 189.407C56.446 189.407 57.456 190.157 57.456 191.537C57.456 192.887 56.416 193.737 55.076 193.737ZM61.0245 193.737C59.1945 193.737 58.4745 191.907 58.4745 190.287C58.4745 188.657 59.1945 186.847 61.0245 186.847C62.8445 186.847 63.5745 188.657 63.5745 190.287C63.5745 191.907 62.8445 193.737 61.0245 193.737ZM61.0245 192.997C62.2945 192.997 62.7245 191.617 62.7245 190.287C62.7245 188.957 62.2945 187.587 61.0245 187.587C59.7545 187.587 59.3245 188.957 59.3245 190.287C59.3245 191.617 59.7545 192.997 61.0245 192.997Z" fill="black"/>
<path d="M48.935 171.12C47.805 171.12 46.975 170.62 46.565 170.02L47.055 169.5C47.445 170.02 48.125 170.38 48.915 170.38C49.885 170.38 50.475 169.89 50.475 169.13C50.475 168.3 49.795 167.95 48.815 167.95C48.535 167.95 48.225 167.95 48.125 167.96V167.2C48.235 167.21 48.545 167.21 48.815 167.21C49.655 167.21 50.365 166.88 50.365 166.11C50.365 165.37 49.685 164.97 48.875 164.97C48.145 164.97 47.605 165.25 47.115 165.78L46.655 165.26C47.135 164.67 47.905 164.23 48.945 164.23C50.225 164.23 51.195 164.88 51.195 166C51.195 166.97 50.385 167.45 49.765 167.55C50.365 167.61 51.305 168.12 51.305 169.2C51.305 170.31 50.405 171.12 48.935 171.12ZM54.9014 171.12C53.0714 171.12 52.3514 169.29 52.3514 167.67C52.3514 166.04 53.0714 164.23 54.9014 164.23C56.7214 164.23 57.4514 166.04 57.4514 167.67C57.4514 169.29 56.7214 171.12 54.9014 171.12ZM54.9014 170.38C56.1714 170.38 56.6014 169 56.6014 167.67C56.6014 166.34 56.1714 164.97 54.9014 164.97C53.6314 164.97 53.2014 166.34 53.2014 167.67C53.2014 169 53.6314 170.38 54.9014 170.38ZM61.0245 171.12C59.1945 171.12 58.4745 169.29 58.4745 167.67C58.4745 166.04 59.1945 164.23 61.0245 164.23C62.8445 164.23 63.5745 166.04 63.5745 167.67C63.5745 169.29 62.8445 171.12 61.0245 171.12ZM61.0245 170.38C62.2945 170.38 62.7245 169 62.7245 167.67C62.7245 166.34 62.2945 164.97 61.0245 164.97C59.7545 164.97 59.3245 166.34 59.3245 167.67C59.3245 169 59.7545 170.38 61.0245 170.38Z" fill="black"/>
<path d="M49.1596 148.507C48.0296 148.507 47.1996 148.007 46.7896 147.407L47.2796 146.887C47.6696 147.407 48.3496 147.767 49.1396 147.767C50.1096 147.767 50.6996 147.277 50.6996 146.517C50.6996 145.687 50.0196 145.337 49.0396 145.337C48.7596 145.337 48.4496 145.337 48.3496 145.347V144.587C48.4596 144.597 48.7696 144.597 49.0396 144.597C49.8796 144.597 50.5896 144.267 50.5896 143.497C50.5896 142.757 49.9096 142.357 49.0996 142.357C48.3696 142.357 47.8296 142.637 47.3396 143.167L46.8796 142.647C47.3596 142.057 48.1296 141.617 49.1696 141.617C50.4496 141.617 51.4196 142.267 51.4196 143.387C51.4196 144.357 50.6096 144.837 49.9896 144.937C50.5896 144.997 51.5296 145.507 51.5296 146.587C51.5296 147.697 50.6296 148.507 49.1596 148.507ZM55.076 148.507C53.956 148.507 53.226 148.097 52.726 147.437L53.236 146.877C53.676 147.447 54.266 147.767 55.076 147.767C55.986 147.767 56.616 147.147 56.616 146.337C56.616 145.457 55.986 144.897 55.086 144.897C54.506 144.897 53.996 145.087 53.546 145.517L52.936 145.307V141.717H57.016V142.457H53.766V144.777C54.096 144.457 54.656 144.177 55.326 144.177C56.446 144.177 57.456 144.927 57.456 146.307C57.456 147.657 56.416 148.507 55.076 148.507ZM61.0245 148.507C59.1945 148.507 58.4745 146.677 58.4745 145.057C58.4745 143.427 59.1945 141.617 61.0245 141.617C62.8445 141.617 63.5745 143.427 63.5745 145.057C63.5745 146.677 62.8445 148.507 61.0245 148.507ZM61.0245 147.767C62.2945 147.767 62.7245 146.387 62.7245 145.057C62.7245 143.727 62.2945 142.357 61.0245 142.357C59.7545 142.357 59.3245 143.727 59.3245 145.057C59.3245 146.387 59.7545 147.767 61.0245 147.767Z" fill="black"/>
<path d="M50.5852 125.773H49.7552V124.083H46.5852V123.393L49.4452 119.103H50.5852V123.353H51.5252V124.083H50.5852V125.773ZM49.7552 123.353V119.873L47.4152 123.353H49.7552ZM54.9014 125.893C53.0714 125.893 52.3514 124.063 52.3514 122.443C52.3514 120.813 53.0714 119.003 54.9014 119.003C56.7214 119.003 57.4514 120.813 57.4514 122.443C57.4514 124.063 56.7214 125.893 54.9014 125.893ZM54.9014 125.153C56.1714 125.153 56.6014 123.773 56.6014 122.443C56.6014 121.113 56.1714 119.743 54.9014 119.743C53.6314 119.743 53.2014 121.113 53.2014 122.443C53.2014 123.773 53.6314 125.153 54.9014 125.153ZM61.0245 125.893C59.1945 125.893 58.4745 124.063 58.4745 122.443C58.4745 120.813 59.1945 119.003 61.0245 119.003C62.8445 119.003 63.5745 120.813 63.5745 122.443C63.5745 124.063 62.8445 125.893 61.0245 125.893ZM61.0245 125.153C62.2945 125.153 62.7245 123.773 62.7245 122.443C62.7245 121.113 62.2945 119.743 61.0245 119.743C59.7545 119.743 59.3245 121.113 59.3245 122.443C59.3245 123.773 59.7545 125.153 61.0245 125.153Z" fill="black"/>
<path d="M50.8098 103.152H49.9798V101.462H46.8098V100.772L49.6698 96.4823H50.8098V100.732H51.7498V101.462H50.8098V103.152ZM49.9798 100.732V97.2523L47.6398 100.732H49.9798ZM55.076 103.272C53.956 103.272 53.226 102.862 52.726 102.202L53.236 101.642C53.676 102.212 54.266 102.532 55.076 102.532C55.986 102.532 56.616 101.912 56.616 101.102C56.616 100.222 55.986 99.6623 55.086 99.6623C54.506 99.6623 53.996 99.8523 53.546 100.282L52.936 100.072V96.4823H57.016V97.2223H53.766V99.5423C54.096 99.2223 54.656 98.9423 55.326 98.9423C56.446 98.9423 57.456 99.6923 57.456 101.072C57.456 102.422 56.416 103.272 55.076 103.272ZM61.0245 103.272C59.1945 103.272 58.4745 101.442 58.4745 99.8223C58.4745 98.1923 59.1945 96.3823 61.0245 96.3823C62.8445 96.3823 63.5745 98.1923 63.5745 99.8223C63.5745 101.442 62.8445 103.272 61.0245 103.272ZM61.0245 102.532C62.2945 102.532 62.7245 101.152 62.7245 99.8223C62.7245 98.4923 62.2945 97.1223 61.0245 97.1223C59.7545 97.1223 59.3245 98.4923 59.3245 99.8223C59.3245 101.152 59.7545 102.532 61.0245 102.532Z" fill="black"/>
<path d="M49.01 81.12C47.89 81.12 47.16 80.71 46.66 80.05L47.17 79.49C47.61 80.06 48.2 80.38 49.01 80.38C49.92 80.38 50.55 79.76 50.55 78.95C50.55 78.07 49.92 77.51 49.02 77.51C48.44 77.51 47.93 77.7 47.48 78.13L46.87 77.92V74.33H50.95V75.07H47.7V77.39C48.03 77.07 48.59 76.79 49.26 76.79C50.38 76.79 51.39 77.54 51.39 78.92C51.39 80.27 50.35 81.12 49.01 81.12ZM54.9084 81.12C53.7884 81.12 53.0584 80.71 52.5584 80.05L53.0684 79.49C53.5084 80.06 54.0984 80.38 54.9084 80.38C55.8184 80.38 56.4484 79.76 56.4484 78.95C56.4484 78.07 55.8184 77.51 54.9184 77.51C54.3384 77.51 53.8284 77.7 53.3784 78.13L52.7684 77.92V74.33H56.8484V75.07H53.5984V77.39C53.9284 77.07 54.4884 76.79 55.1584 76.79C56.2784 76.79 57.2884 77.54 57.2884 78.92C57.2884 80.27 56.2484 81.12 54.9084 81.12ZM60.8569 81.12C59.0269 81.12 58.3069 79.29 58.3069 77.67C58.3069 76.04 59.0269 74.23 60.8569 74.23C62.6769 74.23 63.4069 76.04 63.4069 77.67C63.4069 79.29 62.6769 81.12 60.8569 81.12ZM60.8569 80.38C62.1269 80.38 62.5569 79 62.5569 77.67C62.5569 76.34 62.1269 74.97 60.8569 74.97C59.5869 74.97 59.1569 76.34 59.1569 77.67C59.1569 79 59.5869 80.38 60.8569 80.38Z" fill="black"/>
<path d="M33 68H32.04L30.31 65.83L29.5 66.62V68H28.75V61.33H29.5V65.74L32.04 63.17H32.99L30.85 65.36L33 68ZM35.7974 69.96C34.9874 69.96 34.4274 69.8 33.8474 69.23L34.2274 68.69C34.6274 69.16 35.1074 69.34 35.7974 69.34C36.5974 69.34 37.3574 68.95 37.3574 67.93V67.2C36.9974 67.69 36.4074 68.06 35.7274 68.06C34.4674 68.06 33.5774 67.12 33.5774 65.56C33.5774 64.01 34.4574 63.05 35.7274 63.05C36.3774 63.05 36.9674 63.37 37.3574 63.9V63.17H38.1074V67.93C38.1074 69.46 36.9774 69.96 35.7974 69.96ZM35.9174 67.39C36.5074 67.39 37.0874 67.03 37.3574 66.61V64.49C37.0874 64.08 36.5074 63.72 35.9174 63.72C34.9374 63.72 34.3574 64.49 34.3574 65.56C34.3574 66.62 34.9374 67.39 35.9174 67.39ZM42.7994 68.12C40.8794 68.12 39.3694 66.72 39.3694 64.67C39.3694 62.62 40.8794 61.22 42.7994 61.22C43.9794 61.22 44.7994 61.78 45.3294 62.54L44.6394 62.93C44.2594 62.36 43.5594 61.96 42.7994 61.96C41.3394 61.96 40.2294 63.07 40.2294 64.67C40.2294 66.25 41.3394 67.38 42.7994 67.38C43.5594 67.38 44.2594 66.97 44.6394 66.41L45.3394 66.79C44.7794 67.56 43.9794 68.12 42.7994 68.12ZM49.4372 68.12C47.4672 68.12 46.1272 66.64 46.1272 64.67C46.1272 62.7 47.4672 61.22 49.4372 61.22C51.4072 61.22 52.7572 62.7 52.7572 64.67C52.7572 66.64 51.4072 68.12 49.4372 68.12ZM49.4372 67.38C50.9272 67.38 51.8972 66.22 51.8972 64.67C51.8972 63.11 50.9272 61.96 49.4372 61.96C47.9372 61.96 46.9872 63.11 46.9872 64.67C46.9872 66.22 47.9372 67.38 49.4372 67.38ZM58.3837 68H53.8037V67.33C56.2037 65.45 57.5137 64.34 57.5137 63.19C57.5137 62.33 56.8037 61.97 56.1137 61.97C55.3137 61.97 54.6937 62.31 54.3037 62.81L53.7937 62.28C54.3037 61.6 55.1737 61.23 56.1137 61.23C57.2237 61.23 58.3537 61.86 58.3537 63.19C58.3537 64.55 56.9737 65.79 55.1137 67.26H58.3837V68ZM62.0826 68.12C60.6426 68.12 59.6126 67.09 59.6126 65.58C59.6126 64.18 60.6126 63.05 61.9926 63.05C63.4526 63.05 64.3126 64.19 64.3126 65.64V65.83H60.4126C60.4726 66.74 61.1026 67.5 62.1426 67.5C62.7026 67.5 63.2526 67.28 63.6426 66.88L64.0026 67.37C63.5126 67.85 62.8626 68.12 62.0826 68.12ZM63.5726 65.27C63.5626 64.56 63.0826 63.67 61.9826 63.67C60.9526 63.67 60.4426 64.54 60.4026 65.27H63.5726Z" fill="black"/>
<path d="M618.49 338.89L618.6 338.21C618.71 338.26 618.89 338.29 619.01 338.29C619.34 338.29 619.56 338.18 619.73 337.78L620.05 337.05L618.03 332.17H618.85L620.45 336.13L622.06 332.17H622.87L620.45 337.98C620.16 338.68 619.67 338.95 619.03 338.96C618.87 338.96 618.62 338.93 618.49 338.89ZM625.842 337.12C624.402 337.12 623.372 336.09 623.372 334.58C623.372 333.18 624.372 332.05 625.752 332.05C627.212 332.05 628.072 333.19 628.072 334.64V334.83H624.172C624.232 335.74 624.862 336.5 625.902 336.5C626.462 336.5 627.012 336.28 627.402 335.88L627.762 336.37C627.272 336.85 626.622 337.12 625.842 337.12ZM627.332 334.27C627.322 333.56 626.842 332.67 625.742 332.67C624.712 332.67 624.202 333.54 624.162 334.27H627.332ZM633.057 337H632.307V336.45C631.917 336.89 631.357 337.12 630.707 337.12C629.897 337.12 629.027 336.57 629.027 335.52C629.027 334.43 629.887 333.93 630.707 333.93C631.367 333.93 631.917 334.14 632.307 334.58V333.71C632.307 333.07 631.787 332.7 631.087 332.7C630.507 332.7 630.037 332.9 629.607 333.37L629.257 332.85C629.777 332.31 630.397 332.05 631.187 332.05C632.217 332.05 633.057 332.51 633.057 333.68V337ZM630.987 336.58C631.507 336.58 632.017 336.38 632.307 335.98V335.06C632.017 334.67 631.507 334.47 630.987 334.47C630.277 334.47 629.787 334.91 629.787 335.52C629.787 336.14 630.277 336.58 630.987 336.58ZM635.32 337H634.57V332.17H635.32V332.94C635.71 332.44 636.27 332.06 636.93 332.06V332.83C636.84 332.82 636.75 332.81 636.64 332.81C636.17 332.81 635.54 333.19 635.32 333.58V337Z" fill="black"/>
<path d="M76 84C78.7696 106.4 87.0784 197.493 92.6176 218.4C98.1569 239.307 103.696 208.693 109.235 209.44C114.775 210.187 120.314 221.013 125.853 222.88C131.392 224.747 136.931 219.893 142.471 220.64C148.01 221.387 153.549 225.493 159.088 227.36C164.627 229.227 170.167 230.72 175.706 231.84C181.245 232.96 186.784 233.333 192.324 234.08C197.863 234.827 203.402 236.32 208.941 236.32C214.48 236.32 220.02 233.333 225.559 234.08C231.098 234.827 236.637 239.307 242.176 240.8C247.716 242.293 253.255 242.293 258.794 243.04C264.333 243.787 269.873 244.16 275.412 245.28C280.951 246.4 286.49 248.267 292.029 249.76C297.569 251.253 303.108 252.747 308.647 254.24C314.186 255.733 319.726 257.227 325.265 258.72C330.804 260.213 336.343 261.707 341.882 263.2C347.422 264.693 352.961 266.187 358.5 267.68C364.039 269.173 369.578 270.667 375.118 272.16C380.657 273.653 386.196 275.147 391.735 276.64C397.275 278.133 402.814 279.627 408.353 281.12C413.892 282.613 419.431 284.107 424.971 285.6C430.51 287.093 436.049 287.84 441.588 290.08C447.127 292.32 452.667 303.52 458.206 299.04C463.745 294.56 469.284 266.187 474.824 263.2C480.363 260.213 485.902 277.387 491.441 281.12C496.98 284.853 502.52 284.107 508.059 285.6C513.598 287.093 519.137 288.587 524.677 290.08C530.216 291.573 535.755 293.067 541.294 294.56C546.833 296.053 552.373 297.547 557.912 299.04C563.451 300.533 568.99 302.4 574.529 303.52C580.069 304.64 585.608 305.237 591.147 305.76C596.686 306.283 602.226 306.507 607.765 306.656C613.304 306.805 618.888 306.69 624.427 306.914C629.967 307.138 638.23 307.776 641 308H76V84Z" fill="#1B4E84"/>
<path d="M76 240.73C76 238.48 78.799 238.054 79.439 240.212C83.2047 252.905 88.6468 271.085 92.6471 276.4C98.1961 283.773 103.745 272.977 109.294 273.24C114.843 273.503 120.392 277.322 125.941 277.98C131.49 278.638 137.039 276.927 142.588 277.19C148.137 277.453 153.686 278.902 159.235 279.56C164.784 280.218 170.333 280.745 175.882 281.14C181.431 281.535 186.98 281.667 192.529 281.93C198.078 282.193 203.627 282.72 209.176 282.72C214.725 282.72 220.275 281.667 225.824 281.93C231.373 282.193 236.922 283.773 242.471 284.3C248.02 284.827 253.569 284.827 259.118 285.09C264.667 285.353 270.216 285.485 275.765 285.88C281.314 286.275 286.863 286.933 292.412 287.46C297.961 287.987 303.51 288.513 309.059 289.04C314.608 289.567 320.157 290.093 325.706 290.62C331.255 291.147 336.804 291.673 342.353 292.2C347.902 292.727 353.451 293.253 359 293.78C364.549 294.307 370.098 294.833 375.647 295.36C381.196 295.887 386.745 296.413 392.294 296.94C397.843 297.467 403.392 297.993 408.941 298.52C414.49 299.047 420.039 299.573 425.588 300.1C431.137 300.627 436.686 300.89 442.235 301.68C447.784 302.47 453.333 306.42 458.882 304.84C464.431 303.26 469.98 293.253 475.529 292.2C481.078 291.147 486.627 297.203 492.176 298.52C497.725 299.837 503.275 299.573 508.824 300.1C514.373 300.627 519.922 301.153 525.471 301.68C531.02 302.207 536.569 302.733 542.118 303.26C547.667 303.787 553.216 304.313 558.765 304.84C564.314 305.367 569.863 306.025 575.412 306.42C580.961 306.815 586.51 307.026 592.059 307.21C597.608 307.394 603.157 307.473 608.706 307.526C614.255 307.579 619.804 307.447 625.353 307.526C630.902 307.605 639.226 307.921 642 308H78C76.8954 308 76 307.105 76 306V240.73Z" fill="#7ACEDD"/>
<path d="M72.446 44.168C69.646 44.168 67.476 42.208 67.476 39.338C67.476 36.468 69.646 34.508 72.446 34.508C74.504 34.508 75.694 35.628 76.352 36.79L74.644 37.63C74.252 36.874 73.412 36.272 72.446 36.272C70.752 36.272 69.52 37.574 69.52 39.338C69.52 41.102 70.752 42.404 72.446 42.404C73.412 42.404 74.252 41.816 74.644 41.046L76.352 41.872C75.68 43.034 74.504 44.168 72.446 44.168ZM83.3313 44H81.5533V43.3C81.0913 43.846 80.2933 44.168 79.4113 44.168C78.3333 44.168 77.0593 43.44 77.0593 41.928C77.0593 40.346 78.3333 39.744 79.4113 39.744C80.3073 39.744 81.1053 40.038 81.5533 40.57V39.66C81.5533 38.974 80.9653 38.526 80.0693 38.526C79.3413 38.526 78.6693 38.792 78.0953 39.324L77.4233 38.134C78.2493 37.406 79.3133 37.07 80.3773 37.07C81.9173 37.07 83.3313 37.686 83.3313 39.632V44ZM80.1253 42.964C80.6993 42.964 81.2593 42.768 81.5533 42.376V41.536C81.2593 41.144 80.6993 40.948 80.1253 40.948C79.4253 40.948 78.8513 41.312 78.8513 41.97C78.8513 42.6 79.4253 42.964 80.1253 42.964ZM86.8729 44H85.0949V37.238H86.8729V38.162C87.3489 37.56 88.1889 37.07 89.0289 37.07V38.806C88.9029 38.778 88.7349 38.764 88.5389 38.764C87.9509 38.764 87.1669 39.1 86.8729 39.534V44ZM91.9178 41.83C92.2118 42.264 92.8698 42.586 93.4438 42.586C94.4798 42.586 95.1658 41.802 95.1658 40.626C95.1658 39.45 94.4798 38.652 93.4438 38.652C92.8698 38.652 92.2118 38.988 91.9178 39.436V41.83ZM91.9178 44H90.1398V34.662H91.9178V38.106C92.4498 37.42 93.2058 37.07 94.0038 37.07C95.7258 37.07 96.9998 38.414 96.9998 40.626C96.9998 42.88 95.7118 44.168 94.0038 44.168C93.1918 44.168 92.4498 43.804 91.9178 43.132V44ZM101.479 44.168C99.2529 44.168 97.9089 42.544 97.9089 40.612C97.9089 38.694 99.2529 37.07 101.479 37.07C103.719 37.07 105.063 38.694 105.063 40.612C105.063 42.544 103.719 44.168 101.479 44.168ZM101.479 42.586C102.585 42.586 103.215 41.676 103.215 40.612C103.215 39.562 102.585 38.652 101.479 38.652C100.373 38.652 99.7569 39.562 99.7569 40.612C99.7569 41.676 100.373 42.586 101.479 42.586ZM112.724 44H110.946V39.912C110.946 38.974 110.456 38.652 109.7 38.652C109 38.652 108.454 39.044 108.16 39.45V44H106.382V37.238H108.16V38.12C108.594 37.602 109.42 37.07 110.526 37.07C112.01 37.07 112.724 37.91 112.724 39.226V44ZM124.721 44H118.113V34.662H124.721V36.412H120.101V38.386H124.623V40.136H120.101V42.25H124.721V44ZM136.412 44H134.62V39.73C134.62 39.1 134.34 38.652 133.612 38.652C132.982 38.652 132.464 39.072 132.212 39.436V44H130.42V39.73C130.42 39.1 130.14 38.652 129.412 38.652C128.796 38.652 128.278 39.072 128.012 39.45V44H126.234V37.238H128.012V38.12C128.292 37.714 129.188 37.07 130.224 37.07C131.218 37.07 131.848 37.532 132.1 38.302C132.492 37.686 133.388 37.07 134.424 37.07C135.67 37.07 136.412 37.728 136.412 39.114V44ZM139.037 36.51C138.463 36.51 137.973 36.034 137.973 35.446C137.973 34.858 138.463 34.396 139.037 34.396C139.625 34.396 140.101 34.858 140.101 35.446C140.101 36.034 139.625 36.51 139.037 36.51ZM139.933 44H138.155V37.238H139.933V44ZM144.132 44.168C142.956 44.168 141.822 43.776 141.108 43.118L141.878 41.872C142.368 42.334 143.376 42.796 144.216 42.796C144.986 42.796 145.35 42.488 145.35 42.068C145.35 40.948 141.332 41.858 141.332 39.198C141.332 38.064 142.326 37.07 144.104 37.07C145.252 37.07 146.162 37.462 146.834 37.994L146.12 39.212C145.714 38.778 144.944 38.428 144.118 38.428C143.474 38.428 143.054 38.722 143.054 39.1C143.054 40.108 147.058 39.268 147.058 41.998C147.058 43.23 146.008 44.168 144.132 44.168ZM150.804 44.168C149.628 44.168 148.494 43.776 147.78 43.118L148.55 41.872C149.04 42.334 150.048 42.796 150.888 42.796C151.658 42.796 152.022 42.488 152.022 42.068C152.022 40.948 148.004 41.858 148.004 39.198C148.004 38.064 148.998 37.07 150.776 37.07C151.924 37.07 152.834 37.462 153.506 37.994L152.792 39.212C152.386 38.778 151.616 38.428 150.79 38.428C150.146 38.428 149.726 38.722 149.726 39.1C149.726 40.108 153.73 39.268 153.73 41.998C153.73 43.23 152.68 44.168 150.804 44.168ZM155.922 36.51C155.348 36.51 154.858 36.034 154.858 35.446C154.858 34.858 155.348 34.396 155.922 34.396C156.51 34.396 156.986 34.858 156.986 35.446C156.986 36.034 156.51 36.51 155.922 36.51ZM156.818 44H155.04V37.238H156.818V44ZM161.717 44.168C159.491 44.168 158.147 42.544 158.147 40.612C158.147 38.694 159.491 37.07 161.717 37.07C163.957 37.07 165.301 38.694 165.301 40.612C165.301 42.544 163.957 44.168 161.717 44.168ZM161.717 42.586C162.823 42.586 163.453 41.676 163.453 40.612C163.453 39.562 162.823 38.652 161.717 38.652C160.611 38.652 159.995 39.562 159.995 40.612C159.995 41.676 160.611 42.586 161.717 42.586ZM172.962 44H171.184V39.912C171.184 38.974 170.694 38.652 169.938 38.652C169.238 38.652 168.692 39.044 168.398 39.45V44H166.62V37.238H168.398V38.12C168.832 37.602 169.658 37.07 170.764 37.07C172.248 37.07 172.962 37.91 172.962 39.226V44ZM184.918 44H182.692L180.9 41.396L180.088 42.264V44H178.31V34.662H180.088V40.248L182.65 37.238H184.834L182.16 40.304L184.918 44ZM188.492 46.744C187.33 46.744 186.434 46.478 185.58 45.736L186.378 44.448C186.924 45.05 187.638 45.288 188.492 45.288C189.346 45.288 190.354 44.91 190.354 43.58V42.894C189.822 43.566 189.094 43.958 188.268 43.958C186.574 43.958 185.286 42.768 185.286 40.514C185.286 38.302 186.56 37.07 188.268 37.07C189.08 37.07 189.808 37.42 190.354 38.106V37.238H192.146V43.538C192.146 46.114 190.158 46.744 188.492 46.744ZM188.828 42.376C189.416 42.376 190.06 42.04 190.354 41.606V39.422C190.06 38.974 189.416 38.652 188.828 38.652C187.82 38.652 187.12 39.352 187.12 40.514C187.12 41.676 187.82 42.376 188.828 42.376ZM198.473 44.168C195.673 44.168 193.503 42.208 193.503 39.338C193.503 36.468 195.673 34.508 198.473 34.508C200.531 34.508 201.721 35.628 202.379 36.79L200.671 37.63C200.279 36.874 199.439 36.272 198.473 36.272C196.779 36.272 195.547 37.574 195.547 39.338C195.547 41.102 196.779 42.404 198.473 42.404C199.439 42.404 200.279 41.816 200.671 41.046L202.379 41.872C201.707 43.034 200.531 44.168 198.473 44.168ZM207.987 44.168C205.173 44.168 203.115 42.152 203.115 39.338C203.115 36.524 205.173 34.508 207.987 34.508C210.815 34.508 212.873 36.524 212.873 39.338C212.873 42.152 210.815 44.168 207.987 44.168ZM207.987 42.404C209.709 42.404 210.829 41.074 210.829 39.338C210.829 37.588 209.709 36.272 207.987 36.272C206.265 36.272 205.159 37.588 205.159 39.338C205.159 41.074 206.265 42.404 207.987 42.404ZM218.384 46.044H213.988V45.064C216.41 43.37 217.012 42.824 217.012 42.208C217.012 41.69 216.592 41.438 216.06 41.438C215.416 41.438 214.814 41.788 214.534 42.138L213.834 41.284C214.422 40.626 215.318 40.36 216.088 40.36C217.376 40.36 218.342 40.976 218.342 42.11C218.342 43.02 217.558 43.818 215.934 44.966H218.384V46.044ZM222.968 44.168C220.91 44.168 219.356 42.782 219.356 40.612C219.356 38.652 220.798 37.07 222.856 37.07C224.872 37.07 226.244 38.582 226.244 40.794V41.186H221.218C221.33 42.04 222.016 42.754 223.164 42.754C223.738 42.754 224.536 42.502 224.97 42.082L225.754 43.23C225.082 43.846 224.018 44.168 222.968 44.168ZM224.522 39.982C224.48 39.338 224.032 38.484 222.856 38.484C221.75 38.484 221.274 39.31 221.19 39.982H224.522ZM234.471 44.168C232.679 44.168 231.391 43.566 230.523 42.684L231.601 41.172C232.259 41.858 233.281 42.432 234.569 42.432C235.661 42.432 236.193 41.928 236.193 41.396C236.193 39.744 230.817 40.878 230.817 37.364C230.817 35.81 232.161 34.522 234.359 34.522C235.843 34.522 237.075 34.97 237.999 35.824L236.893 37.28C236.137 36.58 235.129 36.258 234.177 36.258C233.323 36.258 232.847 36.636 232.847 37.196C232.847 38.68 238.209 37.686 238.209 41.172C238.209 42.88 236.991 44.168 234.471 44.168ZM241.582 44.168C240.336 44.168 239.664 43.524 239.664 42.32V38.792H238.544V37.238H239.664V35.39H241.456V37.238H242.828V38.792H241.456V41.844C241.456 42.264 241.68 42.586 242.072 42.586C242.338 42.586 242.59 42.488 242.688 42.39L243.066 43.734C242.8 43.972 242.324 44.168 241.582 44.168ZM249.882 44H248.104V43.3C247.642 43.846 246.844 44.168 245.962 44.168C244.884 44.168 243.61 43.44 243.61 41.928C243.61 40.346 244.884 39.744 245.962 39.744C246.858 39.744 247.656 40.038 248.104 40.57V39.66C248.104 38.974 247.516 38.526 246.62 38.526C245.892 38.526 245.22 38.792 244.646 39.324L243.974 38.134C244.8 37.406 245.864 37.07 246.928 37.07C248.468 37.07 249.882 37.686 249.882 39.632V44ZM246.676 42.964C247.25 42.964 247.81 42.768 248.104 42.376V41.536C247.81 41.144 247.25 40.948 246.676 40.948C245.976 40.948 245.402 41.312 245.402 41.97C245.402 42.6 245.976 42.964 246.676 42.964ZM253.424 44H251.646V37.238H253.424V38.162C253.9 37.56 254.74 37.07 255.58 37.07V38.806C255.454 38.778 255.286 38.764 255.09 38.764C254.502 38.764 253.718 39.1 253.424 39.534V44ZM258.959 44.168C257.713 44.168 257.041 43.524 257.041 42.32V38.792H255.921V37.238H257.041V35.39H258.833V37.238H260.205V38.792H258.833V41.844C258.833 42.264 259.057 42.586 259.449 42.586C259.715 42.586 259.967 42.488 260.065 42.39L260.443 43.734C260.177 43.972 259.701 44.168 258.959 44.168ZM262.303 36.51C261.729 36.51 261.239 36.034 261.239 35.446C261.239 34.858 261.729 34.396 262.303 34.396C262.891 34.396 263.367 34.858 263.367 35.446C263.367 36.034 262.891 36.51 262.303 36.51ZM263.199 44H261.421V37.238H263.199V44ZM271.304 44H269.526V39.912C269.526 38.974 269.036 38.652 268.28 38.652C267.58 38.652 267.034 39.044 266.74 39.45V44H264.962V37.238H266.74V38.12C267.174 37.602 268 37.07 269.106 37.07C270.59 37.07 271.304 37.91 271.304 39.226V44ZM275.842 46.744C274.68 46.744 273.784 46.478 272.93 45.736L273.728 44.448C274.274 45.05 274.988 45.288 275.842 45.288C276.696 45.288 277.704 44.91 277.704 43.58V42.894C277.172 43.566 276.444 43.958 275.618 43.958C273.924 43.958 272.636 42.768 272.636 40.514C272.636 38.302 273.91 37.07 275.618 37.07C276.43 37.07 277.158 37.42 277.704 38.106V37.238H279.496V43.538C279.496 46.114 277.508 46.744 275.842 46.744ZM276.178 42.376C276.766 42.376 277.41 42.04 277.704 41.606V39.422C277.41 38.974 276.766 38.652 276.178 38.652C275.17 38.652 274.47 39.352 274.47 40.514C274.47 41.676 275.17 42.376 276.178 42.376ZM287.025 44H285.233V38.792H284.113V37.238H285.233V36.874C285.233 35.432 286.157 34.522 287.515 34.522C288.159 34.522 288.845 34.69 289.279 35.152L288.607 36.202C288.425 36.02 288.187 35.922 287.865 35.922C287.375 35.922 287.025 36.244 287.025 36.874V37.238H288.397V38.792H287.025V44ZM291.199 44H289.421V37.238H291.199V38.162C291.675 37.56 292.515 37.07 293.355 37.07V38.806C293.229 38.778 293.061 38.764 292.865 38.764C292.277 38.764 291.493 39.1 291.199 39.534V44ZM297.602 44.168C295.376 44.168 294.032 42.544 294.032 40.612C294.032 38.694 295.376 37.07 297.602 37.07C299.842 37.07 301.186 38.694 301.186 40.612C301.186 42.544 299.842 44.168 297.602 44.168ZM297.602 42.586C298.708 42.586 299.338 41.676 299.338 40.612C299.338 39.562 298.708 38.652 297.602 38.652C296.496 38.652 295.88 39.562 295.88 40.612C295.88 41.676 296.496 42.586 297.602 42.586ZM312.683 44H310.891V39.73C310.891 39.1 310.611 38.652 309.883 38.652C309.253 38.652 308.735 39.072 308.483 39.436V44H306.691V39.73C306.691 39.1 306.411 38.652 305.683 38.652C305.067 38.652 304.549 39.072 304.283 39.45V44H302.505V37.238H304.283V38.12C304.563 37.714 305.459 37.07 306.495 37.07C307.489 37.07 308.119 37.532 308.371 38.302C308.763 37.686 309.659 37.07 310.695 37.07C311.941 37.07 312.683 37.728 312.683 39.114V44ZM322.573 44.168C319.773 44.168 317.603 42.208 317.603 39.338C317.603 36.468 319.773 34.508 322.573 34.508C324.631 34.508 325.821 35.628 326.479 36.79L324.771 37.63C324.379 36.874 323.539 36.272 322.573 36.272C320.879 36.272 319.647 37.574 319.647 39.338C319.647 41.102 320.879 42.404 322.573 42.404C323.539 42.404 324.379 41.816 324.771 41.046L326.479 41.872C325.807 43.034 324.631 44.168 322.573 44.168ZM330.756 44.168C328.53 44.168 327.186 42.544 327.186 40.612C327.186 38.694 328.53 37.07 330.756 37.07C332.996 37.07 334.34 38.694 334.34 40.612C334.34 42.544 332.996 44.168 330.756 44.168ZM330.756 42.586C331.862 42.586 332.492 41.676 332.492 40.612C332.492 39.562 331.862 38.652 330.756 38.652C329.65 38.652 329.034 39.562 329.034 40.612C329.034 41.676 329.65 42.586 330.756 42.586ZM345.837 44H344.045V39.73C344.045 39.1 343.765 38.652 343.037 38.652C342.407 38.652 341.889 39.072 341.637 39.436V44H339.845V39.73C339.845 39.1 339.565 38.652 338.837 38.652C338.221 38.652 337.703 39.072 337.437 39.45V44H335.659V37.238H337.437V38.12C337.717 37.714 338.613 37.07 339.649 37.07C340.643 37.07 341.273 37.532 341.525 38.302C341.917 37.686 342.813 37.07 343.849 37.07C345.095 37.07 345.837 37.728 345.837 39.114V44ZM351.445 44.168C350.647 44.168 349.905 43.832 349.359 43.132V46.576H347.581V37.238H349.359V38.092C349.877 37.434 350.619 37.07 351.445 37.07C353.181 37.07 354.441 38.358 354.441 40.612C354.441 42.866 353.181 44.168 351.445 44.168ZM350.885 42.586C351.907 42.586 352.593 41.788 352.593 40.612C352.593 39.45 351.907 38.652 350.885 38.652C350.311 38.652 349.653 38.988 349.359 39.422V41.816C349.653 42.236 350.311 42.586 350.885 42.586ZM357.521 44H355.743V34.662H357.521V44ZM362.462 44.168C360.404 44.168 358.85 42.782 358.85 40.612C358.85 38.652 360.292 37.07 362.35 37.07C364.366 37.07 365.738 38.582 365.738 40.794V41.186H360.712C360.824 42.04 361.51 42.754 362.658 42.754C363.232 42.754 364.03 42.502 364.464 42.082L365.248 43.23C364.576 43.846 363.512 44.168 362.462 44.168ZM364.016 39.982C363.974 39.338 363.526 38.484 362.35 38.484C361.244 38.484 360.768 39.31 360.684 39.982H364.016ZM369.291 44.168C368.045 44.168 367.373 43.524 367.373 42.32V38.792H366.253V37.238H367.373V35.39H369.165V37.238H370.537V38.792H369.165V41.844C369.165 42.264 369.389 42.586 369.781 42.586C370.047 42.586 370.299 42.488 370.397 42.39L370.775 43.734C370.509 43.972 370.033 44.168 369.291 44.168ZM372.635 36.51C372.061 36.51 371.571 36.034 371.571 35.446C371.571 34.858 372.061 34.396 372.635 34.396C373.223 34.396 373.699 34.858 373.699 35.446C373.699 36.034 373.223 36.51 372.635 36.51ZM373.531 44H371.753V37.238H373.531V44ZM378.43 44.168C376.204 44.168 374.86 42.544 374.86 40.612C374.86 38.694 376.204 37.07 378.43 37.07C380.67 37.07 382.014 38.694 382.014 40.612C382.014 42.544 380.67 44.168 378.43 44.168ZM378.43 42.586C379.536 42.586 380.166 41.676 380.166 40.612C380.166 39.562 379.536 38.652 378.43 38.652C377.324 38.652 376.708 39.562 376.708 40.612C376.708 41.676 377.324 42.586 378.43 42.586ZM389.675 44H387.897V39.912C387.897 38.974 387.407 38.652 386.651 38.652C385.951 38.652 385.405 39.044 385.111 39.45V44H383.333V37.238H385.111V38.12C385.545 37.602 386.371 37.07 387.477 37.07C388.961 37.07 389.675 37.91 389.675 39.226V44ZM399.657 44H397.669V40.178L394.071 34.662H396.339L398.663 38.414L400.959 34.662H403.227L399.657 40.178V44ZM405.488 44.168C403.43 44.168 401.876 42.782 401.876 40.612C401.876 38.652 403.318 37.07 405.376 37.07C407.392 37.07 408.764 38.582 408.764 40.794V41.186H403.738C403.85 42.04 404.536 42.754 405.684 42.754C406.258 42.754 407.056 42.502 407.49 42.082L408.274 43.23C407.602 43.846 406.538 44.168 405.488 44.168ZM407.042 39.982C407 39.338 406.552 38.484 405.376 38.484C404.27 38.484 403.794 39.31 403.71 39.982H407.042ZM415.886 44H414.108V43.3C413.646 43.846 412.848 44.168 411.966 44.168C410.888 44.168 409.614 43.44 409.614 41.928C409.614 40.346 410.888 39.744 411.966 39.744C412.862 39.744 413.66 40.038 414.108 40.57V39.66C414.108 38.974 413.52 38.526 412.624 38.526C411.896 38.526 411.224 38.792 410.65 39.324L409.978 38.134C410.804 37.406 411.868 37.07 412.932 37.07C414.472 37.07 415.886 37.686 415.886 39.632V44ZM412.68 42.964C413.254 42.964 413.814 42.768 414.108 42.376V41.536C413.814 41.144 413.254 40.948 412.68 40.948C411.98 40.948 411.406 41.312 411.406 41.97C411.406 42.6 411.98 42.964 412.68 42.964ZM419.428 44H417.65V37.238H419.428V38.162C419.904 37.56 420.744 37.07 421.584 37.07V38.806C421.458 38.778 421.29 38.764 421.094 38.764C420.506 38.764 419.722 39.1 419.428 39.534V44Z" fill="#342B60"/>
<path d="M574.04 44H573.21V37.33H575.89C577.23 37.33 577.98 38.25 577.98 39.34C577.98 40.43 577.22 41.35 575.89 41.35H574.04V44ZM575.79 40.61C576.58 40.61 577.12 40.09 577.12 39.34C577.12 38.59 576.58 38.07 575.79 38.07H574.04V40.61H575.79ZM579.799 44H579.049V39.17H579.799V39.94C580.189 39.44 580.749 39.06 581.409 39.06V39.83C581.319 39.82 581.229 39.81 581.119 39.81C580.649 39.81 580.019 40.19 579.799 40.58V44ZM584.46 44.12C582.99 44.12 582.07 42.98 582.07 41.58C582.07 40.18 582.99 39.05 584.46 39.05C585.93 39.05 586.85 40.18 586.85 41.58C586.85 42.98 585.93 44.12 584.46 44.12ZM584.46 43.45C585.49 43.45 586.06 42.57 586.06 41.58C586.06 40.6 585.49 39.72 584.46 39.72C583.43 39.72 582.86 40.6 582.86 41.58C582.86 42.57 583.43 43.45 584.46 43.45ZM588.453 38.48C588.173 38.48 587.943 38.26 587.943 37.98C587.943 37.7 588.173 37.47 588.453 37.47C588.733 37.47 588.953 37.7 588.953 37.98C588.953 38.26 588.733 38.48 588.453 38.48ZM587.393 45.96C586.903 45.96 586.643 45.84 586.343 45.6L586.603 45.04C586.773 45.21 586.993 45.34 587.293 45.34C587.743 45.34 588.073 45.08 588.073 44.47V39.17H588.823V44.47C588.823 45.42 588.323 45.96 587.393 45.96ZM592.509 44.12C591.069 44.12 590.039 43.09 590.039 41.58C590.039 40.18 591.039 39.05 592.419 39.05C593.879 39.05 594.739 40.19 594.739 41.64V41.83H590.839C590.899 42.74 591.529 43.5 592.569 43.5C593.129 43.5 593.679 43.28 594.069 42.88L594.429 43.37C593.939 43.85 593.289 44.12 592.509 44.12ZM593.999 41.27C593.989 40.56 593.509 39.67 592.409 39.67C591.379 39.67 590.869 40.54 590.829 41.27H593.999ZM598.084 44.12C596.644 44.12 595.674 43.01 595.674 41.58C595.674 40.15 596.644 39.05 598.084 39.05C598.964 39.05 599.484 39.41 599.854 39.89L599.354 40.34C599.034 39.9 598.624 39.72 598.124 39.72C597.104 39.72 596.454 40.51 596.454 41.58C596.454 42.65 597.104 43.45 598.124 43.45C598.624 43.45 599.034 43.25 599.354 42.82L599.854 43.28C599.484 43.76 598.964 44.12 598.084 44.12ZM602.145 44.12C601.425 44.12 601.065 43.71 601.065 42.99V39.83H600.265V39.17H601.065V37.85H601.825V39.17H602.805V39.83H601.825V42.83C601.825 43.19 601.985 43.45 602.305 43.45C602.525 43.45 602.715 43.35 602.815 43.24L603.035 43.81C602.845 43.99 602.575 44.12 602.145 44.12ZM612.182 44H611.232L610.642 42.51H607.322L606.732 44H605.782L608.472 37.33H609.502L612.182 44ZM610.402 41.78L608.982 38.18L607.572 41.78H610.402Z" fill="black"/>
<path d="M496.287 44H493.247V37.33H496.217C497.377 37.33 498.087 38.03 498.087 39.03C498.087 39.87 497.527 40.43 496.917 40.56C497.627 40.67 498.217 41.4 498.217 42.2C498.217 43.27 497.507 44 496.287 44ZM496.077 40.22C496.827 40.22 497.227 39.76 497.227 39.15C497.227 38.55 496.827 38.07 496.077 38.07H494.077V40.22H496.077ZM496.127 43.26C496.897 43.26 497.357 42.82 497.357 42.11C497.357 41.5 496.937 40.96 496.127 40.96H494.077V43.26H496.127ZM503.516 44H502.766V43.32C502.396 43.74 501.766 44.12 501.046 44.12C500.036 44.12 499.506 43.62 499.506 42.58V39.17H500.256V42.35C500.256 43.2 500.686 43.45 501.346 43.45C501.926 43.45 502.486 43.11 502.766 42.72V39.17H503.516V44ZM505.394 38.48C505.114 38.48 504.884 38.26 504.884 37.98C504.884 37.7 505.114 37.47 505.394 37.47C505.674 37.47 505.894 37.7 505.894 37.98C505.894 38.26 505.674 38.48 505.394 38.48ZM505.764 44H505.014V39.17H505.764V44ZM508.01 44H507.26V37.33H508.01V44ZM513.756 44H513.006V43.28C512.646 43.77 512.056 44.12 511.376 44.12C510.116 44.12 509.226 43.16 509.226 41.59C509.226 40.04 510.116 39.05 511.376 39.05C512.026 39.05 512.616 39.37 513.006 39.9V37.33H513.756V44ZM511.566 43.45C512.156 43.45 512.746 43.1 513.006 42.68V40.5C512.746 40.08 512.156 39.72 511.566 39.72C510.586 39.72 510.006 40.52 510.006 41.59C510.006 42.66 510.586 43.45 511.566 43.45ZM515.638 38.48C515.358 38.48 515.128 38.26 515.128 37.98C515.128 37.7 515.358 37.47 515.638 37.47C515.918 37.47 516.138 37.7 516.138 37.98C516.138 38.26 515.918 38.48 515.638 38.48ZM516.008 44H515.258V39.17H516.008V44ZM521.514 44H520.774V40.84C520.774 39.98 520.334 39.72 519.684 39.72C519.094 39.72 518.544 40.08 518.254 40.47V44H517.504V39.17H518.254V39.87C518.594 39.46 519.254 39.05 519.984 39.05C520.984 39.05 521.514 39.56 521.514 40.61V44ZM524.961 45.96C524.151 45.96 523.591 45.8 523.011 45.23L523.391 44.69C523.791 45.16 524.271 45.34 524.961 45.34C525.761 45.34 526.521 44.95 526.521 43.93V43.2C526.161 43.69 525.571 44.06 524.891 44.06C523.631 44.06 522.741 43.12 522.741 41.56C522.741 40.01 523.621 39.05 524.891 39.05C525.541 39.05 526.131 39.37 526.521 39.9V39.17H527.271V43.93C527.271 45.46 526.141 45.96 524.961 45.96ZM525.081 43.39C525.671 43.39 526.251 43.03 526.521 42.61V40.49C526.251 40.08 525.671 39.72 525.081 39.72C524.101 39.72 523.521 40.49 523.521 41.56C523.521 42.62 524.101 43.39 525.081 43.39ZM533.221 44H532.391V38.42L531.321 39.56L530.821 39.05L532.491 37.33H533.221V44Z" fill="black"/>
<rect x="537.707" y="37" width="24.5913" height="8.19711" rx="2" fill="#7ACEDD"/>
<rect x="616.341" y="37" width="24.5913" height="8.19711" rx="2" fill="#1B4E84"/>
</g>
<defs>
<filter id="filter0_d_5983_5113" x="0" y="0" width="684" height="365" filterUnits="userSpaceOnUse" color-interpolation-filters="sRGB">
<feFlood flood-opacity="0" result="BackgroundImageFix"/>
<feColorMatrix in="SourceAlpha" type="matrix" values="0 0 0 0 0 0 0 0 0 0 0 0 0 0 0 0 0 0 127 0" result="hardAlpha"/>
<feOffset dx="1" dy="1"/>
<feGaussianBlur stdDeviation="3"/>
<feComposite in2="hardAlpha" operator="out"/>
<feColorMatrix type="matrix" values="0 0 0 0 0 0 0 0 0 0 0 0 0 0 0 0 0 0 0.1 0"/>
<feBlend mode="normal" in2="BackgroundImageFix" result="effect1_dropShadow_5983_5113"/>
<feBlend mode="normal" in="SourceGraphic" in2="effect1_dropShadow_5983_5113" result="shape"/>
</filter>
</defs>
</svg>
