<svg width="367" height="77" viewBox="0 0 367 77" fill="none" xmlns="http://www.w3.org/2000/svg">
<line x1="12.2727" y1="74.3164" x2="360" y2="74.3164" stroke="black"/>
<circle cx="13.9091" cy="74.0014" r="2.45455" fill="black"/>
<circle cx="187.455" cy="74.0014" r="2.45455" fill="black"/>
<circle cx="360" cy="74.0014" r="2.45455" fill="black"/>
<path d="M1 33.0146V51C1 51.5523 1.44772 52 2 52H46C46.5523 52 47 51.5523 47 51V20C47 19.4477 46.5523 19 46 19H33.5242C33.1959 19 32.8885 19.1611 32.7018 19.4311L25.3938 29.9959C24.836 30.8023 23.5714 30.4075 23.5714 29.427V21.9853C23.5714 21.0258 22.3512 20.6171 21.7732 21.383L15.0839 30.2475C14.506 31.0134 13.2857 30.6046 13.2857 29.6451V21.6031C13.2857 20.6869 12.1563 20.2531 11.5429 20.9336L1.2572 32.3451C1.09163 32.5288 1 32.7673 1 33.0146Z" stroke="black" stroke-linecap="round"/>
<path d="M35 19V12C35 11.4477 35.4477 11 36 11H40C40.5523 11 41 11.4477 41 12V19" stroke="black" stroke-linecap="round"/>
<path d="M37.7668 8.39105C37.1798 7.44156 37.3145 5.59352 38.8564 4.72962C39.4251 4.41098 39.8043 3.72069 39.8503 3.07041C39.9653 1.44265 41.6595 0.178482 44.4461 1.80546" stroke="black" stroke-linecap="round"/>
<rect x="38.5" y="43.5" width="6" height="4" transform="rotate(-90 38.5 43.5)" stroke="black"/>
<rect x="30.5" y="43.5" width="6" height="4" transform="rotate(-90 30.5 43.5)" stroke="black"/>
<rect x="22.5" y="43.5" width="6" height="4" transform="rotate(-90 22.5 43.5)" stroke="black"/>
<rect x="14.5" y="43.5" width="6" height="4" transform="rotate(-90 14.5 43.5)" stroke="black"/>
<rect x="6.5" y="43.5" width="6" height="4" transform="rotate(-90 6.5 43.5)" stroke="black"/>
<rect x="38.5" y="32.5" width="6" height="4" transform="rotate(-90 38.5 32.5)" stroke="black"/>
<path d="M184.085 7.07697L169.915 30.5655C169.513 31.232 169.993 32.0821 170.771 32.0821H184.941C185.493 32.0821 185.941 32.5298 185.941 33.0821V52.8706C185.941 53.9196 187.35 54.2609 187.83 53.3281L200.25 29.1888C200.593 28.5233 200.109 27.7313 199.361 27.7313H186.941C186.389 27.7313 185.941 27.2836 185.941 26.7313V7.59352C185.941 6.58057 184.608 6.20962 184.085 7.07697Z" stroke="black" stroke-linecap="round"/>
<path d="M365.25 39.1567C365.583 39.3492 365.583 39.8303 365.25 40.0228L341.865 53.5239C341.532 53.7163 341.115 53.4758 341.115 53.0909L341.115 26.0886C341.115 25.7037 341.532 25.4632 341.865 25.6556L365.25 39.1567Z" stroke="black"/>
<path d="M340.378 39.1584C340.712 39.3509 340.712 39.832 340.378 40.0245L324.532 49.1732C324.199 49.3657 323.782 49.1251 323.782 48.7402L323.782 30.4427C323.782 30.0578 324.199 29.8172 324.532 30.0097L340.378 39.1584Z" stroke="black"/>
</svg>
